<?xml version="1.0" encoding="utf-8"?>
<!-- Generator: Adobe Illustrator 13.0.0, SVG Export Plug-In . SVG Version: 6.00 Build 14948)  -->
<!DOCTYPE svg PUBLIC "-//W3C//DTD SVG 1.1//EN" "http://www.w3.org/Graphics/SVG/1.1/DTD/svg11.dtd">
<svg version="1.1" id="Layer_1" xmlns="http://www.w3.org/2000/svg" xmlns:xlink="http://www.w3.org/1999/xlink" x="0px" y="0px"
	 width="121px" height="140px" viewBox="0 0 121 140" enable-background="new 0 0 121 140" xml:space="preserve">
<g>
	<g>
		<polygon fill="#EAEAEE" points="60.501,139.563 0.375,104.782 0.375,35.218 60.501,0.435 120.624,35.218 120.624,104.782 
			60.501,139.563 		"/>
		<path fill="#3E3C3C" d="M60.5,0L121,35v70l-60.5,35L0,105V35L60.5,0 M60.5,0.866L0.75,35.433v69.135l59.75,34.566l59.75-34.566
			V35.433L60.5,0.866L60.5,0.866z"/>
	</g>
	<g>
		<polygon fill="#EAEAEE" points="60.501,69.566 0.751,35.001 60.501,0.436 120.251,35.001 60.501,69.566 		"/>
		<g>
			<path fill="#3E3C3C" d="M60.5,0L121,35L60.5,70L0,35L60.5,0 M60.5,0.866L1.498,35L60.5,69.134L119.502,35L60.5,0.866L60.5,0.866z
				"/>
		</g>
	</g>
	<rect x="60" y="69.344" fill="#3E3C3C" width="1" height="70.031"/>
	<g>
		<polygon fill="#FFFFFF" points="25,80.5 7,70.5 7,50.5 25,60.5 		"/>
		<path fill="#3E3C3C" d="M7,50.5v1.144l0,0C7,52.826,7,54.5,7,54.5h1v-2.3l1.296,0.72l0.486-0.875c0,0-0.984-0.547-1.782-0.99l0,0
			L7,50.5L7,50.5z M8,56.5H7v4h1V56.5L8,56.5z M8,62.5H7v4h1V62.5L8,62.5z M8,68.5H7v2l0,0l0,0l1.749,0.972l0.485-0.875L8,69.912
			V68.5L8,68.5z M10.982,71.568l-0.486,0.874l0,0l3.497,1.942l0.486-0.874L10.982,71.568L10.982,71.568z M16.227,74.482
			l-0.485,0.874l2.213,1.229c0.001,0.001,0.001,0.001,0.002,0.001l0.007,0.004c0.002,0.001,0.004,0.002,0.006,0.003l0.001,0.001
			c0.006,0.004,0.012,0.007,0.018,0.01l0.003,0.002c0.002,0.001,0.004,0.003,0.007,0.004l0.007,0.004c0,0,0,0,0,0l0.006,0.004
			c0.669,0.371,1.226,0.681,1.226,0.681l0.485-0.874L16.227,74.482L16.227,74.482z M25,75.091h-1v3.71l-2.528-1.404l-0.486,0.874
			c0,0,1.74,0.967,2.765,1.536l0.005,0.003c0.001,0,0.003,0.001,0.005,0.002l0.013,0.008c0,0,0.001,0,0.002,0.001l0.03,0.017
			c0.002,0.001,0.004,0.002,0.007,0.004l0.67,0.372l0.486-0.874l-0.445-0.248H25V75.091L25,75.091z M25,69.091h-1v4h1V69.091
			L25,69.091z M25,63.091h-1v4h1V63.091L25,63.091z M22.02,58.845l-0.485,0.874L24,61.088v0.003h0.005l0.509,0.283l0,0l0.157-0.283
			H25V60.5l0,0l0,0l0,0l0,0l0,0l0,0c0,0-0.046-0.026-0.127-0.07l-0.002-0.001c-0.041-0.022-0.089-0.049-0.145-0.081l-0.002-0.001
			c-0.014-0.008-0.028-0.016-0.042-0.024h0c-0.014-0.008-0.029-0.016-0.044-0.025l-0.003-0.002
			c-0.007-0.004-0.014-0.008-0.021-0.012l-0.002-0.001c-0.003-0.002-0.007-0.004-0.011-0.006l0,0
			c-0.003-0.002-0.007-0.004-0.01-0.006l-0.004-0.002c-0.003-0.001-0.006-0.003-0.008-0.005l-0.005-0.002c0,0-0.001,0-0.002-0.001
			l-0.024-0.014c0,0,0,0,0,0l-0.024-0.014c-0.001,0-0.002-0.001-0.004-0.002l-0.003-0.002c0,0-0.001,0-0.001,0l-0.005-0.003
			c-0.003-0.002-0.007-0.004-0.011-0.006l-0.001-0.001c-0.002-0.001-0.004-0.002-0.006-0.003l-0.003-0.002c0,0-0.001,0-0.001,0
			l-0.006-0.003c-0.001,0-0.002-0.001-0.003-0.001l-0.002-0.001c-0.006-0.003-0.012-0.006-0.018-0.01l-0.004-0.002
			c-0.001-0.001-0.002-0.001-0.003-0.002l-0.002-0.001c-0.001,0-0.002-0.001-0.004-0.002l-0.026-0.015c-0.001,0-0.001,0-0.002-0.001
			l-0.019-0.011c-0.003-0.001-0.006-0.003-0.009-0.005l-0.005-0.003c-0.002-0.001-0.004-0.002-0.007-0.003l-0.012-0.007
			c-0.005-0.002-0.01-0.005-0.015-0.008l-0.011-0.006c-0.003-0.002-0.006-0.003-0.008-0.005l-0.059-0.033c0,0-0.001,0-0.001,0
			l-0.028-0.016c-0.001,0-0.002-0.001-0.003-0.001L22.02,58.845L22.02,58.845z M16.775,55.931l-0.486,0.874l3.497,1.943l0.486-0.875
			L16.775,55.931L16.775,55.931z M11.53,53.017l-0.485,0.874l3.497,1.942l0.485-0.874l-2.165-1.203
			C12.147,53.359,11.53,53.017,11.53,53.017L11.53,53.017z"/>
	</g>
	<g>
		<polygon fill="#FFFFFF" points="25,107.5 7,97.5 7,77.5 25,87.5 		"/>
		<path fill="#3E3C3C" d="M7,77.5v1.144l0,0C7,79.826,7,81.5,7,81.5h1v-2.301l1.296,0.721l0.486-0.874c0,0-0.984-0.547-1.782-0.99
			l0,0L7,77.5L7,77.5z M8,83.5H7v4h1V83.5L8,83.5z M8,89.5H7v4h1V89.5L8,89.5z M8,95.5H7v2l0,0l0,0l0.02,0.011c0,0,0,0,0,0
			l0.023,0.013c0,0.001,0,0.001,0,0.001l0.014,0.008c0.001,0,0.001,0,0.002,0.001l0.005,0.003c0.007,0.004,0.014,0.008,0.021,0.012
			h0c0.003,0.002,0.006,0.004,0.009,0.005l0.002,0.002c0.001,0,0.002,0.001,0.003,0.001l0,0.001
			c0.001,0.001,0.003,0.001,0.004,0.002l0.002,0.001c0.381,0.212,1.64,0.912,1.64,0.912l0.486-0.875L8,96.911V95.5L8,95.5z
			 M10.982,98.568l-0.486,0.874l3.497,1.942l0.486-0.874L10.982,98.568L10.982,98.568z M16.227,101.482l-0.485,0.874l3.497,1.942
			l0,0l0.485-0.874L16.227,101.482L16.227,101.482z M25,102.091h-1v3.71l-2.528-1.404l-0.486,0.874l1.749,0.971l0,0l0.041,0.023l0,0
			l0.039,0.021c0.002,0.001,0.003,0.002,0.005,0.003l0.038,0.021l0,0l0.038,0.021c0.002,0.001,0.004,0.002,0.006,0.003l0.037,0.021
			c0,0.001,0.001,0.001,0.001,0.001l0.02,0.011c0.001,0.001,0.002,0.001,0.002,0.002l0.005,0.003
			c0.007,0.004,0.015,0.008,0.022,0.012l0.007,0.004c0.009,0.006,0.019,0.011,0.029,0.017h0c0.767,0.426,1.457,0.81,1.457,0.81
			l0.486-0.874l-0.445-0.247H25V102.091L25,102.091z M25,96.091h-1v4h1V96.091L25,96.091z M25,90.091h-1v4h1V90.091L25,90.091z
			 M22.02,85.845l-0.485,0.874L24,88.089v0.002h0.005l0.509,0.283l0,0l0.157-0.283H25V87.5l0,0l0,0l0,0l0,0l0,0l0,0L22.02,85.845
			L22.02,85.845z M16.775,82.931l-0.486,0.874l3.497,1.942l0.486-0.874L16.775,82.931L16.775,82.931z M11.53,80.017l-0.485,0.874
			l3.497,1.943l0.485-0.875l-3.183-1.768c0,0,0,0-0.001-0.001l-0.012-0.006c0,0,0,0,0-0.001l-0.005-0.003
			c-0.001,0-0.002-0.001-0.003-0.001l-0.002-0.001c-0.001-0.001-0.001-0.001-0.002-0.002l-0.004-0.002
			c-0.001-0.001-0.001-0.001-0.002-0.001l-0.002-0.002c-0.001,0-0.002-0.001-0.003-0.001l-0.004-0.003
			c-0.007-0.004-0.014-0.008-0.021-0.011l-0.001-0.001c-0.003-0.002-0.007-0.004-0.01-0.006h0c-0.002-0.001-0.004-0.002-0.006-0.004
			l-0.007-0.004c-0.006-0.003-0.012-0.007-0.018-0.01h-0.001c-0.006-0.004-0.013-0.008-0.019-0.011l-0.002-0.001
			c-0.002-0.002-0.005-0.004-0.008-0.005l-0.001-0.001c-0.003-0.001-0.005-0.003-0.008-0.004l-0.001-0.001
			c-0.003-0.002-0.006-0.003-0.009-0.005l0,0c-0.001-0.001-0.002-0.002-0.004-0.002L11.679,80.1
			c-0.005-0.003-0.01-0.006-0.016-0.009l0,0c-0.017-0.01-0.032-0.019-0.046-0.026l0,0C11.561,80.034,11.53,80.017,11.53,80.017
			L11.53,80.017L11.53,80.017z"/>
	</g>
	<g>
		<polygon fill="#FFFFFF" points="51,95 33,85 33,65 51,75 		"/>
		<path fill="#3E3C3C" d="M33,65v1.144l0,0C33,67.326,33,69,33,69h1v-2.3l1.296,0.72l0.486-0.875c0,0-0.984-0.547-1.782-0.99l0,0
			L33,65L33,65z M34,71h-1v4h1V71L34,71z M34,77h-1v4h1V77L34,77z M34,83h-1v2l0,0l0,0l1.749,0.972l0.485-0.875L34,84.411V83L34,83z
			 M36.982,86.068l-0.486,0.874l3.497,1.942l0.486-0.874L36.982,86.068L36.982,86.068z M42.227,88.982l-0.485,0.874l3.497,1.942
			l0.485-0.874L42.227,88.982L42.227,88.982z M51,89.591h-1v3.71l-2.528-1.404l-0.486,0.874l3.497,1.942l0.485-0.874l-0.445-0.248
			H51V89.591L51,89.591z M51,83.591h-1v4h1V83.591L51,83.591z M51,77.591h-1v4h1V77.591L51,77.591z M48.02,73.345l-0.485,0.874
			L50,75.589v0.002h0.005l0.509,0.283l0,0l0.157-0.283H51V75l0,0l0,0l0,0l0,0l0,0l0,0c0,0-0.012-0.007-0.033-0.019h0
			c-0.011-0.006-0.023-0.014-0.039-0.021l-0.002-0.001c-0.001-0.001-0.003-0.002-0.004-0.003l-0.001-0.001
			c-0.001,0-0.003-0.001-0.004-0.002l-0.019-0.011c0,0,0,0-0.001-0.001l-0.003-0.001c0,0-0.001-0.001-0.001-0.001L48.02,73.345
			L48.02,73.345z M42.775,70.431l-0.486,0.874l3.497,1.942l0.486-0.874l-2.085-1.158c-0.003-0.002-0.005-0.003-0.008-0.005
			l-0.004-0.002C43.431,70.795,42.775,70.431,42.775,70.431L42.775,70.431z M37.53,67.517l-0.486,0.874l3.497,1.942l0.485-0.874
			L37.53,67.517L37.53,67.517z"/>
	</g>
	<g>
		<polygon fill="#FFFFFF" points="51,122 33,112 33,92 51,102 		"/>
		<path fill="#3E3C3C" d="M33,92v1.144l0,0C33,94.326,33,96,33,96h1v-2.301l1.296,0.721l0.486-0.874c0,0-0.984-0.547-1.782-0.99l0,0
			L33,92L33,92z M34,98h-1v4h1V98L34,98z M34,104h-1v4h1V104L34,104z M34,110h-1v2l0,0l0,0l0.074,0.041
			c0,0.001,0.001,0.001,0.002,0.001l0.001,0.001c0,0,0,0,0,0l0.037,0.021c0,0,0,0,0.001,0l0.021,0.013h0.001l0.011,0.006
			c0,0.001,0.001,0.001,0.001,0.001l0.002,0.001c0.004,0.003,0.008,0.005,0.012,0.007l0.003,0.002c0,0,0.001,0,0.001,0.001
			l0.003,0.001c0.002,0.002,0.005,0.003,0.008,0.005h0c0.008,0.005,0.017,0.01,0.026,0.015l0,0c0.462,0.257,1.543,0.857,1.543,0.857
			l0.485-0.875L34,111.412V110L34,110z M36.982,113.068l-0.486,0.874l3.497,1.942l0.486-0.874L36.982,113.068L36.982,113.068z
			 M42.227,115.982l-0.485,0.874l3.497,1.942l0.485-0.874L42.227,115.982L42.227,115.982z M51,116.591h-1v3.71l-2.528-1.404
			l-0.486,0.874l1.5,0.833c0.002,0.001,0.005,0.003,0.008,0.004l0.014,0.008c0.943,0.523,1.976,1.098,1.976,1.098l0.485-0.874
			l-0.445-0.248H51V116.591L51,116.591z M51,110.591h-1v4h1V110.591L51,110.591z M51,104.591h-1v4h1V104.591L51,104.591z
			 M48.02,100.345l-0.485,0.874l2.465,1.37v0.002h0.005l0.509,0.283l0,0l0.157-0.283H51V102l0,0l0,0l0,0l0,0l0,0l0,0
			c0,0-0.046-0.025-0.128-0.071h0c-0.061-0.034-0.142-0.079-0.237-0.132l0,0c-0.031-0.018-0.064-0.035-0.098-0.054l-0.008-0.005
			c-0.033-0.019-0.067-0.037-0.103-0.057l-0.001-0.001c-0.037-0.021-0.074-0.042-0.113-0.063l-0.004-0.002
			c-0.039-0.021-0.079-0.044-0.12-0.066l-0.003-0.002c-0.021-0.012-0.041-0.022-0.062-0.034l-0.002-0.001
			c-0.01-0.006-0.02-0.012-0.03-0.017l-0.003-0.002c-0.004-0.002-0.008-0.005-0.013-0.007l-0.004-0.002
			c-0.001-0.001-0.002-0.002-0.003-0.002l-0.021-0.012c-0.002-0.001-0.004-0.002-0.006-0.004h0
			c-0.002-0.001-0.005-0.003-0.008-0.004l0-0.001c-0.002-0.001-0.004-0.002-0.006-0.003l-0.004-0.002
			c-0.004-0.003-0.008-0.005-0.012-0.007l-0.003-0.002c-0.002-0.001-0.004-0.003-0.006-0.004l-0.005-0.002c0,0,0-0.001,0-0.001
			l-0.013-0.007c-0.002-0.001-0.004-0.003-0.006-0.004l-0.002-0.001c-0.013-0.008-0.027-0.015-0.041-0.022l-0.001-0.001
			c-0.001,0-0.002-0.001-0.003-0.002l-0.006-0.003c-0.022-0.012-0.043-0.024-0.065-0.036l-0.001-0.001
			c-0.011-0.006-0.021-0.012-0.032-0.018l-0.003-0.002c-0.004-0.002-0.009-0.005-0.014-0.007l-0.03-0.017
			c-0.002-0.001-0.004-0.002-0.006-0.003l-0.002-0.002c-0.004-0.002-0.008-0.004-0.011-0.006l-0.008-0.005
			c-0.001-0.001-0.002-0.001-0.003-0.002l-0.004-0.002c-0.001-0.001-0.002-0.001-0.003-0.002l-0.024-0.014
			c-0.005-0.002-0.009-0.005-0.014-0.008l0,0c-0.004-0.002-0.009-0.005-0.014-0.007l-0.008-0.005h0l-0.005-0.003
			c-0.002-0.001-0.004-0.002-0.006-0.004l-0.005-0.002c-0.001-0.001-0.001-0.001-0.002-0.002l-0.032-0.018
			c-0.001,0-0.001-0.001-0.002-0.001l-0.346-0.192c0-0.001-0.001-0.001-0.001-0.001l-0.102-0.057c0,0-0.001-0.001-0.001-0.001
			l-0.024-0.013c0-0.001-0.001-0.001-0.002-0.002l-0.024-0.013l0,0l-0.05-0.028c0,0-0.001,0-0.001-0.001l-0.016-0.009l0,0
			L48.02,100.345L48.02,100.345z M42.775,97.431l-0.486,0.874l3.497,1.942l0.486-0.874L42.775,97.431L42.775,97.431z M37.53,94.517
			l-0.486,0.874l3.497,1.943l0.485-0.875L37.53,94.517L37.53,94.517z"/>
	</g>
	<g>
		<polygon fill="#FFFFFF" points="88,92 70,102 70,122 88,112 		"/>
		<path fill="#3E3C3C" d="M88,92l-3.497,1.942l0.486,0.874L87,93.699v1.483h1V92L88,92z M82.755,94.914l-3.496,1.942l0.485,0.874
			l3.496-1.942L82.755,94.914L82.755,94.914z M77.51,97.828l-2.439,1.355c-0.002,0.001-0.004,0.002-0.005,0.002l-0.011,0.007
			c-0.001,0-0.002,0-0.002,0.001L75.039,99.2c0,0,0,0.001-0.001,0.001l-0.006,0.003c-0.573,0.318-1.019,0.566-1.019,0.566
			l0.485,0.874l3.497-1.942L77.51,97.828L77.51,97.828z M72.266,100.741c0,0-1.719,0.955-2.162,1.201l-0.001,0.001
			c-0.037,0.021-0.064,0.035-0.082,0.045v0.001c-0.008,0.004-0.014,0.007-0.017,0.009l0,0h-0.001l0,0C70.001,101.999,70,102,70,102
			l0,0l0,0v1.409h1v-0.82l1.751-0.974L72.266,100.741L72.266,100.741z M71,105.409h-1v4h1V105.409L71,105.409z M71,111.409h-1v4h1
			V111.409L71,111.409z M71,117.409h-1v4h1v-0.51l0.231,0.416l3.497-1.942l-0.486-0.874L71,120.301V117.409L71,117.409z
			 M79.487,115.585l-3.497,1.943l0.486,0.874l3.496-1.943L79.487,115.585L79.487,115.585z M84.732,112.672l-3.497,1.942l0.486,0.874
			l3.496-1.942L84.732,112.672L84.732,112.672z M88,109.183h-1v2.229l-0.52,0.289l0.485,0.874c0,0,0.928-0.515,1.025-0.569h0.001
			c0.001-0.001,0.002-0.002,0.003-0.002l0.002-0.001l0,0L88,112l0,0l0,0l0,0l0,0l0,0l0,0l0,0l0,0l0,0V109.183L88,109.183z
			 M88,103.183h-1v4h1V103.183L88,103.183z M88,97.183h-1v4h1V97.183L88,97.183z"/>
	</g>
	<g>
		<polygon fill="#FFFFFF" points="88,65 70,75 70,95 88,85 		"/>
		<path fill="#3E3C3C" d="M88,65l-1,0.556l0,0c-1.033,0.574-2.497,1.387-2.497,1.387l0.486,0.875L87,66.7v1.483h1V65L88,65z
			 M82.755,67.914l-3.496,1.942l0.485,0.874l3.496-1.942L82.755,67.914L82.755,67.914z M77.51,70.828l-3.496,1.943l0.485,0.874
			l3.497-1.942L77.51,70.828L77.51,70.828z M72.266,73.741c0,0-2.256,1.253-2.266,1.259l0,0l0,0l0,0l0,0v1.409h1v-0.82l1.751-0.974
			L72.266,73.741L72.266,73.741z M71,78.409h-1v4h1V78.409L71,78.409z M71,84.409h-1v4h1V84.409L71,84.409z M71,90.409h-1v4h1v-0.51
			l0.231,0.416l3.497-1.942l-0.486-0.874L71,93.301V90.409L71,90.409z M79.487,88.585l-3.496,1.942l0.485,0.875l3.496-1.943
			L79.487,88.585L79.487,88.585z M84.732,85.672l-3.497,1.942l0.486,0.874l3.496-1.942L84.732,85.672L84.732,85.672z M88,82.183h-1
			v2.229L86.48,84.7l0.486,0.874L88,85l0,0l0,0l0,0l0,0l0,0l0,0l0,0V82.183L88,82.183z M88,76.183h-1v4h1V76.183L88,76.183z
			 M88,70.183h-1v4h1V70.183L88,70.183z"/>
	</g>
	<g>
		<polygon fill="#FFFFFF" points="114,77.5 96,87.5 96,107.5 114,97.5 		"/>
		<path fill="#3E3C3C" d="M114,77.5l-1,0.556l0,0c-1.033,0.574-2.497,1.387-2.497,1.387l0.486,0.874L113,79.199v1.483h1V77.5
			L114,77.5z M108.755,80.414l-3.496,1.942l0.485,0.874l3.496-1.942L108.755,80.414L108.755,80.414z M103.51,83.328
			c0,0-0.544,0.302-1.203,0.668l0,0c-0.003,0.002-0.006,0.004-0.009,0.005l-2.284,1.27l0.485,0.874l3.497-1.942L103.51,83.328
			L103.51,83.328z M98.266,86.241L96,87.5l0,0l0,0v1.409h1v-0.82l1.751-0.973L98.266,86.241L98.266,86.241z M97,90.909h-1v4h1
			V90.909L97,90.909z M97,96.909h-1v4h1V96.909L97,96.909z M97,102.909h-1v4h1v-0.51l0.231,0.416c0,0,1.838-1.021,2.849-1.582
			l0.015-0.008c0,0,0-0.001,0.001-0.001l0.633-0.352l-0.486-0.874L97,105.801V102.909L97,102.909z M105.487,101.085l-3.496,1.942
			l0.485,0.875l2.153-1.196c0.001-0.001,0.002-0.002,0.003-0.002l0.007-0.004c0.001-0.001,0.002-0.001,0.003-0.002l0.008-0.004
			c0.001,0,0.002-0.001,0.003-0.002l0.004-0.002c0.708-0.394,1.315-0.731,1.315-0.731L105.487,101.085L105.487,101.085z
			 M110.732,98.172l-3.497,1.942l0.486,0.874l3.496-1.942L110.732,98.172L110.732,98.172z M114,94.683h-1v2.229l-0.52,0.289
			l0.486,0.874c0,0,0.873-0.485,1.014-0.563h0.001c0-0.001,0.001-0.001,0.001-0.001h0.001c0-0.001,0-0.001,0.001-0.001l0,0
			c0.001-0.001,0.001-0.001,0.002-0.001l0,0c0.001-0.001,0.002-0.001,0.003-0.002l0.001-0.001c0.001,0,0.001,0,0.002,0l0.007-0.005
			l0,0H114l0,0l0,0l0,0l0,0l0,0l0,0l0,0l0,0l0,0V94.683L114,94.683z M114,88.683h-1v4h1V88.683L114,88.683z M114,82.683h-1v4h1
			V82.683L114,82.683z"/>
	</g>
	<g>
		<polygon fill="#FFFFFF" points="114,50.5 96,60.5 96,80.5 114,70.5 		"/>
		<path fill="#3E3C3C" d="M114,50.5l-1,0.556l0,0c-1.033,0.574-2.497,1.387-2.497,1.387l0.486,0.875L113,52.2v1.483h1V50.5L114,50.5
			z M108.755,53.414l-3.496,1.942l0.485,0.874l3.496-1.942L108.755,53.414L108.755,53.414z M103.51,56.328
			c0,0-0.544,0.302-1.203,0.668v0c-0.003,0.001-0.006,0.003-0.009,0.005l-2.284,1.269l0.485,0.874l3.497-1.942L103.51,56.328
			L103.51,56.328z M98.266,59.242L96,60.5l0,0l0,0v1.409h1v-0.82l1.751-0.973L98.266,59.242L98.266,59.242z M97,63.909h-1v4h1
			V63.909L97,63.909z M97,69.909h-1v4h1V69.909L97,69.909z M97,75.909h-1v4h1v-0.51l0.231,0.416c0,0,1.064-0.591,2.019-1.121
			l1.479-0.821l-0.486-0.874L97,78.801V75.909L97,75.909z M105.487,74.085l-3.496,1.943l0.485,0.874c0,0,1.547-0.859,2.583-1.436
			l0.913-0.508L105.487,74.085L105.487,74.085z M110.732,71.172l-3.497,1.942l0.486,0.874l3.496-1.942L110.732,71.172
			L110.732,71.172z M114,67.683h-1v2.229l-0.52,0.289l0.486,0.874l1.032-0.574l0,0l0.001,0l0,0l0,0l0,0l0,0l0,0l0,0l0,0l0,0l0,0
			V67.683L114,67.683z M114,61.683h-1v4h1V61.683L114,61.683z M114,55.683h-1v4h1V55.683L114,55.683z"/>
	</g>
</g>
</svg>
