<?xml version="1.0" encoding="utf-8"?>
<!-- Generator: Adobe Illustrator 13.0.0, SVG Export Plug-In . SVG Version: 6.00 Build 14948)  -->
<!DOCTYPE svg PUBLIC "-//W3C//DTD SVG 1.1//EN" "http://www.w3.org/Graphics/SVG/1.1/DTD/svg11.dtd">
<svg version="1.1" id="Layer_1" xmlns="http://www.w3.org/2000/svg" xmlns:xlink="http://www.w3.org/1999/xlink" x="0px" y="0px"
	 width="119px" height="118px" viewBox="0 0 119 118" enable-background="new 0 0 119 118" xml:space="preserve">
<g>
	<g>
		<polygon fill="#EAEAEE" points="118.584,29.75 89.259,29.75 90.243,0.25 102.851,0.25 118.584,29.75 		"/>
		<path fill="#3E3C3C" d="M103,0l16,30H89l1-30H103 M102.7,0.5H90.483l-0.967,29h28.65L102.7,0.5L102.7,0.5z"/>
	</g>
	<g>
		<polygon fill="#EAEAEE" points="89.636,29.749 0.457,29.749 19.337,0.25 102.615,0.25 89.636,29.749 		"/>
		<g>
			<path fill="#3E3C3C" d="M103,0L89.8,30H0L19.2,0H103 M102.233,0.5h-82.76l-18.56,29h88.56L102.233,0.5L102.233,0.5z"/>
		</g>
	</g>
	<polygon fill="#3E3C3C" points="102.333,1 19,1 19,0 102.792,0 	"/>
	<g>
		<polygon fill="#EAEAEE" points="89.501,117.501 0.5,117.501 0.5,29.5 89.501,29.5 89.501,117.501 		"/>
		<path fill="#3E3C3C" d="M90,29v89H0V29H90 M89,30H1v87h88V30L89,30z"/>
	</g>
	<g>
		<polygon fill="#EAEAEE" points="118.5,117.501 89.499,117.501 89.499,29.5 117.79,29.5 118.5,30.21 118.5,117.501 		"/>
		<path fill="#3E3C3C" d="M118,29l1,1v88H89V29H118 M117.586,30H90v87h28V30.414L117.586,30L117.586,30z"/>
	</g>
	<rect x="13" y="44" fill="#FFFFFF" width="27" height="27"/>
	<rect x="17" y="44" fill="#3E3C3C" width="4" height="1"/>
	<rect x="22" y="44" fill="#3E3C3C" width="4" height="1"/>
	<rect x="27" y="44" fill="#3E3C3C" width="4" height="1"/>
	<rect x="32" y="44" fill="#3E3C3C" width="4" height="1"/>
	<polygon fill="#3E3C3C" points="37,44 37,45 39,45 39,47 40,47 40,44 	"/>
	<polygon fill="#3E3C3C" points="16,44 13,44 13,47 14,47 14,45 16,45 	"/>
	<rect x="17" y="70" fill="#3E3C3C" width="4" height="1"/>
	<rect x="22" y="70" fill="#3E3C3C" width="4" height="1"/>
	<rect x="27" y="70" fill="#3E3C3C" width="4" height="1"/>
	<rect x="32" y="70" fill="#3E3C3C" width="4" height="1"/>
	<polygon fill="#3E3C3C" points="37,71 37,70 39,70 39,68 40,68 40,71 	"/>
	<polygon fill="#3E3C3C" points="16,71 13,71 13,68 14,68 14,70 16,70 	"/>
	<rect x="39" y="48" fill="#3E3C3C" width="1" height="4"/>
	<rect x="39" y="53" fill="#3E3C3C" width="1" height="4"/>
	<rect x="39" y="58" fill="#3E3C3C" width="1" height="4"/>
	<rect x="39" y="63" fill="#3E3C3C" width="1" height="4"/>
	<rect x="13" y="48" fill="#3E3C3C" width="1" height="4"/>
	<rect x="13" y="53" fill="#3E3C3C" width="1" height="4"/>
	<rect x="13" y="58" fill="#3E3C3C" width="1" height="4"/>
	<rect x="13" y="63" fill="#3E3C3C" width="1" height="4"/>
	<rect x="50" y="44" fill="#FFFFFF" width="27" height="27"/>
	<rect x="54" y="44" fill="#3E3C3C" width="4" height="1"/>
	<rect x="59" y="44" fill="#3E3C3C" width="4" height="1"/>
	<rect x="64" y="44" fill="#3E3C3C" width="4" height="1"/>
	<rect x="69" y="44" fill="#3E3C3C" width="4" height="1"/>
	<polygon fill="#3E3C3C" points="74,44 74,45 76,45 76,47 77,47 77,44 	"/>
	<polygon fill="#3E3C3C" points="53,44 50,44 50,47 51,47 51,45 53,45 	"/>
	<rect x="54" y="70" fill="#3E3C3C" width="4" height="1"/>
	<rect x="59" y="70" fill="#3E3C3C" width="4" height="1"/>
	<rect x="64" y="70" fill="#3E3C3C" width="4" height="1"/>
	<rect x="69" y="70" fill="#3E3C3C" width="4" height="1"/>
	<polygon fill="#3E3C3C" points="74,71 74,70 76,70 76,68 77,68 77,71 	"/>
	<polygon fill="#3E3C3C" points="53,71 50,71 50,68 51,68 51,70 53,70 	"/>
	<rect x="76" y="48" fill="#3E3C3C" width="1" height="4"/>
	<rect x="76" y="53" fill="#3E3C3C" width="1" height="4"/>
	<rect x="76" y="58" fill="#3E3C3C" width="1" height="4"/>
	<rect x="76" y="63" fill="#3E3C3C" width="1" height="4"/>
	<rect x="50" y="48" fill="#3E3C3C" width="1" height="4"/>
	<rect x="50" y="53" fill="#3E3C3C" width="1" height="4"/>
	<rect x="50" y="58" fill="#3E3C3C" width="1" height="4"/>
	<rect x="50" y="63" fill="#3E3C3C" width="1" height="4"/>
	<rect x="13" y="76" fill="#FFFFFF" width="27" height="27"/>
	<rect x="17" y="76" fill="#3E3C3C" width="4" height="1"/>
	<rect x="22" y="76" fill="#3E3C3C" width="4" height="1"/>
	<rect x="27" y="76" fill="#3E3C3C" width="4" height="1"/>
	<rect x="32" y="76" fill="#3E3C3C" width="4" height="1"/>
	<polygon fill="#3E3C3C" points="37,76 37,77 39,77 39,79 40,79 40,76 	"/>
	<polygon fill="#3E3C3C" points="16,76 13,76 13,79 14,79 14,77 16,77 	"/>
	<rect x="17" y="102" fill="#3E3C3C" width="4" height="1"/>
	<rect x="22" y="102" fill="#3E3C3C" width="4" height="1"/>
	<rect x="27" y="102" fill="#3E3C3C" width="4" height="1"/>
	<rect x="32" y="102" fill="#3E3C3C" width="4" height="1"/>
	<polygon fill="#3E3C3C" points="37,103 37,102 39,102 39,100 40,100 40,103 	"/>
	<polygon fill="#3E3C3C" points="16,103 13,103 13,100 14,100 14,102 16,102 	"/>
	<rect x="39" y="80" fill="#3E3C3C" width="1" height="4"/>
	<rect x="39" y="85" fill="#3E3C3C" width="1" height="4"/>
	<rect x="39" y="90" fill="#3E3C3C" width="1" height="4"/>
	<rect x="39" y="95" fill="#3E3C3C" width="1" height="4"/>
	<rect x="13" y="80" fill="#3E3C3C" width="1" height="4"/>
	<rect x="13" y="85" fill="#3E3C3C" width="1" height="4"/>
	<rect x="13" y="90" fill="#3E3C3C" width="1" height="4"/>
	<rect x="13" y="95" fill="#3E3C3C" width="1" height="4"/>
	<rect x="50" y="76" fill="#FFFFFF" width="27" height="27"/>
	<rect x="54" y="76" fill="#3E3C3C" width="4" height="1"/>
	<rect x="59" y="76" fill="#3E3C3C" width="4" height="1"/>
	<rect x="64" y="76" fill="#3E3C3C" width="4" height="1"/>
	<rect x="69" y="76" fill="#3E3C3C" width="4" height="1"/>
	<polygon fill="#3E3C3C" points="74,76 74,77 76,77 76,79 77,79 77,76 	"/>
	<polygon fill="#3E3C3C" points="53,76 50,76 50,79 51,79 51,77 53,77 	"/>
	<rect x="54" y="102" fill="#3E3C3C" width="4" height="1"/>
	<rect x="59" y="102" fill="#3E3C3C" width="4" height="1"/>
	<rect x="64" y="102" fill="#3E3C3C" width="4" height="1"/>
	<rect x="69" y="102" fill="#3E3C3C" width="4" height="1"/>
	<polygon fill="#3E3C3C" points="74,103 74,102 76,102 76,100 77,100 77,103 	"/>
	<polygon fill="#3E3C3C" points="53,103 50,103 50,100 51,100 51,102 53,102 	"/>
	<rect x="76" y="80" fill="#3E3C3C" width="1" height="4"/>
	<rect x="76" y="85" fill="#3E3C3C" width="1" height="4"/>
	<rect x="76" y="90" fill="#3E3C3C" width="1" height="4"/>
	<rect x="76" y="95" fill="#3E3C3C" width="1" height="4"/>
	<rect x="50" y="80" fill="#3E3C3C" width="1" height="4"/>
	<rect x="50" y="85" fill="#3E3C3C" width="1" height="4"/>
	<rect x="50" y="90" fill="#3E3C3C" width="1" height="4"/>
	<rect x="50" y="95" fill="#3E3C3C" width="1" height="4"/>
</g>
</svg>
