<?xml version="1.0" encoding="utf-8"?>
<!-- Generator: Adobe Illustrator 13.0.0, SVG Export Plug-In . SVG Version: 6.00 Build 14948)  -->
<!DOCTYPE svg PUBLIC "-//W3C//DTD SVG 1.1//EN" "http://www.w3.org/Graphics/SVG/1.1/DTD/svg11.dtd">
<svg version="1.1" id="Layer_1" xmlns="http://www.w3.org/2000/svg" xmlns:xlink="http://www.w3.org/1999/xlink" x="0px" y="0px"
	 width="160px" height="110px" viewBox="0 0 160 110" enable-background="new 0 0 160 110" xml:space="preserve">
<g>
	<g>
		<polygon fill="#EAEAEE" points="159.499,109.5 0.5,109.5 0.5,0.5 159.499,0.5 159.499,109.5 		"/>
		<path fill="#3E3C3C" d="M160,0v110H0V0H160 M159,1H1v108h158V1L159,1z"/>
	</g>
	<rect x="11" y="9" fill="#FFFFFF" width="27" height="27"/>
	<rect x="15" y="9" fill="#3E3C3C" width="4" height="1"/>
	<rect x="20" y="9" fill="#3E3C3C" width="4" height="1"/>
	<rect x="25" y="9" fill="#3E3C3C" width="4" height="1"/>
	<rect x="30" y="9" fill="#3E3C3C" width="4" height="1"/>
	<polygon fill="#3E3C3C" points="35,9 35,10 37,10 37,12 38,12 38,9 	"/>
	<polygon fill="#3E3C3C" points="14,9 11,9 11,12 12,12 12,10 14,10 	"/>
	<rect x="15" y="35" fill="#3E3C3C" width="4" height="1"/>
	<rect x="20" y="35" fill="#3E3C3C" width="4" height="1"/>
	<rect x="25" y="35" fill="#3E3C3C" width="4" height="1"/>
	<rect x="30" y="35" fill="#3E3C3C" width="4" height="1"/>
	<polygon fill="#3E3C3C" points="35,36 35,35 37,35 37,33 38,33 38,36 	"/>
	<polygon fill="#3E3C3C" points="14,36 11,36 11,33 12,33 12,35 14,35 	"/>
	<rect x="37" y="13" fill="#3E3C3C" width="1" height="4"/>
	<rect x="37" y="18" fill="#3E3C3C" width="1" height="4"/>
	<rect x="37" y="23" fill="#3E3C3C" width="1" height="4"/>
	<rect x="37" y="28" fill="#3E3C3C" width="1" height="4"/>
	<rect x="11" y="13" fill="#3E3C3C" width="1" height="4"/>
	<rect x="11" y="18" fill="#3E3C3C" width="1" height="4"/>
	<rect x="11" y="23" fill="#3E3C3C" width="1" height="4"/>
	<rect x="11" y="28" fill="#3E3C3C" width="1" height="4"/>
	<rect x="48" y="9" fill="#FFFFFF" width="27" height="27"/>
	<rect x="52" y="9" fill="#3E3C3C" width="4" height="1"/>
	<rect x="57" y="9" fill="#3E3C3C" width="4" height="1"/>
	<rect x="62" y="9" fill="#3E3C3C" width="4" height="1"/>
	<rect x="67" y="9" fill="#3E3C3C" width="4" height="1"/>
	<polygon fill="#3E3C3C" points="72,9 72,10 74,10 74,12 75,12 75,9 	"/>
	<polygon fill="#3E3C3C" points="51,9 48,9 48,12 49,12 49,10 51,10 	"/>
	<rect x="52" y="35" fill="#3E3C3C" width="4" height="1"/>
	<rect x="57" y="35" fill="#3E3C3C" width="4" height="1"/>
	<rect x="62" y="35" fill="#3E3C3C" width="4" height="1"/>
	<rect x="67" y="35" fill="#3E3C3C" width="4" height="1"/>
	<polygon fill="#3E3C3C" points="72,36 72,35 74,35 74,33 75,33 75,36 	"/>
	<polygon fill="#3E3C3C" points="51,36 48,36 48,33 49,33 49,35 51,35 	"/>
	<rect x="74" y="13" fill="#3E3C3C" width="1" height="4"/>
	<rect x="74" y="18" fill="#3E3C3C" width="1" height="4"/>
	<rect x="74" y="23" fill="#3E3C3C" width="1" height="4"/>
	<rect x="74" y="28" fill="#3E3C3C" width="1" height="4"/>
	<rect x="48" y="13" fill="#3E3C3C" width="1" height="4"/>
	<rect x="48" y="18" fill="#3E3C3C" width="1" height="4"/>
	<rect x="48" y="23" fill="#3E3C3C" width="1" height="4"/>
	<rect x="48" y="28" fill="#3E3C3C" width="1" height="4"/>
	<rect x="85" y="9" fill="#FFFFFF" width="27" height="27"/>
	<rect x="89" y="9" fill="#3E3C3C" width="4" height="1"/>
	<rect x="94" y="9" fill="#3E3C3C" width="4" height="1"/>
	<rect x="99" y="9" fill="#3E3C3C" width="4" height="1"/>
	<rect x="104" y="9" fill="#3E3C3C" width="4" height="1"/>
	<polygon fill="#3E3C3C" points="109,9 109,10 111,10 111,12 112,12 112,9 	"/>
	<polygon fill="#3E3C3C" points="88,9 85,9 85,12 86,12 86,10 88,10 	"/>
	<rect x="89" y="35" fill="#3E3C3C" width="4" height="1"/>
	<rect x="94" y="35" fill="#3E3C3C" width="4" height="1"/>
	<rect x="99" y="35" fill="#3E3C3C" width="4" height="1"/>
	<rect x="104" y="35" fill="#3E3C3C" width="4" height="1"/>
	<polygon fill="#3E3C3C" points="109,36 109,35 111,35 111,33 112,33 112,36 	"/>
	<polygon fill="#3E3C3C" points="88,36 85,36 85,33 86,33 86,35 88,35 	"/>
	<rect x="111" y="13" fill="#3E3C3C" width="1" height="4"/>
	<rect x="111" y="18" fill="#3E3C3C" width="1" height="4"/>
	<rect x="111" y="23" fill="#3E3C3C" width="1" height="4"/>
	<rect x="111" y="28" fill="#3E3C3C" width="1" height="4"/>
	<rect x="85" y="13" fill="#3E3C3C" width="1" height="4"/>
	<rect x="85" y="18" fill="#3E3C3C" width="1" height="4"/>
	<rect x="85" y="23" fill="#3E3C3C" width="1" height="4"/>
	<rect x="85" y="28" fill="#3E3C3C" width="1" height="4"/>
	<rect x="122" y="9" fill="#FFFFFF" width="27" height="27"/>
	<rect x="126" y="9" fill="#3E3C3C" width="4" height="1"/>
	<rect x="131" y="9" fill="#3E3C3C" width="4" height="1"/>
	<rect x="136" y="9" fill="#3E3C3C" width="4" height="1"/>
	<rect x="141" y="9" fill="#3E3C3C" width="4" height="1"/>
	<polygon fill="#3E3C3C" points="146,9 146,10 148,10 148,12 149,12 149,9 	"/>
	<polygon fill="#3E3C3C" points="125,9 122,9 122,12 123,12 123,10 125,10 	"/>
	<rect x="126" y="35" fill="#3E3C3C" width="4" height="1"/>
	<rect x="131" y="35" fill="#3E3C3C" width="4" height="1"/>
	<rect x="136" y="35" fill="#3E3C3C" width="4" height="1"/>
	<rect x="141" y="35" fill="#3E3C3C" width="4" height="1"/>
	<polygon fill="#3E3C3C" points="146,36 146,35 148,35 148,33 149,33 149,36 	"/>
	<polygon fill="#3E3C3C" points="125,36 122,36 122,33 123,33 123,35 125,35 	"/>
	<rect x="148" y="13" fill="#3E3C3C" width="1" height="4"/>
	<rect x="148" y="18" fill="#3E3C3C" width="1" height="4"/>
	<rect x="148" y="23" fill="#3E3C3C" width="1" height="4"/>
	<rect x="148" y="28" fill="#3E3C3C" width="1" height="4"/>
	<rect x="122" y="13" fill="#3E3C3C" width="1" height="4"/>
	<rect x="122" y="18" fill="#3E3C3C" width="1" height="4"/>
	<rect x="122" y="23" fill="#3E3C3C" width="1" height="4"/>
	<rect x="122" y="28" fill="#3E3C3C" width="1" height="4"/>
	<rect x="11" y="41" fill="#FFFFFF" width="27" height="27"/>
	<rect x="15" y="41" fill="#3E3C3C" width="4" height="1"/>
	<rect x="20" y="41" fill="#3E3C3C" width="4" height="1"/>
	<rect x="25" y="41" fill="#3E3C3C" width="4" height="1"/>
	<rect x="30" y="41" fill="#3E3C3C" width="4" height="1"/>
	<polygon fill="#3E3C3C" points="35,41 35,42 37,42 37,44 38,44 38,41 	"/>
	<polygon fill="#3E3C3C" points="14,41 11,41 11,44 12,44 12,42 14,42 	"/>
	<rect x="15" y="67" fill="#3E3C3C" width="4" height="1"/>
	<rect x="20" y="67" fill="#3E3C3C" width="4" height="1"/>
	<rect x="25" y="67" fill="#3E3C3C" width="4" height="1"/>
	<rect x="30" y="67" fill="#3E3C3C" width="4" height="1"/>
	<polygon fill="#3E3C3C" points="35,68 35,67 37,67 37,65 38,65 38,68 	"/>
	<polygon fill="#3E3C3C" points="14,68 11,68 11,65 12,65 12,67 14,67 	"/>
	<rect x="37" y="45" fill="#3E3C3C" width="1" height="4"/>
	<rect x="37" y="50" fill="#3E3C3C" width="1" height="4"/>
	<rect x="37" y="55" fill="#3E3C3C" width="1" height="4"/>
	<rect x="37" y="60" fill="#3E3C3C" width="1" height="4"/>
	<rect x="11" y="45" fill="#3E3C3C" width="1" height="4"/>
	<rect x="11" y="50" fill="#3E3C3C" width="1" height="4"/>
	<rect x="11" y="55" fill="#3E3C3C" width="1" height="4"/>
	<rect x="11" y="60" fill="#3E3C3C" width="1" height="4"/>
	<rect x="48" y="41" fill="#FFFFFF" width="27" height="27"/>
	<rect x="52" y="41" fill="#3E3C3C" width="4" height="1"/>
	<rect x="57" y="41" fill="#3E3C3C" width="4" height="1"/>
	<rect x="62" y="41" fill="#3E3C3C" width="4" height="1"/>
	<rect x="67" y="41" fill="#3E3C3C" width="4" height="1"/>
	<polygon fill="#3E3C3C" points="72,41 72,42 74,42 74,44 75,44 75,41 	"/>
	<polygon fill="#3E3C3C" points="51,41 48,41 48,44 49,44 49,42 51,42 	"/>
	<rect x="52" y="67" fill="#3E3C3C" width="4" height="1"/>
	<rect x="57" y="67" fill="#3E3C3C" width="4" height="1"/>
	<rect x="62" y="67" fill="#3E3C3C" width="4" height="1"/>
	<rect x="67" y="67" fill="#3E3C3C" width="4" height="1"/>
	<polygon fill="#3E3C3C" points="72,68 72,67 74,67 74,65 75,65 75,68 	"/>
	<polygon fill="#3E3C3C" points="51,68 48,68 48,65 49,65 49,67 51,67 	"/>
	<rect x="74" y="45" fill="#3E3C3C" width="1" height="4"/>
	<rect x="74" y="50" fill="#3E3C3C" width="1" height="4"/>
	<rect x="74" y="55" fill="#3E3C3C" width="1" height="4"/>
	<rect x="74" y="60" fill="#3E3C3C" width="1" height="4"/>
	<rect x="48" y="45" fill="#3E3C3C" width="1" height="4"/>
	<rect x="48" y="50" fill="#3E3C3C" width="1" height="4"/>
	<rect x="48" y="55" fill="#3E3C3C" width="1" height="4"/>
	<rect x="48" y="60" fill="#3E3C3C" width="1" height="4"/>
	<rect x="85" y="41" fill="#FFFFFF" width="27" height="27"/>
	<rect x="89" y="41" fill="#3E3C3C" width="4" height="1"/>
	<rect x="94" y="41" fill="#3E3C3C" width="4" height="1"/>
	<rect x="99" y="41" fill="#3E3C3C" width="4" height="1"/>
	<rect x="104" y="41" fill="#3E3C3C" width="4" height="1"/>
	<polygon fill="#3E3C3C" points="109,41 109,42 111,42 111,44 112,44 112,41 	"/>
	<polygon fill="#3E3C3C" points="88,41 85,41 85,44 86,44 86,42 88,42 	"/>
	<rect x="89" y="67" fill="#3E3C3C" width="4" height="1"/>
	<rect x="94" y="67" fill="#3E3C3C" width="4" height="1"/>
	<rect x="99" y="67" fill="#3E3C3C" width="4" height="1"/>
	<rect x="104" y="67" fill="#3E3C3C" width="4" height="1"/>
	<polygon fill="#3E3C3C" points="109,68 109,67 111,67 111,65 112,65 112,68 	"/>
	<polygon fill="#3E3C3C" points="88,68 85,68 85,65 86,65 86,67 88,67 	"/>
	<rect x="111" y="45" fill="#3E3C3C" width="1" height="4"/>
	<rect x="111" y="50" fill="#3E3C3C" width="1" height="4"/>
	<rect x="111" y="55" fill="#3E3C3C" width="1" height="4"/>
	<rect x="111" y="60" fill="#3E3C3C" width="1" height="4"/>
	<rect x="85" y="45" fill="#3E3C3C" width="1" height="4"/>
	<rect x="85" y="50" fill="#3E3C3C" width="1" height="4"/>
	<rect x="85" y="55" fill="#3E3C3C" width="1" height="4"/>
	<rect x="85" y="60" fill="#3E3C3C" width="1" height="4"/>
	<rect x="122" y="41" fill="#FFFFFF" width="27" height="27"/>
	<rect x="126" y="41" fill="#3E3C3C" width="4" height="1"/>
	<rect x="131" y="41" fill="#3E3C3C" width="4" height="1"/>
	<rect x="136" y="41" fill="#3E3C3C" width="4" height="1"/>
	<rect x="141" y="41" fill="#3E3C3C" width="4" height="1"/>
	<polygon fill="#3E3C3C" points="146,41 146,42 148,42 148,44 149,44 149,41 	"/>
	<polygon fill="#3E3C3C" points="125,41 122,41 122,44 123,44 123,42 125,42 	"/>
	<rect x="126" y="67" fill="#3E3C3C" width="4" height="1"/>
	<rect x="131" y="67" fill="#3E3C3C" width="4" height="1"/>
	<rect x="136" y="67" fill="#3E3C3C" width="4" height="1"/>
	<rect x="141" y="67" fill="#3E3C3C" width="4" height="1"/>
	<polygon fill="#3E3C3C" points="146,68 146,67 148,67 148,65 149,65 149,68 	"/>
	<polygon fill="#3E3C3C" points="125,68 122,68 122,65 123,65 123,67 125,67 	"/>
	<rect x="148" y="45" fill="#3E3C3C" width="1" height="4"/>
	<rect x="148" y="50" fill="#3E3C3C" width="1" height="4"/>
	<rect x="148" y="55" fill="#3E3C3C" width="1" height="4"/>
	<rect x="148" y="60" fill="#3E3C3C" width="1" height="4"/>
	<rect x="122" y="45" fill="#3E3C3C" width="1" height="4"/>
	<rect x="122" y="50" fill="#3E3C3C" width="1" height="4"/>
	<rect x="122" y="55" fill="#3E3C3C" width="1" height="4"/>
	<rect x="122" y="60" fill="#3E3C3C" width="1" height="4"/>
	<rect x="11" y="73" fill="#FFFFFF" width="27" height="27"/>
	<rect x="15" y="73" fill="#3E3C3C" width="4" height="1"/>
	<rect x="20" y="73" fill="#3E3C3C" width="4" height="1"/>
	<rect x="25" y="73" fill="#3E3C3C" width="4" height="1"/>
	<rect x="30" y="73" fill="#3E3C3C" width="4" height="1"/>
	<polygon fill="#3E3C3C" points="35,73 35,74 37,74 37,76 38,76 38,73 	"/>
	<polygon fill="#3E3C3C" points="14,73 11,73 11,76 12,76 12,74 14,74 	"/>
	<rect x="15" y="99" fill="#3E3C3C" width="4" height="1"/>
	<rect x="20" y="99" fill="#3E3C3C" width="4" height="1"/>
	<rect x="25" y="99" fill="#3E3C3C" width="4" height="1"/>
	<rect x="30" y="99" fill="#3E3C3C" width="4" height="1"/>
	<polygon fill="#3E3C3C" points="35,100 35,99 37,99 37,97 38,97 38,100 	"/>
	<polygon fill="#3E3C3C" points="14,100 11,100 11,97 12,97 12,99 14,99 	"/>
	<rect x="37" y="77" fill="#3E3C3C" width="1" height="4"/>
	<rect x="37" y="82" fill="#3E3C3C" width="1" height="4"/>
	<rect x="37" y="87" fill="#3E3C3C" width="1" height="4"/>
	<rect x="37" y="92" fill="#3E3C3C" width="1" height="4"/>
	<rect x="11" y="77" fill="#3E3C3C" width="1" height="4"/>
	<rect x="11" y="82" fill="#3E3C3C" width="1" height="4"/>
	<rect x="11" y="87" fill="#3E3C3C" width="1" height="4"/>
	<rect x="11" y="92" fill="#3E3C3C" width="1" height="4"/>
	<rect x="48" y="73" fill="#FFFFFF" width="27" height="27"/>
	<rect x="52" y="73" fill="#3E3C3C" width="4" height="1"/>
	<rect x="57" y="73" fill="#3E3C3C" width="4" height="1"/>
	<rect x="62" y="73" fill="#3E3C3C" width="4" height="1"/>
	<rect x="67" y="73" fill="#3E3C3C" width="4" height="1"/>
	<polygon fill="#3E3C3C" points="72,73 72,74 74,74 74,76 75,76 75,73 	"/>
	<polygon fill="#3E3C3C" points="51,73 48,73 48,76 49,76 49,74 51,74 	"/>
	<rect x="52" y="99" fill="#3E3C3C" width="4" height="1"/>
	<rect x="57" y="99" fill="#3E3C3C" width="4" height="1"/>
	<rect x="62" y="99" fill="#3E3C3C" width="4" height="1"/>
	<rect x="67" y="99" fill="#3E3C3C" width="4" height="1"/>
	<polygon fill="#3E3C3C" points="72,100 72,99 74,99 74,97 75,97 75,100 	"/>
	<polygon fill="#3E3C3C" points="51,100 48,100 48,97 49,97 49,99 51,99 	"/>
	<rect x="74" y="77" fill="#3E3C3C" width="1" height="4"/>
	<rect x="74" y="82" fill="#3E3C3C" width="1" height="4"/>
	<rect x="74" y="87" fill="#3E3C3C" width="1" height="4"/>
	<rect x="74" y="92" fill="#3E3C3C" width="1" height="4"/>
	<rect x="48" y="77" fill="#3E3C3C" width="1" height="4"/>
	<rect x="48" y="82" fill="#3E3C3C" width="1" height="4"/>
	<rect x="48" y="87" fill="#3E3C3C" width="1" height="4"/>
	<rect x="48" y="92" fill="#3E3C3C" width="1" height="4"/>
	<rect x="85" y="73" fill="#FFFFFF" width="27" height="27"/>
	<rect x="89" y="73" fill="#3E3C3C" width="4" height="1"/>
	<rect x="94" y="73" fill="#3E3C3C" width="4" height="1"/>
	<rect x="99" y="73" fill="#3E3C3C" width="4" height="1"/>
	<rect x="104" y="73" fill="#3E3C3C" width="4" height="1"/>
	<polygon fill="#3E3C3C" points="109,73 109,74 111,74 111,76 112,76 112,73 	"/>
	<polygon fill="#3E3C3C" points="88,73 85,73 85,76 86,76 86,74 88,74 	"/>
	<rect x="89" y="99" fill="#3E3C3C" width="4" height="1"/>
	<rect x="94" y="99" fill="#3E3C3C" width="4" height="1"/>
	<rect x="99" y="99" fill="#3E3C3C" width="4" height="1"/>
	<rect x="104" y="99" fill="#3E3C3C" width="4" height="1"/>
	<polygon fill="#3E3C3C" points="109,100 109,99 111,99 111,97 112,97 112,100 	"/>
	<polygon fill="#3E3C3C" points="88,100 85,100 85,97 86,97 86,99 88,99 	"/>
	<rect x="111" y="77" fill="#3E3C3C" width="1" height="4"/>
	<rect x="111" y="82" fill="#3E3C3C" width="1" height="4"/>
	<rect x="111" y="87" fill="#3E3C3C" width="1" height="4"/>
	<rect x="111" y="92" fill="#3E3C3C" width="1" height="4"/>
	<rect x="85" y="77" fill="#3E3C3C" width="1" height="4"/>
	<rect x="85" y="82" fill="#3E3C3C" width="1" height="4"/>
	<rect x="85" y="87" fill="#3E3C3C" width="1" height="4"/>
	<rect x="85" y="92" fill="#3E3C3C" width="1" height="4"/>
	<rect x="122" y="73" fill="#FFFFFF" width="27" height="27"/>
	<rect x="126" y="73" fill="#3E3C3C" width="4" height="1"/>
	<rect x="131" y="73" fill="#3E3C3C" width="4" height="1"/>
	<rect x="136" y="73" fill="#3E3C3C" width="4" height="1"/>
	<rect x="141" y="73" fill="#3E3C3C" width="4" height="1"/>
	<polygon fill="#3E3C3C" points="146,73 146,74 148,74 148,76 149,76 149,73 	"/>
	<polygon fill="#3E3C3C" points="125,73 122,73 122,76 123,76 123,74 125,74 	"/>
	<rect x="126" y="99" fill="#3E3C3C" width="4" height="1"/>
	<rect x="131" y="99" fill="#3E3C3C" width="4" height="1"/>
	<rect x="136" y="99" fill="#3E3C3C" width="4" height="1"/>
	<rect x="141" y="99" fill="#3E3C3C" width="4" height="1"/>
	<polygon fill="#3E3C3C" points="146,100 146,99 148,99 148,97 149,97 149,100 	"/>
	<polygon fill="#3E3C3C" points="125,100 122,100 122,97 123,97 123,99 125,99 	"/>
	<rect x="148" y="77" fill="#3E3C3C" width="1" height="4"/>
	<rect x="148" y="82" fill="#3E3C3C" width="1" height="4"/>
	<rect x="148" y="87" fill="#3E3C3C" width="1" height="4"/>
	<rect x="148" y="92" fill="#3E3C3C" width="1" height="4"/>
	<rect x="122" y="77" fill="#3E3C3C" width="1" height="4"/>
	<rect x="122" y="82" fill="#3E3C3C" width="1" height="4"/>
	<rect x="122" y="87" fill="#3E3C3C" width="1" height="4"/>
	<rect x="122" y="92" fill="#3E3C3C" width="1" height="4"/>
</g>
</svg>
