<?xml version="1.0" encoding="utf-8"?>
<!-- Generator: Adobe Illustrator 13.0.0, SVG Export Plug-In . SVG Version: 6.00 Build 14948)  -->
<!DOCTYPE svg PUBLIC "-//W3C//DTD SVG 1.1//EN" "http://www.w3.org/Graphics/SVG/1.1/DTD/svg11.dtd">
<svg version="1.1" id="Layer_1" xmlns="http://www.w3.org/2000/svg" xmlns:xlink="http://www.w3.org/1999/xlink" x="0px" y="0px"
	 width="160.75px" height="152.75px" viewBox="0 0 160.75 152.75" enable-background="new 0 0 160.75 152.75" xml:space="preserve">
<g>
	<path fill="#EAEAEE" stroke="#3E3C3C" stroke-width="0.75" d="M119.149,96.135l12.801,50.814c0.957,3.802-3.212,6.83-6.539,4.745
		l-44.496-27.983l-44.491,27.734c-3.328,2.085-7.496-0.943-6.539-4.744l12.8-50.816L1.943,62.138
		c-3.011-2.514-1.418-7.413,2.496-7.679l52.344-2.732l19.55-48.624c1.467-3.638,6.617-3.638,8.084,0l19.55,48.624l52.344,2.732
		c3.914,0.266,5.507,5.165,2.496,7.679L119.149,96.135z"/>
	<rect x="50.375" y="89.375" fill="#FFFFFF" width="27" height="27"/>
	<rect x="54.375" y="89.375" fill="#3E3C3C" width="4" height="1"/>
	<rect x="59.375" y="89.375" fill="#3E3C3C" width="4" height="1"/>
	<rect x="64.375" y="89.375" fill="#3E3C3C" width="4" height="1"/>
	<rect x="69.375" y="89.375" fill="#3E3C3C" width="4" height="1"/>
	<polygon fill="#3E3C3C" points="74.375,89.375 74.375,90.375 76.375,90.375 76.375,92.375 77.375,92.375 77.375,89.375 	"/>
	<polygon fill="#3E3C3C" points="53.375,89.375 50.375,89.375 50.375,92.375 51.375,92.375 51.375,90.375 53.375,90.375 	"/>
	<rect x="54.375" y="115.375" fill="#3E3C3C" width="4" height="1"/>
	<rect x="59.375" y="115.375" fill="#3E3C3C" width="4" height="1"/>
	<rect x="64.375" y="115.375" fill="#3E3C3C" width="4" height="1"/>
	<rect x="69.375" y="115.375" fill="#3E3C3C" width="4" height="1"/>
	<polygon fill="#3E3C3C" points="74.375,116.375 74.375,115.375 76.375,115.375 76.375,113.375 77.375,113.375 77.375,116.375 	"/>
	<polygon fill="#3E3C3C" points="53.375,116.375 50.375,116.375 50.375,113.375 51.375,113.375 51.375,115.375 53.375,115.375 	"/>
	<rect x="76.375" y="93.375" fill="#3E3C3C" width="1" height="4"/>
	<rect x="76.375" y="98.375" fill="#3E3C3C" width="1" height="4"/>
	<rect x="76.375" y="103.375" fill="#3E3C3C" width="1" height="4"/>
	<rect x="76.375" y="108.375" fill="#3E3C3C" width="1" height="4"/>
	<rect x="50.375" y="93.375" fill="#3E3C3C" width="1" height="4"/>
	<rect x="50.375" y="98.375" fill="#3E3C3C" width="1" height="4"/>
	<rect x="50.375" y="103.375" fill="#3E3C3C" width="1" height="4"/>
	<rect x="50.375" y="108.375" fill="#3E3C3C" width="1" height="4"/>
	<rect x="84.375" y="89.375" fill="#FFFFFF" width="27" height="27"/>
	<rect x="88.375" y="89.375" fill="#3E3C3C" width="4" height="1"/>
	<rect x="93.375" y="89.375" fill="#3E3C3C" width="4" height="1"/>
	<rect x="98.375" y="89.375" fill="#3E3C3C" width="4" height="1"/>
	<rect x="103.375" y="89.375" fill="#3E3C3C" width="4" height="1"/>
	<polygon fill="#3E3C3C" points="108.375,89.375 108.375,90.375 110.375,90.375 110.375,92.375 111.375,92.375 111.375,89.375 	"/>
	<polygon fill="#3E3C3C" points="87.375,89.375 84.375,89.375 84.375,92.375 85.375,92.375 85.375,90.375 87.375,90.375 	"/>
	<rect x="88.375" y="115.375" fill="#3E3C3C" width="4" height="1"/>
	<rect x="93.375" y="115.375" fill="#3E3C3C" width="4" height="1"/>
	<rect x="98.375" y="115.375" fill="#3E3C3C" width="4" height="1"/>
	<rect x="103.375" y="115.375" fill="#3E3C3C" width="4" height="1"/>
	<polygon fill="#3E3C3C" points="108.375,116.375 108.375,115.375 110.375,115.375 110.375,113.375 111.375,113.375 
		111.375,116.375 	"/>
	<polygon fill="#3E3C3C" points="87.375,116.375 84.375,116.375 84.375,113.375 85.375,113.375 85.375,115.375 87.375,115.375 	"/>
	<rect x="110.375" y="93.375" fill="#3E3C3C" width="1" height="4"/>
	<rect x="110.375" y="98.375" fill="#3E3C3C" width="1" height="4"/>
	<rect x="110.375" y="103.375" fill="#3E3C3C" width="1" height="4"/>
	<rect x="110.375" y="108.375" fill="#3E3C3C" width="1" height="4"/>
	<rect x="84.375" y="93.375" fill="#3E3C3C" width="1" height="4"/>
	<rect x="84.375" y="98.375" fill="#3E3C3C" width="1" height="4"/>
	<rect x="84.375" y="103.375" fill="#3E3C3C" width="1" height="4"/>
	<rect x="84.375" y="108.375" fill="#3E3C3C" width="1" height="4"/>
	<rect x="67.375" y="56.375" fill="#FFFFFF" width="27" height="27"/>
	<rect x="71.375" y="56.375" fill="#3E3C3C" width="4" height="1"/>
	<rect x="76.375" y="56.375" fill="#3E3C3C" width="4" height="1"/>
	<rect x="81.375" y="56.375" fill="#3E3C3C" width="4" height="1"/>
	<rect x="86.375" y="56.375" fill="#3E3C3C" width="4" height="1"/>
	<polygon fill="#3E3C3C" points="91.375,56.375 91.375,57.375 93.375,57.375 93.375,59.375 94.375,59.375 94.375,56.375 	"/>
	<polygon fill="#3E3C3C" points="70.375,56.375 67.375,56.375 67.375,59.375 68.375,59.375 68.375,57.375 70.375,57.375 	"/>
	<rect x="71.375" y="82.375" fill="#3E3C3C" width="4" height="1"/>
	<rect x="76.375" y="82.375" fill="#3E3C3C" width="4" height="1"/>
	<rect x="81.375" y="82.375" fill="#3E3C3C" width="4" height="1"/>
	<rect x="86.375" y="82.375" fill="#3E3C3C" width="4" height="1"/>
	<polygon fill="#3E3C3C" points="91.375,83.375 91.375,82.375 93.375,82.375 93.375,80.375 94.375,80.375 94.375,83.375 	"/>
	<polygon fill="#3E3C3C" points="70.375,83.375 67.375,83.375 67.375,80.375 68.375,80.375 68.375,82.375 70.375,82.375 	"/>
	<rect x="93.375" y="60.375" fill="#3E3C3C" width="1" height="4"/>
	<rect x="93.375" y="65.375" fill="#3E3C3C" width="1" height="4"/>
	<rect x="93.375" y="70.375" fill="#3E3C3C" width="1" height="4"/>
	<rect x="93.375" y="75.375" fill="#3E3C3C" width="1" height="4"/>
	<rect x="67.375" y="60.375" fill="#3E3C3C" width="1" height="4"/>
	<rect x="67.375" y="65.375" fill="#3E3C3C" width="1" height="4"/>
	<rect x="67.375" y="70.375" fill="#3E3C3C" width="1" height="4"/>
	<rect x="67.375" y="75.375" fill="#3E3C3C" width="1" height="4"/>
	<rect x="34.375" y="56.375" fill="#FFFFFF" width="27" height="27"/>
	<rect x="38.375" y="56.375" fill="#3E3C3C" width="4" height="1"/>
	<rect x="43.375" y="56.375" fill="#3E3C3C" width="4" height="1"/>
	<rect x="48.375" y="56.375" fill="#3E3C3C" width="4" height="1"/>
	<rect x="53.375" y="56.375" fill="#3E3C3C" width="4" height="1"/>
	<polygon fill="#3E3C3C" points="58.375,56.375 58.375,57.375 60.375,57.375 60.375,59.375 61.375,59.375 61.375,56.375 	"/>
	<polygon fill="#3E3C3C" points="37.375,56.375 34.375,56.375 34.375,59.375 35.375,59.375 35.375,57.375 37.375,57.375 	"/>
	<rect x="38.375" y="82.375" fill="#3E3C3C" width="4" height="1"/>
	<rect x="43.375" y="82.375" fill="#3E3C3C" width="4" height="1"/>
	<rect x="48.375" y="82.375" fill="#3E3C3C" width="4" height="1"/>
	<rect x="53.375" y="82.375" fill="#3E3C3C" width="4" height="1"/>
	<polygon fill="#3E3C3C" points="58.375,83.375 58.375,82.375 60.375,82.375 60.375,80.375 61.375,80.375 61.375,83.375 	"/>
	<polygon fill="#3E3C3C" points="37.375,83.375 34.375,83.375 34.375,80.375 35.375,80.375 35.375,82.375 37.375,82.375 	"/>
	<rect x="60.375" y="60.375" fill="#3E3C3C" width="1" height="4"/>
	<rect x="60.375" y="65.375" fill="#3E3C3C" width="1" height="4"/>
	<rect x="60.375" y="70.375" fill="#3E3C3C" width="1" height="4"/>
	<rect x="60.375" y="75.375" fill="#3E3C3C" width="1" height="4"/>
	<rect x="34.375" y="60.375" fill="#3E3C3C" width="1" height="4"/>
	<rect x="34.375" y="65.375" fill="#3E3C3C" width="1" height="4"/>
	<rect x="34.375" y="70.375" fill="#3E3C3C" width="1" height="4"/>
	<rect x="34.375" y="75.375" fill="#3E3C3C" width="1" height="4"/>
	<rect x="100.375" y="56.375" fill="#FFFFFF" width="27" height="27"/>
	<rect x="104.375" y="56.375" fill="#3E3C3C" width="4" height="1"/>
	<rect x="109.375" y="56.375" fill="#3E3C3C" width="4" height="1"/>
	<rect x="114.375" y="56.375" fill="#3E3C3C" width="4" height="1"/>
	<rect x="119.375" y="56.375" fill="#3E3C3C" width="4" height="1"/>
	<polygon fill="#3E3C3C" points="124.375,56.375 124.375,57.375 126.375,57.375 126.375,59.375 127.375,59.375 127.375,56.375 	"/>
	<polygon fill="#3E3C3C" points="103.375,56.375 100.375,56.375 100.375,59.375 101.375,59.375 101.375,57.375 103.375,57.375 	"/>
	<rect x="104.375" y="82.375" fill="#3E3C3C" width="4" height="1"/>
	<rect x="109.375" y="82.375" fill="#3E3C3C" width="4" height="1"/>
	<rect x="114.375" y="82.375" fill="#3E3C3C" width="4" height="1"/>
	<rect x="119.375" y="82.375" fill="#3E3C3C" width="4" height="1"/>
	<polygon fill="#3E3C3C" points="124.375,83.375 124.375,82.375 126.375,82.375 126.375,80.375 127.375,80.375 127.375,83.375 	"/>
	<polygon fill="#3E3C3C" points="103.375,83.375 100.375,83.375 100.375,80.375 101.375,80.375 101.375,82.375 103.375,82.375 	"/>
	<rect x="126.375" y="60.375" fill="#3E3C3C" width="1" height="4"/>
	<rect x="126.375" y="65.375" fill="#3E3C3C" width="1" height="4"/>
	<rect x="126.375" y="70.375" fill="#3E3C3C" width="1" height="4"/>
	<rect x="126.375" y="75.375" fill="#3E3C3C" width="1" height="4"/>
	<rect x="100.375" y="60.375" fill="#3E3C3C" width="1" height="4"/>
	<rect x="100.375" y="65.375" fill="#3E3C3C" width="1" height="4"/>
	<rect x="100.375" y="70.375" fill="#3E3C3C" width="1" height="4"/>
	<rect x="100.375" y="75.375" fill="#3E3C3C" width="1" height="4"/>
</g>
</svg>
