<?xml version="1.0" standalone="no"?>
<!DOCTYPE svg PUBLIC "-//W3C//DTD SVG 20010904//EN"
 "http://www.w3.org/TR/2001/REC-SVG-20010904/DTD/svg10.dtd">
<svg version="1.0" xmlns="http://www.w3.org/2000/svg"
 width="256.000000pt" height="256.000000pt" viewBox="0 0 256.000000 256.000000"
 preserveAspectRatio="xMidYMid meet">
<metadata>
Created by potrace 1.11, written by Peter Selinger 2001-2013
</metadata>
<g transform="translate(0.000000,256.000000) scale(0.100000,-0.100000)"
fill="#000000" stroke="none">
<path d="M1240 2553 c-28 -11 -49 -35 -55 -62 l-6 -26 -242 0 c-133 1 -256 -3
-273 -7 -42 -11 -65 -39 -71 -86 -4 -33 -1 -44 25 -73 l30 -34 266 -3 266 -3
0 -94 0 -94 -365 -3 -365 -3 -25 -25 c-31 -31 -38 -78 -19 -115 29 -55 21 -54
412 -55 l363 0 -3 -97 -3 -98 -312 0 -312 -1 -25 -23 c-51 -48 -41 -131 19
-161 25 -12 83 -15 333 -15 l302 0 0 -381 c0 -209 -2 -383 -6 -386 -7 -7 -137
23 -244 56 -119 38 -189 26 -263 -43 -48 -44 -65 -82 -74 -168 -9 -88 37 -149
195 -254 42 -29 127 -91 187 -139 159 -124 214 -153 297 -157 57 -2 75 2 130
29 35 17 84 46 111 65 26 18 51 33 56 33 5 0 11 4 13 9 4 11 55 53 200 162 63
47 122 101 145 132 35 48 38 57 38 117 -1 96 -47 171 -131 214 -65 32 -105 31
-231 -8 -65 -19 -136 -38 -158 -42 -22 -3 -44 -7 -50 -7 -6 -1 -11 133 -13
383 l-2 385 302 0 c250 0 308 2 333 15 60 30 70 113 19 161 l-25 23 -315 1
-314 0 0 98 0 97 355 1 c195 1 358 2 363 4 44 12 75 63 66 111 -3 16 -16 40
-30 54 l-24 25 -365 3 -365 3 0 94 0 95 249 0 c148 0 260 4 278 11 18 6 38 24
49 44 23 44 11 99 -29 129 -26 19 -41 20 -280 21 -234 0 -284 5 -273 24 3 4
-5 20 -17 35 -22 28 -83 43 -117 29z m-282 -1943 c66 -40 90 -118 55 -179 -18
-30 -34 -39 -87 -48 -42 -7 -71 3 -111 38 -48 43 -60 91 -35 144 11 22 30 45
42 51 37 19 100 16 136 -6z m771 7 c51 -26 78 -89 58 -137 -42 -100 -165 -132
-229 -61 -87 97 53 259 171 198z"/>
<path d="M740 1267 c-57 -29 -65 -123 -14 -164 25 -20 39 -22 157 -22 101 0
135 4 154 16 25 17 51 59 47 81 -1 6 -2 19 -3 28 0 8 -14 29 -30 45 l-29 29
-129 0 c-82 0 -137 -5 -153 -13z"/>
<path d="M1510 1253 c-49 -45 -45 -114 8 -152 23 -16 47 -19 149 -20 77 -1
131 2 145 10 64 33 78 110 29 160 l-29 29 -136 0 c-134 0 -136 0 -166 -27z"/>
</g>
</svg>
