<svg xmlns="http://www.w3.org/2000/svg" xmlns:xlink="http://www.w3.org/1999/xlink" preserveAspectRatio="xMidYMid" width="29.968" height="19" viewBox="0 0 29.968 19">
  <defs>
    <style>
      .cls-1 {
        fill: #727272;
        fill-rule: evenodd;
      }
    </style>
  </defs>
  <path d="M29.359,16.201 L28.724,16.201 C28.427,16.201 28.165,15.987 28.127,15.692 C27.891,13.888 26.453,12.769 24.715,12.769 C22.975,12.769 21.538,13.888 21.303,15.692 C21.264,15.987 21.001,16.201 20.705,16.201 L20.069,16.201 C19.738,16.201 19.470,15.932 19.470,15.601 L19.470,3.901 C19.470,3.570 19.738,3.301 20.069,3.301 L24.470,3.301 C24.647,3.301 24.816,3.380 24.930,3.516 L29.819,9.366 C29.909,9.473 29.958,9.610 29.958,9.751 L29.958,15.601 C29.958,15.932 29.690,16.201 29.359,16.201 ZM26.865,7.717 L24.369,4.717 C24.255,4.580 24.086,4.501 23.908,4.501 L21.268,4.501 C20.936,4.501 20.668,4.769 20.668,5.101 L20.668,8.101 C20.668,8.432 20.936,8.701 21.268,8.701 L26.406,8.701 C26.913,8.701 27.191,8.108 26.865,7.717 ZM17.671,16.201 L10.144,16.201 C9.847,16.201 9.584,15.987 9.546,15.692 C9.311,13.888 7.873,12.769 6.134,12.769 C4.395,12.769 2.958,13.888 2.723,15.692 C2.684,15.987 2.421,16.201 2.124,16.201 L0.590,16.201 C0.259,16.201 -0.009,15.932 -0.009,15.601 L-0.009,0.601 C-0.009,0.270 0.259,0.001 0.590,0.001 L17.671,0.001 C18.003,0.001 18.271,0.270 18.271,0.601 L18.271,15.601 C18.271,15.932 18.003,16.201 17.671,16.201 ZM6.134,13.901 C7.539,13.901 8.681,15.045 8.681,16.451 C8.681,17.857 7.539,19.001 6.134,19.001 C4.729,19.001 3.586,17.857 3.586,16.451 C3.586,15.045 4.729,13.901 6.134,13.901 ZM6.134,17.200 C6.547,17.200 6.883,16.864 6.883,16.451 C6.883,16.037 6.547,15.700 6.134,15.700 C5.721,15.700 5.385,16.037 5.385,16.451 C5.385,16.864 5.721,17.200 6.134,17.200 ZM24.714,13.901 C26.118,13.901 27.262,15.045 27.262,16.451 C27.262,17.857 26.118,19.001 24.714,19.001 C23.309,19.001 22.167,17.857 22.167,16.451 C22.167,15.045 23.309,13.901 24.714,13.901 ZM24.714,17.200 C25.127,17.200 25.463,16.864 25.463,16.451 C25.463,16.037 25.127,15.700 24.714,15.700 C24.301,15.700 23.965,16.037 23.965,16.451 C23.965,16.864 24.301,17.200 24.714,17.200 Z" class="cls-1"/>
</svg>
