<?xml version="1.0" encoding="utf-8"?>
<!-- Generator: Adobe Illustrator 13.0.0, SVG Export Plug-In . SVG Version: 6.00 Build 14948)  -->
<!DOCTYPE svg PUBLIC "-//W3C//DTD SVG 1.1//EN" "http://www.w3.org/Graphics/SVG/1.1/DTD/svg11.dtd">
<svg version="1.1" id="Layer_1" xmlns="http://www.w3.org/2000/svg" xmlns:xlink="http://www.w3.org/1999/xlink" x="0px" y="0px"
	 width="87px" height="96px" viewBox="0 0 87 96" enable-background="new 0 0 87 96" xml:space="preserve">
<g>
	<g>
		<polygon fill="#EAEAEE" points="83,47 1.001,47 1.001,1 83,1 83,47 		"/>
		<path fill="#15242A" d="M84,0v48H0V0H84 M82,2H2v44h80V2L82,2z"/>
	</g>
	<g>
		<polygon fill="#EAEAEE" points="84,0 84,48 0,48 0,49 87,49 87,0 		"/>
	</g>
	<g>
		<polygon fill="#EAEAEE" points="84,50 84,95 0,95 0,96 87,96 87,50 		"/>
	</g>
	<g>
		<polygon fill="#EAEAEE" points="83.002,94.001 0.998,94.001 0.998,50.999 83.002,50.999 83.002,94.001 		"/>
		<path fill="#15242A" d="M84,50v45H0V50H84 M82,52H2v41h80V52L82,52z"/>
	</g>
	<g>
		<polygon fill="#FFFFFF" points="82.5,82.499 1.5,82.499 1.5,51.5 82.5,51.5 82.5,82.499 		"/>
		<path fill="#15242A" d="M83,51v32H1V51H83 M82,52H2v30h80V52L82,52z"/>
	</g>
	<rect x="16" y="45" fill="#15242A" width="2" height="8"/>
	<rect x="16" y="42" fill="#15242A" width="2" height="2"/>
	<rect x="16" y="54" fill="#15242A" width="2" height="2"/>
	<rect x="6" y="45" fill="#15242A" width="2" height="8"/>
	<rect x="6" y="42" fill="#15242A" width="2" height="2"/>
	<rect x="6" y="54" fill="#15242A" width="2" height="2"/>
	<rect x="26" y="45" fill="#15242A" width="2" height="8"/>
	<rect x="26" y="42" fill="#15242A" width="2" height="2"/>
	<rect x="26" y="54" fill="#15242A" width="2" height="2"/>
	<rect x="36" y="45" fill="#15242A" width="2" height="8"/>
	<rect x="36" y="42" fill="#15242A" width="2" height="2"/>
	<rect x="36" y="54" fill="#15242A" width="2" height="2"/>
	<rect x="46" y="45" fill="#15242A" width="2" height="8"/>
	<rect x="46" y="42" fill="#15242A" width="2" height="2"/>
	<rect x="46" y="54" fill="#15242A" width="2" height="2"/>
	<rect x="56" y="45" fill="#15242A" width="2" height="8"/>
	<rect x="56" y="42" fill="#15242A" width="2" height="2"/>
	<rect x="56" y="54" fill="#15242A" width="2" height="2"/>
	<rect x="66" y="45" fill="#15242A" width="2" height="8"/>
	<rect x="66" y="42" fill="#15242A" width="2" height="2"/>
	<rect x="66" y="54" fill="#15242A" width="2" height="2"/>
	<rect x="76" y="45" fill="#15242A" width="2" height="8"/>
	<rect x="76" y="42" fill="#15242A" width="2" height="2"/>
	<rect x="76" y="54" fill="#15242A" width="2" height="2"/>
	<rect x="40" y="4" fill="#15242A" width="4" height="2"/>
	<path fill="#15242A" d="M16,67h22v-1H16V67z M16,61v1h22v-1H16z M16,72h22v-1H16V72z M16,77h22v-1H16V77z"/>
	<path fill="#15242A" d="M56,62h10v-1H56V62z M68,61v1h10v-1H68z M68,77h10v-1H68V77z M56,77h10v-1H56V77z M56,72h10v-1H56V72z
		 M68,67h10v-1H68V67z M56,67h10v-1H56V67z M68,72h10v-1H68V72z"/>
	<rect x="6.5" y="61.5" fill="none" stroke="#15242A" width="5" height="5"/>
	<rect x="6.5" y="71.5" fill="none" stroke="#15242A" width="5" height="5"/>
</g>
</svg>
