<?xml version="1.0" encoding="utf-8"?>
<!-- Generator: Adobe Illustrator 13.0.0, SVG Export Plug-In . SVG Version: 6.00 Build 14948)  -->
<!DOCTYPE svg PUBLIC "-//W3C//DTD SVG 1.1//EN" "http://www.w3.org/Graphics/SVG/1.1/DTD/svg11.dtd">
<svg version="1.1" id="Layer_1" xmlns="http://www.w3.org/2000/svg" xmlns:xlink="http://www.w3.org/1999/xlink" x="0px" y="0px"
	 width="140px" height="174px" viewBox="0 0 140 174" enable-background="new 0 0 140 174" xml:space="preserve">
<g>
	<g>
		<polygon fill="#EAEAEE" points="139.5,85.5 0.499,85.5 0.499,0.5 139.5,0.5 139.5,85.5 		"/>
		<path fill="#3E3C3C" d="M140,0v86H0V0H140 M139,1H1v84h138V1L139,1z"/>
	</g>
	<g>
		<polygon fill="#EAEAEE" points="139.5,173.5 0.5,173.5 0.5,88.5 139.5,88.5 139.5,173.5 		"/>
		<path fill="#3E3C3C" d="M140,88v86H0V88H140 M139,89H1v84h138V89L139,89z"/>
	</g>
	<g>
		<path fill="#3E3C3C" d="M72,6v4h-4V6H72 M71,7h-2v2h2V7L71,7z"/>
	</g>
	<g>
		<polygon fill="#FFFFFF" points="130.5,155.5 9.5,155.5 9.5,88.5 130.5,88.5 130.5,155.5 		"/>
		<path fill="#3E3C3C" d="M131,88v68H9V88H131 M130,89H10v66h120V89L130,89z"/>
	</g>
	<rect x="4" y="84" fill="#3E3C3C" width="1" height="6"/>
	<rect x="14" y="84" fill="#3E3C3C" width="1" height="6"/>
	<rect x="24" y="84" fill="#3E3C3C" width="1" height="6"/>
	<rect x="34" y="84" fill="#3E3C3C" width="1" height="6"/>
	<rect x="44" y="84" fill="#3E3C3C" width="1" height="6"/>
	<rect x="54" y="84" fill="#3E3C3C" width="1" height="6"/>
	<rect x="64" y="84" fill="#3E3C3C" width="1" height="6"/>
	<rect x="74" y="84" fill="#3E3C3C" width="1" height="6"/>
	<rect x="84" y="84" fill="#3E3C3C" width="1" height="6"/>
	<rect x="94" y="84" fill="#3E3C3C" width="1" height="6"/>
	<rect x="104" y="84" fill="#3E3C3C" width="1" height="6"/>
	<rect x="114" y="84" fill="#3E3C3C" width="1" height="6"/>
	<rect x="124" y="84" fill="#3E3C3C" width="1" height="6"/>
	<rect x="134" y="84" fill="#3E3C3C" width="1" height="6"/>
</g>
</svg>
