<?xml version="1.0" encoding="utf-8"?>
<!-- Generator: Adobe Illustrator 13.0.0, SVG Export Plug-In . SVG Version: 6.00 Build 14948)  -->
<!DOCTYPE svg PUBLIC "-//W3C//DTD SVG 1.1//EN" "http://www.w3.org/Graphics/SVG/1.1/DTD/svg11.dtd">
<svg version="1.1" id="Layer_1" xmlns="http://www.w3.org/2000/svg" xmlns:xlink="http://www.w3.org/1999/xlink" x="0px" y="0px"
	 width="52px" height="72px" viewBox="0 0 52 72" enable-background="new 0 0 52 72" xml:space="preserve">
<g>
	<g>
		<polygon fill="#EAEAEE" points="46,0 46,53 5,53 5,55 50,55 50,0 		"/>
	</g>
	<g>
		<path fill="#EAEAEE" d="M46,52c0,0.553-0.447,1-1,1H7c-0.553,0-1-0.447-1-1V2c0-0.552,0.447-1,1-1h38c0.553,0,1,0.448,1,1V52z"/>
		<path fill="none" stroke="#15242A" stroke-width="2" d="M46,52c0,0.553-0.447,1-1,1H7c-0.553,0-1-0.447-1-1V2c0-0.552,0.447-1,1-1
			h38c0.553,0,1,0.448,1,1V52z"/>
	</g>
	<path fill="#15242A" d="M21,32h9v-1h-9V32z M32,31v1h8v-1H32z M32,47h8v-1h-8V47z M21,47h9v-1h-9V47z M21,42h9v-1h-9V42z M32,37h8
		v-1h-8V37z M21,37h9v-1h-9V37z M11,32h8v-1h-8V32z M11,47h8v-1h-8V47z M11,42h8v-1h-8V42z M11,37h8v-1h-8V37z M32,42h8v-1h-8V42z"
		/>
	<g>
		<polygon fill="#FFFFFF" points="45.499,11.498 6.5,11.498 6.5,6.502 45.499,6.502 45.499,11.498 		"/>
		<path fill="#15242A" d="M46,6v6H6V6H46 M45,7H7v4h38V7L45,7z"/>
	</g>
	<rect y="57" fill="#15242A" width="2" height="7"/>
	<rect y="48" fill="#15242A" width="2" height="7"/>
	<rect y="39" fill="#15242A" width="2" height="7"/>
	<rect y="30" fill="#15242A" width="2" height="7"/>
	<rect y="21" fill="#15242A" width="2" height="7"/>
	<rect x="2" y="21" fill="#15242A" width="4" height="2"/>
	<path fill="none" stroke="#15242A" stroke-width="2" d="M1,66L1,66c0,2.762,2.238,5,5,5h1"/>
	<rect x="50" y="57" fill="#15242A" width="2" height="7"/>
	<rect x="50" y="48" fill="#15242A" width="2" height="7"/>
	<rect x="50" y="39" fill="#15242A" width="2" height="7"/>
	<rect x="50" y="30" fill="#15242A" width="2" height="7"/>
	<rect x="50" y="21" fill="#15242A" width="2" height="7"/>
	<rect x="46" y="21" fill="#15242A" width="4" height="2"/>
	<path fill="none" stroke="#15242A" stroke-width="2" d="M51,66L51,66c0,2.762-2.238,5-5,5h-1"/>
	<rect x="9" y="70" fill="#15242A" width="7" height="2"/>
	<rect x="18" y="70" fill="#15242A" width="7" height="2"/>
	<rect x="27" y="70" fill="#15242A" width="7" height="2"/>
	<rect x="36" y="70" fill="#15242A" width="7" height="2"/>
	<rect x="9" y="21" fill="#15242A" width="7" height="2"/>
	<rect x="18" y="21" fill="#15242A" width="7" height="2"/>
	<rect x="27" y="21" fill="#15242A" width="7" height="2"/>
	<rect x="36" y="21" fill="#15242A" width="7" height="2"/>
</g>
</svg>
