<?xml version="1.0" encoding="utf-8"?>
<!-- Generator: Adobe Illustrator 13.0.0, SVG Export Plug-In . SVG Version: 6.00 Build 14948)  -->
<!DOCTYPE svg PUBLIC "-//W3C//DTD SVG 1.1//EN" "http://www.w3.org/Graphics/SVG/1.1/DTD/svg11.dtd">
<svg version="1.1" id="Layer_1" xmlns="http://www.w3.org/2000/svg" xmlns:xlink="http://www.w3.org/1999/xlink" x="0px" y="0px"
	 width="80px" height="112.678px" viewBox="0 0 80 112.678" enable-background="new 0 0 80 112.678" xml:space="preserve">
<g>
	<g>
		<path fill="#EAEAEE" d="M63,69.502H13c-0.827,0-1.5-0.675-1.5-1.502V2.001C11.5,1.174,12.172,0.5,13,0.5h50
			c0.827,0,1.501,0.674,1.501,1.501V68C64.501,68.827,63.827,69.502,63,69.502L63,69.502z"/>
		<path fill="#3E3C3C" d="M63,0c1.104,0,2,0.896,2,2v66c0,1.104-0.896,2-2,2H13c-1.104,0-2-0.896-2-2V2c0-1.104,0.896-2,2-2H63
			 M63,1H13c-0.551,0-1,0.449-1,1v66c0,0.552,0.449,1,1,1h50c0.552,0,1-0.448,1-1V2C64,1.449,63.552,1,63,1L63,1z"/>
	</g>
	<g>
		<polygon fill="#EAEAEE" points="64.501,69.502 11.5,69.502 11.5,0.5 64.501,0.5 64.501,69.502 		"/>
		<path fill="#3E3C3C" d="M65,0v70H11V0H65 M64,1H12v68h52V1L64,1z"/>
	</g>
	<polygon fill="#3E3C3C" points="65,5 65,6 70,6 70,74 18,74 18,70 17,70 17,75 71,75 71,5 	"/>
	<g>
		<polygon fill="#FFFFFF" points="64.501,17.5 11.5,17.5 11.5,10.499 64.501,10.499 64.501,17.5 		"/>
		<path fill="#3E3C3C" d="M65,10v8H11v-8H65 M64,11H12v6h52V11L64,11z"/>
	</g>
	<g>
		<path fill="#3E3C3C" d="M80,27h-4v1h3v0.443h1V27L80,27z M74,27h-4v1h4V27L74,27z M68,27h-4v1h4V27L68,27z M62,27h-4v1h4V27L62,27
			z M56,27h-4v1h4V27L56,27z M50,27h-4v1h4V27L50,27z M44,27h-4v1h4V27L44,27z M38,27h-4v1h4V27L38,27z M32,27h-4v1h4V27L32,27z
			 M26,27h-4v1h4V27L26,27z M20,27h-4v1h4V27L20,27z M14,27h-4v1h4V27L14,27z M8,27H4v1h4V27L8,27z M2,27H0v1l0,0c0,0.5,0,1,0,1h1
			v-1h1V27L2,27z M1,31H0v4h1V31L1,31z M1,37H0v4h1V37L1,37z M1,43H0v4h1V43L1,43z M1,49H0v4h1V49L1,49z M1,55H0v4h1V55L1,55z M1,61
			H0v4h1V61L1,61z M1,67H0v4h1V67L1,67z M1,73H0v4h1V73L1,73z M1,79H0v4h1V79L1,79z M1,85H0v4h1V85L1,85z M1,91H0v2l0,0l0,0
			l1.789,0.895L2.236,93L1,92.382V91L1,91z M4.025,93.895l-0.447,0.895l3.578,1.789l0.447-0.895L4.025,93.895L4.025,93.895z
			 M9.392,96.578l-0.447,0.894l2.343,1.172c0.676,0.338,1.235,0.617,1.235,0.617l0.447-0.895L9.392,96.578L9.392,96.578z
			 M14.758,99.261l-0.447,0.895l1.45,0.725c0.003,0.002,0.007,0.004,0.011,0.006l0.014,0.007c0.001,0.001,0.002,0.001,0.002,0.002
			l0.016,0.007c0.006,0.004,0.012,0.007,0.019,0.01l0.001,0.001c0.977,0.487,2.065,1.032,2.065,1.032l0.447-0.895L14.758,99.261
			L14.758,99.261z M20.125,101.944l-0.447,0.895l3.578,1.789l0.447-0.895L20.125,101.944L20.125,101.944z M25.491,104.628
			l-0.447,0.894c0,0,0.49,0.245,1.107,0.554l0.001,0.001c0.012,0.006,0.024,0.012,0.036,0.018l0.005,0.003
			c0.001,0.001,0.003,0.002,0.004,0.002l0.018,0.009c0,0,0,0,0,0l2.406,1.203l0.447-0.895L25.491,104.628L25.491,104.628z
			 M30.857,107.311l-0.447,0.895l3.578,1.789l0.447-0.895L30.857,107.311L30.857,107.311z M36.224,109.994l-0.447,0.895
			c0,0,2.869,1.435,3.469,1.734l0,0c0.009,0.004,0.018,0.009,0.026,0.013h0c0,0.001,0.001,0.001,0.002,0.001l0.002,0.001
			c0,0.001,0,0.001,0,0.001l0.002,0.001c0,0,0.001,0.001,0.002,0.001l0.005,0.002c0,0.001,0,0.001,0.001,0.001l0.001,0.001
			c0.002,0.001,0.003,0.002,0.005,0.002l0.004,0.003h0l0.005,0.002c0,0.001,0,0.001,0.001,0.001l0.004,0.002
			c0,0,0.001,0.001,0.001,0.001h0.001c0.003,0.002,0.006,0.003,0.008,0.005l0.003,0.002c0,0,0.001,0,0.001,0l0.003,0.002h0
			l0.003,0.002c0,0,0,0,0.001,0l0.012,0.006h0l0.007,0.004h0l0.001,0.001l0,0l0,0.001l0,0l0,0l0,0l0.447-0.895L36.224,109.994
			L36.224,109.994z M44.274,109.745l-3.578,1.789l0.447,0.894l3.578-1.788L44.274,109.745L44.274,109.745z M49.641,107.062
			l-3.578,1.789l0.447,0.895c0,0,1.166-0.583,2.167-1.083l1.411-0.706L49.641,107.062L49.641,107.062z M55.007,104.378l-3.577,1.789
			l0.447,0.895l3.577-1.789L55.007,104.378L55.007,104.378z M60.374,101.695l-3.578,1.789l0.447,0.894l3.578-1.788L60.374,101.695
			L60.374,101.695z M65.74,99.012l-3.577,1.789l0.447,0.895l1.451-0.727c0.003-0.001,0.005-0.002,0.007-0.003l0.004-0.002
			c0.006-0.003,0.012-0.006,0.018-0.009l0.003-0.002c0.984-0.491,2.095-1.047,2.095-1.047L65.74,99.012L65.74,99.012z
			 M71.107,96.328l-3.578,1.789l0.447,0.895l3.577-1.789L71.107,96.328L71.107,96.328z M76.474,93.646l-3.578,1.789l0.447,0.894
			l3.578-1.788L76.474,93.646L76.474,93.646z M80,90.442h-1v1.939l-0.737,0.369l0.447,0.895c0,0,1.119-0.561,1.272-0.637
			l0.002-0.001c0.002-0.001,0.004-0.002,0.006-0.003L80,93l0,0l0,0l0,0l0,0l0,0l0,0l0,0V90.442L80,90.442z M80,84.442h-1v4h1V84.442
			L80,84.442z M80,78.442h-1v4h1V78.442L80,78.442z M80,72.442h-1v4h1V72.442L80,72.442z M80,66.442h-1v4h1V66.442L80,66.442z
			 M80,60.442h-1v4h1V60.442L80,60.442z M80,54.443h-1v4h1V54.443L80,54.443z M80,48.443h-1v4h1V48.443L80,48.443z M80,42.443h-1v4
			h1V42.443L80,42.443z M80,36.443h-1v4h1V36.443L80,36.443z M80,30.443h-1v4h1V30.443L80,30.443z"/>
	</g>
</g>
</svg>
