<?xml version="1.0" encoding="utf-8"?>
<!-- Generator: Adobe Illustrator 13.0.0, SVG Export Plug-In . SVG Version: 6.00 Build 14948)  -->
<!DOCTYPE svg PUBLIC "-//W3C//DTD SVG 1.1//EN" "http://www.w3.org/Graphics/SVG/1.1/DTD/svg11.dtd">
<svg version="1.1" id="Layer_1" xmlns="http://www.w3.org/2000/svg" xmlns:xlink="http://www.w3.org/1999/xlink" x="0px" y="0px"
	 width="122px" height="314px" viewBox="0 0 122 314" enable-background="new 0 0 122 314" xml:space="preserve">
<g>
	<g>
		<polygon fill="#EAEAEE" points="121.5,85.5 0.5,85.5 0.5,0.5 121.5,0.5 121.5,85.5 		"/>
		<path fill="#3E3C3C" d="M122,0v86H0V0H122 M121,1H1v84h120V1L121,1z"/>
	</g>
	<g>
		<polygon fill="#EAEAEE" points="121.5,313.499 0.5,313.499 0.5,228.502 121.5,228.502 121.5,313.499 		"/>
		<path fill="#3E3C3C" d="M122,228v86H0v-86H122 M121,229H1v84h120V229L121,229z"/>
	</g>
	<g>
		<path fill="#3E3C3C" d="M63,6v4h-4V6H63 M62,7h-2v2h2V7L62,7z"/>
	</g>
	<g>
		<polygon fill="#FFFFFF" points="121.5,155.5 0.5,155.5 0.5,88.5 121.5,88.5 121.5,155.5 		"/>
		<path fill="#3E3C3C" d="M122,88v68H0V88H122 M121,89H1v66h120V89L121,89z"/>
	</g>
	<g>
		<polygon fill="#FFFFFF" points="121.5,225.5 0.5,225.5 0.5,158.5 121.5,158.5 121.5,225.5 		"/>
		<path fill="#3E3C3C" d="M122,158v68H0v-68H122 M121,159H1v66h120V159L121,159z"/>
	</g>
	<g>
		<polygon fill="#FFFFFF" points="121.501,295.501 0.501,295.501 0.501,228.5 121.501,228.5 121.501,295.501 		"/>
		<path fill="#3E3C3C" d="M122,228v68H0v-68H122 M121,229H1v66h120V229L121,229z"/>
	</g>
	<rect x="5" y="84" fill="#3E3C3C" width="1" height="6"/>
	<rect x="15" y="84" fill="#3E3C3C" width="1" height="6"/>
	<rect x="25" y="84" fill="#3E3C3C" width="1" height="6"/>
	<rect x="35" y="84" fill="#3E3C3C" width="1" height="6"/>
	<rect x="45" y="84" fill="#3E3C3C" width="1" height="6"/>
	<rect x="55" y="84" fill="#3E3C3C" width="1" height="6"/>
	<rect x="65" y="84" fill="#3E3C3C" width="1" height="6"/>
	<rect x="75" y="84" fill="#3E3C3C" width="1" height="6"/>
	<rect x="85" y="84" fill="#3E3C3C" width="1" height="6"/>
	<rect x="95" y="84" fill="#3E3C3C" width="1" height="6"/>
	<rect x="105" y="84" fill="#3E3C3C" width="1" height="6"/>
	<rect x="115" y="84" fill="#3E3C3C" width="1" height="6"/>
	<rect x="5" y="154" fill="#3E3C3C" width="1" height="6"/>
	<rect x="15" y="154" fill="#3E3C3C" width="1" height="6"/>
	<rect x="25" y="154" fill="#3E3C3C" width="1" height="6"/>
	<rect x="35" y="154" fill="#3E3C3C" width="1" height="6"/>
	<rect x="45" y="154" fill="#3E3C3C" width="1" height="6"/>
	<rect x="55" y="154" fill="#3E3C3C" width="1" height="6"/>
	<rect x="65" y="154" fill="#3E3C3C" width="1" height="6"/>
	<rect x="75" y="154" fill="#3E3C3C" width="1" height="6"/>
	<rect x="85" y="154" fill="#3E3C3C" width="1" height="6"/>
	<rect x="95" y="154" fill="#3E3C3C" width="1" height="6"/>
	<rect x="105" y="154" fill="#3E3C3C" width="1" height="6"/>
	<rect x="115" y="154" fill="#3E3C3C" width="1" height="6"/>
	<rect x="5" y="224" fill="#3E3C3C" width="1" height="6"/>
	<rect x="15" y="224" fill="#3E3C3C" width="1" height="6"/>
	<rect x="25" y="224" fill="#3E3C3C" width="1" height="6"/>
	<rect x="35" y="224" fill="#3E3C3C" width="1" height="6"/>
	<rect x="45" y="224" fill="#3E3C3C" width="1" height="6"/>
	<rect x="55" y="224" fill="#3E3C3C" width="1" height="6"/>
	<rect x="65" y="224" fill="#3E3C3C" width="1" height="6"/>
	<rect x="75" y="224" fill="#3E3C3C" width="1" height="6"/>
	<rect x="85" y="224" fill="#3E3C3C" width="1" height="6"/>
	<rect x="95" y="224" fill="#3E3C3C" width="1" height="6"/>
	<rect x="105" y="224" fill="#3E3C3C" width="1" height="6"/>
	<rect x="115" y="224" fill="#3E3C3C" width="1" height="6"/>
</g>
</svg>
