<?xml version="1.0" encoding="utf-8"?>
<!-- Generator: Adobe Illustrator 13.0.0, SVG Export Plug-In . SVG Version: 6.00 Build 14948)  -->
<!DOCTYPE svg PUBLIC "-//W3C//DTD SVG 1.1//EN" "http://www.w3.org/Graphics/SVG/1.1/DTD/svg11.dtd">
<svg version="1.1" id="Layer_1" xmlns="http://www.w3.org/2000/svg" xmlns:xlink="http://www.w3.org/1999/xlink" x="0px" y="0px"
	 width="140px" height="350px" viewBox="0 0 140 350" enable-background="new 0 0 140 350" xml:space="preserve">
<g>
	<g>
		<polygon fill="#EAEAEE" points="139.5,85.5 0.499,85.5 0.499,0.5 139.5,0.5 139.5,85.5 		"/>
		<path fill="#3E3C3C" d="M140,0v86H0V0H140 M139,1H1v84h138V1L139,1z"/>
	</g>
	<g>
		<polygon fill="#EAEAEE" points="139.5,173.5 0.499,173.5 0.499,88.5 139.5,88.5 139.5,173.5 		"/>
		<path fill="#3E3C3C" d="M140,88v86H0V88H140 M139,89H1v84h138V89L139,89z"/>
	</g>
	<g>
		<polygon fill="#EAEAEE" points="139.5,261.5 0.5,261.5 0.5,176.5 139.5,176.5 139.5,261.5 		"/>
		<path fill="#3E3C3C" d="M140,176v86H0v-86H140 M139,177H1v84h138V177L139,177z"/>
	</g>
	<g>
		<polygon fill="#EAEAEE" points="139.501,349.5 0.5,349.5 0.5,264.5 139.501,264.5 139.501,349.5 		"/>
		<path fill="#3E3C3C" d="M140,264v86H0v-86H140 M139,265H1v84h138V265L139,265z"/>
	</g>
	<g>
		<path fill="#3E3C3C" d="M72,6v4h-4V6H72 M71,7h-2v2h2V7L71,7z"/>
	</g>
	<g>
		<polygon fill="#FFFFFF" points="130.5,155.501 9.5,155.501 9.5,88.5 130.5,88.5 130.5,155.501 		"/>
		<path fill="#3E3C3C" d="M131,88v68H9V88H131 M130,89H10v66h120V89L130,89z"/>
	</g>
	<g>
		<polygon fill="#FFFFFF" points="130.5,243.5 9.5,243.5 9.5,176.5 130.5,176.5 130.5,243.5 		"/>
		<path fill="#3E3C3C" d="M131,176v68H9v-68H131 M130,177H10v66h120V177L130,177z"/>
	</g>
	<g>
		<polygon fill="#FFFFFF" points="130.5,331.499 9.5,331.499 9.5,264.501 130.5,264.501 130.5,331.499 		"/>
		<path fill="#3E3C3C" d="M131,264v68H9v-68H131 M130,265H10v66h120V265L130,265z"/>
	</g>
	<rect x="4" y="84" fill="#3E3C3C" width="1" height="6"/>
	<rect x="14" y="84" fill="#3E3C3C" width="1" height="6"/>
	<rect x="24" y="84" fill="#3E3C3C" width="1" height="6"/>
	<rect x="34" y="84" fill="#3E3C3C" width="1" height="6"/>
	<rect x="44" y="84" fill="#3E3C3C" width="1" height="6"/>
	<rect x="54" y="84" fill="#3E3C3C" width="1" height="6"/>
	<rect x="64" y="84" fill="#3E3C3C" width="1" height="6"/>
	<rect x="74" y="84" fill="#3E3C3C" width="1" height="6"/>
	<rect x="84" y="84" fill="#3E3C3C" width="1" height="6"/>
	<rect x="94" y="84" fill="#3E3C3C" width="1" height="6"/>
	<rect x="104" y="84" fill="#3E3C3C" width="1" height="6"/>
	<rect x="114" y="84" fill="#3E3C3C" width="1" height="6"/>
	<rect x="124" y="84" fill="#3E3C3C" width="1" height="6"/>
	<rect x="134" y="84" fill="#3E3C3C" width="1" height="6"/>
	<rect x="4" y="172" fill="#3E3C3C" width="1" height="6"/>
	<rect x="14" y="172" fill="#3E3C3C" width="1" height="6"/>
	<rect x="24" y="172" fill="#3E3C3C" width="1" height="6"/>
	<rect x="34" y="172" fill="#3E3C3C" width="1" height="6"/>
	<rect x="44" y="172" fill="#3E3C3C" width="1" height="6"/>
	<rect x="54" y="172" fill="#3E3C3C" width="1" height="6"/>
	<rect x="64" y="172" fill="#3E3C3C" width="1" height="6"/>
	<rect x="74" y="172" fill="#3E3C3C" width="1" height="6"/>
	<rect x="84" y="172" fill="#3E3C3C" width="1" height="6"/>
	<rect x="94" y="172" fill="#3E3C3C" width="1" height="6"/>
	<rect x="104" y="172" fill="#3E3C3C" width="1" height="6"/>
	<rect x="114" y="172" fill="#3E3C3C" width="1" height="6"/>
	<rect x="124" y="172" fill="#3E3C3C" width="1" height="6"/>
	<rect x="134" y="172" fill="#3E3C3C" width="1" height="6"/>
	<rect x="4" y="260" fill="#3E3C3C" width="1" height="6"/>
	<rect x="14" y="260" fill="#3E3C3C" width="1" height="6"/>
	<rect x="24" y="260" fill="#3E3C3C" width="1" height="6"/>
	<rect x="34" y="260" fill="#3E3C3C" width="1" height="6"/>
	<rect x="44" y="260" fill="#3E3C3C" width="1" height="6"/>
	<rect x="54" y="260" fill="#3E3C3C" width="1" height="6"/>
	<rect x="64" y="260" fill="#3E3C3C" width="1" height="6"/>
	<rect x="74" y="260" fill="#3E3C3C" width="1" height="6"/>
	<rect x="84" y="260" fill="#3E3C3C" width="1" height="6"/>
	<rect x="94" y="260" fill="#3E3C3C" width="1" height="6"/>
	<rect x="104" y="260" fill="#3E3C3C" width="1" height="6"/>
	<rect x="114" y="260" fill="#3E3C3C" width="1" height="6"/>
	<rect x="124" y="260" fill="#3E3C3C" width="1" height="6"/>
	<rect x="134" y="260" fill="#3E3C3C" width="1" height="6"/>
</g>
</svg>
