<?xml version="1.0" encoding="utf-8"?>
<!-- Generator: Adobe Illustrator 13.0.0, SVG Export Plug-In . SVG Version: 6.00 Build 14948)  -->
<!DOCTYPE svg PUBLIC "-//W3C//DTD SVG 1.1//EN" "http://www.w3.org/Graphics/SVG/1.1/DTD/svg11.dtd">
<svg version="1.1" id="Layer_1" xmlns="http://www.w3.org/2000/svg" xmlns:xlink="http://www.w3.org/1999/xlink" x="0px" y="0px"
	 width="122px" height="350px" viewBox="0 0 122 350" enable-background="new 0 0 122 350" xml:space="preserve">
<g>
	<g>
		<polygon fill="#EAEAEE" points="121.5,85.5 0.5,85.5 0.5,0.499 121.5,0.499 121.5,85.5 		"/>
		<path fill="#3E3C3C" d="M122,0v86H0V0H122 M121,1H1v84h120V1L121,1z"/>
	</g>
	<g>
		<polygon fill="#EAEAEE" points="121.5,173.5 0.5,173.5 0.5,88.5 121.5,88.5 121.5,173.5 		"/>
		<path fill="#3E3C3C" d="M122,88v86H0V88H122 M121,89H1v84h120V89L121,89z"/>
	</g>
	<g>
		<polygon fill="#EAEAEE" points="121.5,261.5 0.5,261.5 0.5,176.5 121.5,176.5 121.5,261.5 		"/>
		<path fill="#3E3C3C" d="M122,176v86H0v-86H122 M121,177H1v84h120V177L121,177z"/>
	</g>
	<g>
		<polygon fill="#EAEAEE" points="121.499,349.5 0.499,349.5 0.499,264.5 121.499,264.5 121.499,349.5 		"/>
		<path fill="#3E3C3C" d="M122,264v86H0v-86H122 M121,265H1v84h120V265L121,265z"/>
	</g>
	<g>
		<path fill="#3E3C3C" d="M63,6v4h-4V6H63 M62,7h-2v2h2V7L62,7z"/>
	</g>
	<g>
		<polygon fill="#FFFFFF" points="121.5,155.501 0.5,155.501 0.5,88.5 121.5,88.5 121.5,155.501 		"/>
		<path fill="#3E3C3C" d="M122,88v68H0V88H122 M121,89H1v66h120V89L121,89z"/>
	</g>
	<g>
		<polygon fill="#FFFFFF" points="121.5,243.5 0.5,243.5 0.5,176.5 121.5,176.5 121.5,243.5 		"/>
		<path fill="#3E3C3C" d="M122,176v68H0v-68H122 M121,177H1v66h120V177L121,177z"/>
	</g>
	<g>
		<polygon fill="#FFFFFF" points="121.5,331.499 0.5,331.499 0.5,264.501 121.5,264.501 121.5,331.499 		"/>
		<path fill="#3E3C3C" d="M122,264v68H0v-68H122 M121,265H1v66h120V265L121,265z"/>
	</g>
	<rect x="5" y="84" fill="#3E3C3C" width="1" height="6"/>
	<rect x="15" y="84" fill="#3E3C3C" width="1" height="6"/>
	<rect x="25" y="84" fill="#3E3C3C" width="1" height="6"/>
	<rect x="35" y="84" fill="#3E3C3C" width="1" height="6"/>
	<rect x="45" y="84" fill="#3E3C3C" width="1" height="6"/>
	<rect x="55" y="84" fill="#3E3C3C" width="1" height="6"/>
	<rect x="65" y="84" fill="#3E3C3C" width="1" height="6"/>
	<rect x="75" y="84" fill="#3E3C3C" width="1" height="6"/>
	<rect x="85" y="84" fill="#3E3C3C" width="1" height="6"/>
	<rect x="95" y="84" fill="#3E3C3C" width="1" height="6"/>
	<rect x="105" y="84" fill="#3E3C3C" width="1" height="6"/>
	<rect x="115" y="84" fill="#3E3C3C" width="1" height="6"/>
	<rect x="5" y="172" fill="#3E3C3C" width="1" height="6"/>
	<rect x="15" y="172" fill="#3E3C3C" width="1" height="6"/>
	<rect x="25" y="172" fill="#3E3C3C" width="1" height="6"/>
	<rect x="35" y="172" fill="#3E3C3C" width="1" height="6"/>
	<rect x="45" y="172" fill="#3E3C3C" width="1" height="6"/>
	<rect x="55" y="172" fill="#3E3C3C" width="1" height="6"/>
	<rect x="65" y="172" fill="#3E3C3C" width="1" height="6"/>
	<rect x="75" y="172" fill="#3E3C3C" width="1" height="6"/>
	<rect x="85" y="172" fill="#3E3C3C" width="1" height="6"/>
	<rect x="95" y="172" fill="#3E3C3C" width="1" height="6"/>
	<rect x="105" y="172" fill="#3E3C3C" width="1" height="6"/>
	<rect x="115" y="172" fill="#3E3C3C" width="1" height="6"/>
	<rect x="5" y="260" fill="#3E3C3C" width="1" height="6"/>
	<rect x="15" y="260" fill="#3E3C3C" width="1" height="6"/>
	<rect x="25" y="260" fill="#3E3C3C" width="1" height="6"/>
	<rect x="35" y="260" fill="#3E3C3C" width="1" height="6"/>
	<rect x="45" y="260" fill="#3E3C3C" width="1" height="6"/>
	<rect x="55" y="260" fill="#3E3C3C" width="1" height="6"/>
	<rect x="65" y="260" fill="#3E3C3C" width="1" height="6"/>
	<rect x="75" y="260" fill="#3E3C3C" width="1" height="6"/>
	<rect x="85" y="260" fill="#3E3C3C" width="1" height="6"/>
	<rect x="95" y="260" fill="#3E3C3C" width="1" height="6"/>
	<rect x="105" y="260" fill="#3E3C3C" width="1" height="6"/>
	<rect x="115" y="260" fill="#3E3C3C" width="1" height="6"/>
</g>
</svg>
