<?xml version="1.0" encoding="utf-8"?>
<!-- Generator: Adobe Illustrator 13.0.0, SVG Export Plug-In . SVG Version: 6.00 Build 14948)  -->
<!DOCTYPE svg PUBLIC "-//W3C//DTD SVG 1.1//EN" "http://www.w3.org/Graphics/SVG/1.1/DTD/svg11.dtd">
<svg version="1.1" id="Layer_1" xmlns="http://www.w3.org/2000/svg" xmlns:xlink="http://www.w3.org/1999/xlink" x="0px" y="0px"
	 width="130px" height="310px" viewBox="0 0 130 310" enable-background="new 0 0 130 310" xml:space="preserve">
<g>
	<g>
		<polygon fill="#EAEAEE" points="129.501,153.5 0.5,153.5 0.5,78.5 129.501,78.5 129.501,153.5 		"/>
		<path fill="#3E3C3C" d="M130,78v76H0V78H130 M129,79H1v74h128V79L129,79z"/>
	</g>
	<g>
		<polygon fill="#EAEAEE" points="129.501,231.499 0.5,231.499 0.5,156.5 129.501,156.5 129.501,231.499 		"/>
		<path fill="#3E3C3C" d="M130,156v76H0v-76H130 M129,157H1v74h128V157L129,157z"/>
	</g>
	<g>
		<polygon fill="#EAEAEE" points="129.499,309.5 0.501,309.5 0.501,234.502 129.499,234.502 129.499,309.5 		"/>
		<path fill="#3E3C3C" d="M130,234v76H0v-76H130 M129,235H1v74h128V235L129,235z"/>
	</g>
	<g>
		<polygon fill="#EAEAEE" points="129.501,75.5 0.5,75.5 0.5,0.499 129.501,0.499 129.501,75.5 		"/>
		<path fill="#3E3C3C" d="M130,0v76H0V0H130 M129,1H1v74h128V1L129,1z"/>
	</g>
	<g>
		<path fill="#3E3C3C" d="M67,6v4h-4V6H67 M66,7h-2v2h2V7L66,7z"/>
	</g>
	<g>
		<polygon fill="#FFFFFF" points="120.5,135.499 9.501,135.499 9.501,78.5 120.5,78.5 120.5,135.499 		"/>
		<path fill="#3E3C3C" d="M121,78v58H9V78H121 M120,79H10v56h110V79L120,79z"/>
	</g>
	<g>
		<polygon fill="#FFFFFF" points="120.5,213.501 9.499,213.501 9.499,156.499 120.5,156.499 120.5,213.501 		"/>
		<path fill="#3E3C3C" d="M121,156v58H9v-58H121 M120,157H10v56h110V157L120,157z"/>
	</g>
	<g>
		<polygon fill="#FFFFFF" points="120.5,291.499 9.5,291.499 9.5,234.5 120.5,234.5 120.5,291.499 		"/>
		<path fill="#3E3C3C" d="M121,234v58H9v-58H121 M120,235H10v56h110V235L120,235z"/>
	</g>
	<rect x="4" y="74" fill="#3E3C3C" width="1" height="6"/>
	<rect x="14" y="74" fill="#3E3C3C" width="1" height="6"/>
	<rect x="24" y="74" fill="#3E3C3C" width="1" height="6"/>
	<rect x="34" y="74" fill="#3E3C3C" width="1" height="6"/>
	<rect x="44" y="74" fill="#3E3C3C" width="1" height="6"/>
	<rect x="54" y="74" fill="#3E3C3C" width="1" height="6"/>
	<rect x="64" y="74" fill="#3E3C3C" width="1" height="6"/>
	<rect x="74" y="74" fill="#3E3C3C" width="1" height="6"/>
	<rect x="84" y="74" fill="#3E3C3C" width="1" height="6"/>
	<rect x="94" y="74" fill="#3E3C3C" width="1" height="6"/>
	<rect x="104" y="74" fill="#3E3C3C" width="1" height="6"/>
	<rect x="114" y="74" fill="#3E3C3C" width="1" height="6"/>
	<rect x="124" y="74" fill="#3E3C3C" width="1" height="6"/>
	<rect x="4" y="152" fill="#3E3C3C" width="1" height="6"/>
	<rect x="14" y="152" fill="#3E3C3C" width="1" height="6"/>
	<rect x="24" y="152" fill="#3E3C3C" width="1" height="6"/>
	<rect x="34" y="152" fill="#3E3C3C" width="1" height="6"/>
	<rect x="44" y="152" fill="#3E3C3C" width="1" height="6"/>
	<rect x="54" y="152" fill="#3E3C3C" width="1" height="6"/>
	<rect x="64" y="152" fill="#3E3C3C" width="1" height="6"/>
	<rect x="74" y="152" fill="#3E3C3C" width="1" height="6"/>
	<rect x="84" y="152" fill="#3E3C3C" width="1" height="6"/>
	<rect x="94" y="152" fill="#3E3C3C" width="1" height="6"/>
	<rect x="104" y="152" fill="#3E3C3C" width="1" height="6"/>
	<rect x="114" y="152" fill="#3E3C3C" width="1" height="6"/>
	<rect x="124" y="152" fill="#3E3C3C" width="1" height="6"/>
	<rect x="4" y="230" fill="#3E3C3C" width="1" height="6"/>
	<rect x="14" y="230" fill="#3E3C3C" width="1" height="6"/>
	<rect x="24" y="230" fill="#3E3C3C" width="1" height="6"/>
	<rect x="34" y="230" fill="#3E3C3C" width="1" height="6"/>
	<rect x="44" y="230" fill="#3E3C3C" width="1" height="6"/>
	<rect x="54" y="230" fill="#3E3C3C" width="1" height="6"/>
	<rect x="64" y="230" fill="#3E3C3C" width="1" height="6"/>
	<rect x="74" y="230" fill="#3E3C3C" width="1" height="6"/>
	<rect x="84" y="230" fill="#3E3C3C" width="1" height="6"/>
	<rect x="94" y="230" fill="#3E3C3C" width="1" height="6"/>
	<rect x="104" y="230" fill="#3E3C3C" width="1" height="6"/>
	<rect x="114" y="230" fill="#3E3C3C" width="1" height="6"/>
	<rect x="124" y="230" fill="#3E3C3C" width="1" height="6"/>
</g>
</svg>
