<?xml version="1.0" encoding="utf-8"?>
<!-- Generator: Adobe Illustrator 13.0.0, SVG Export Plug-In . SVG Version: 6.00 Build 14948)  -->
<!DOCTYPE svg PUBLIC "-//W3C//DTD SVG 1.1//EN" "http://www.w3.org/Graphics/SVG/1.1/DTD/svg11.dtd">
<svg version="1.1" id="Layer_1" xmlns="http://www.w3.org/2000/svg" xmlns:xlink="http://www.w3.org/1999/xlink" x="0px" y="0px"
	 width="112px" height="256px" viewBox="0 0 112 256" enable-background="new 0 0 112 256" xml:space="preserve">
<g>
	<g>
		<polygon fill="#EAEAEE" points="111.5,75.499 0.501,75.499 0.501,0.5 111.5,0.5 111.5,75.499 		"/>
		<path fill="#3E3C3C" d="M112,0v76H0V0H112 M111,1H1v74h110V1L111,1z"/>
	</g>
	<g>
		<path fill="#3E3C3C" d="M58,6v4h-4V6H58 M57,7h-2v2h2V7L57,7z"/>
	</g>
	<g>
		<polygon fill="#FFFFFF" points="111.5,135.499 0.501,135.499 0.501,78.501 111.5,78.501 111.5,135.499 		"/>
		<path fill="#3E3C3C" d="M112,78v58H0V78H112 M111,79H1v56h110V79L111,79z"/>
	</g>
	<g>
		<polygon fill="#FFFFFF" points="111.5,195.5 0.5,195.5 0.5,138.5 111.5,138.5 111.5,195.5 		"/>
		<path fill="#3E3C3C" d="M112,138v58H0v-58H112 M111,139H1v56h110V139L111,139z"/>
	</g>
	<g>
		<polygon fill="#FFFFFF" points="111.501,255.5 0.499,255.5 0.499,198.499 111.501,198.499 111.501,255.5 		"/>
		<path fill="#3E3C3C" d="M112,198v58H0v-58H112 M111,199H1v56h110V199L111,199z"/>
	</g>
	<rect x="5" y="74" fill="#3E3C3C" width="1" height="6"/>
	<rect x="15" y="74" fill="#3E3C3C" width="1" height="6"/>
	<rect x="25" y="74" fill="#3E3C3C" width="1" height="6"/>
	<rect x="35" y="74" fill="#3E3C3C" width="1" height="6"/>
	<rect x="45" y="74" fill="#3E3C3C" width="1" height="6"/>
	<rect x="55" y="74" fill="#3E3C3C" width="1" height="6"/>
	<rect x="65" y="74" fill="#3E3C3C" width="1" height="6"/>
	<rect x="75" y="74" fill="#3E3C3C" width="1" height="6"/>
	<rect x="85" y="74" fill="#3E3C3C" width="1" height="6"/>
	<rect x="95" y="74" fill="#3E3C3C" width="1" height="6"/>
	<rect x="105" y="74" fill="#3E3C3C" width="1" height="6"/>
	<rect x="5" y="134" fill="#3E3C3C" width="1" height="6"/>
	<rect x="15" y="134" fill="#3E3C3C" width="1" height="6"/>
	<rect x="25" y="134" fill="#3E3C3C" width="1" height="6"/>
	<rect x="35" y="134" fill="#3E3C3C" width="1" height="6"/>
	<rect x="45" y="134" fill="#3E3C3C" width="1" height="6"/>
	<rect x="55" y="134" fill="#3E3C3C" width="1" height="6"/>
	<rect x="65" y="134" fill="#3E3C3C" width="1" height="6"/>
	<rect x="75" y="134" fill="#3E3C3C" width="1" height="6"/>
	<rect x="85" y="134" fill="#3E3C3C" width="1" height="6"/>
	<rect x="95" y="134" fill="#3E3C3C" width="1" height="6"/>
	<rect x="105" y="134" fill="#3E3C3C" width="1" height="6"/>
	<rect x="5" y="194" fill="#3E3C3C" width="1" height="6"/>
	<rect x="15" y="194" fill="#3E3C3C" width="1" height="6"/>
	<rect x="25" y="194" fill="#3E3C3C" width="1" height="6"/>
	<rect x="35" y="194" fill="#3E3C3C" width="1" height="6"/>
	<rect x="45" y="194" fill="#3E3C3C" width="1" height="6"/>
	<rect x="55" y="194" fill="#3E3C3C" width="1" height="6"/>
	<rect x="65" y="194" fill="#3E3C3C" width="1" height="6"/>
	<rect x="75" y="194" fill="#3E3C3C" width="1" height="6"/>
	<rect x="85" y="194" fill="#3E3C3C" width="1" height="6"/>
	<rect x="95" y="194" fill="#3E3C3C" width="1" height="6"/>
	<rect x="105" y="194" fill="#3E3C3C" width="1" height="6"/>
</g>
</svg>
