<?xml version="1.0" encoding="utf-8"?>
<!-- Generator: Adobe Illustrator 13.0.0, SVG Export Plug-In . SVG Version: 6.00 Build 14948)  -->
<!DOCTYPE svg PUBLIC "-//W3C//DTD SVG 1.1//EN" "http://www.w3.org/Graphics/SVG/1.1/DTD/svg11.dtd">
<svg version="1.1" id="Layer_1" xmlns="http://www.w3.org/2000/svg" xmlns:xlink="http://www.w3.org/1999/xlink" x="0px" y="0px"
	 width="112px" height="310px" viewBox="0 0 112 310" enable-background="new 0 0 112 310" xml:space="preserve">
<g>
	<g>
		<polygon fill="#EAEAEE" points="111.5,153.5 0.501,153.5 0.501,78.5 111.5,78.5 111.5,153.5 		"/>
		<path fill="#3E3C3C" d="M112,78v76H0V78H112 M111,79H1v74h110V79L111,79z"/>
	</g>
	<g>
		<polygon fill="#EAEAEE" points="111.499,231.499 0.5,231.499 0.5,156.5 111.499,156.5 111.499,231.499 		"/>
		<path fill="#3E3C3C" d="M112,156v76H0v-76H112 M111,157H1v74h110V157L111,157z"/>
	</g>
	<g>
		<polygon fill="#EAEAEE" points="111.5,309.5 0.5,309.5 0.5,234.502 111.5,234.502 111.5,309.5 		"/>
		<path fill="#3E3C3C" d="M112,234v76H0v-76H112 M111,235H1v74h110V235L111,235z"/>
	</g>
	<g>
		<polygon fill="#EAEAEE" points="111.5,75.499 0.501,75.499 0.501,0.502 111.5,0.502 111.5,75.499 		"/>
		<path fill="#3E3C3C" d="M112,0v76H0V0H112 M111,1H1v74h110V1L111,1z"/>
	</g>
	<g>
		<path fill="#3E3C3C" d="M58,6v4h-4V6H58 M57,7h-2v2h2V7L57,7z"/>
	</g>
	<g>
		<polygon fill="#FFFFFF" points="111.5,135.499 0.501,135.499 0.501,78.5 111.5,78.5 111.5,135.499 		"/>
		<path fill="#3E3C3C" d="M112,78v58H0V78H112 M111,79H1v56h110V79L111,79z"/>
	</g>
	<g>
		<polygon fill="#FFFFFF" points="111.5,213.501 0.499,213.501 0.499,156.499 111.5,156.499 111.5,213.501 		"/>
		<path fill="#3E3C3C" d="M112,156v58H0v-58H112 M111,157H1v56h110V157L111,157z"/>
	</g>
	<g>
		<polygon fill="#FFFFFF" points="111.5,291.499 0.5,291.499 0.5,234.5 111.5,234.5 111.5,291.499 		"/>
		<path fill="#3E3C3C" d="M112,234v58H0v-58H112 M111,235H1v56h110V235L111,235z"/>
	</g>
	<rect x="5" y="74" fill="#3E3C3C" width="1" height="6"/>
	<rect x="15" y="74" fill="#3E3C3C" width="1" height="6"/>
	<rect x="25" y="74" fill="#3E3C3C" width="1" height="6"/>
	<rect x="35" y="74" fill="#3E3C3C" width="1" height="6"/>
	<rect x="45" y="74" fill="#3E3C3C" width="1" height="6"/>
	<rect x="55" y="74" fill="#3E3C3C" width="1" height="6"/>
	<rect x="65" y="74" fill="#3E3C3C" width="1" height="6"/>
	<rect x="75" y="74" fill="#3E3C3C" width="1" height="6"/>
	<rect x="85" y="74" fill="#3E3C3C" width="1" height="6"/>
	<rect x="95" y="74" fill="#3E3C3C" width="1" height="6"/>
	<rect x="105" y="74" fill="#3E3C3C" width="1" height="6"/>
	<rect x="5" y="152" fill="#3E3C3C" width="1" height="6"/>
	<rect x="15" y="152" fill="#3E3C3C" width="1" height="6"/>
	<rect x="25" y="152" fill="#3E3C3C" width="1" height="6"/>
	<rect x="35" y="152" fill="#3E3C3C" width="1" height="6"/>
	<rect x="45" y="152" fill="#3E3C3C" width="1" height="6"/>
	<rect x="55" y="152" fill="#3E3C3C" width="1" height="6"/>
	<rect x="65" y="152" fill="#3E3C3C" width="1" height="6"/>
	<rect x="75" y="152" fill="#3E3C3C" width="1" height="6"/>
	<rect x="85" y="152" fill="#3E3C3C" width="1" height="6"/>
	<rect x="95" y="152" fill="#3E3C3C" width="1" height="6"/>
	<rect x="105" y="152" fill="#3E3C3C" width="1" height="6"/>
	<rect x="5" y="230" fill="#3E3C3C" width="1" height="6"/>
	<rect x="15" y="230" fill="#3E3C3C" width="1" height="6"/>
	<rect x="25" y="230" fill="#3E3C3C" width="1" height="6"/>
	<rect x="35" y="230" fill="#3E3C3C" width="1" height="6"/>
	<rect x="45" y="230" fill="#3E3C3C" width="1" height="6"/>
	<rect x="55" y="230" fill="#3E3C3C" width="1" height="6"/>
	<rect x="65" y="230" fill="#3E3C3C" width="1" height="6"/>
	<rect x="75" y="230" fill="#3E3C3C" width="1" height="6"/>
	<rect x="85" y="230" fill="#3E3C3C" width="1" height="6"/>
	<rect x="95" y="230" fill="#3E3C3C" width="1" height="6"/>
	<rect x="105" y="230" fill="#3E3C3C" width="1" height="6"/>
</g>
</svg>
