<?xml version="1.0" encoding="utf-8"?>
<!-- Generator: Adobe Illustrator 13.0.0, SVG Export Plug-In . SVG Version: 6.00 Build 14948)  -->
<!DOCTYPE svg PUBLIC "-//W3C//DTD SVG 1.1//EN" "http://www.w3.org/Graphics/SVG/1.1/DTD/svg11.dtd">
<svg version="1.1" id="Layer_1" xmlns="http://www.w3.org/2000/svg" xmlns:xlink="http://www.w3.org/1999/xlink" x="0px" y="0px"
	 width="102px" height="234px" viewBox="0 0 102 234" enable-background="new 0 0 102 234" xml:space="preserve">
<g>
	<g>
		<polygon fill="#EAEAEE" points="101.5,233.499 0.5,233.499 0.5,168.501 101.5,168.501 101.5,233.499 		"/>
		<path fill="#3E3C3C" d="M102,168v66H0v-66H102 M101,169H1v64h100V169L101,169z"/>
	</g>
	<g>
		<polygon fill="#EAEAEE" points="101.499,65.5 0.501,65.5 0.501,0.5 101.499,0.5 101.499,65.5 		"/>
		<path fill="#3E3C3C" d="M102,0v66H0V0H102 M101,1H1v64h100V1L101,1z"/>
	</g>
	<g>
		<path fill="#3E3C3C" d="M53,6v4h-4V6H53 M52,7h-2v2h2V7L52,7z"/>
	</g>
	<g>
		<polygon fill="#FFFFFF" points="101.499,115.499 0.501,115.499 0.501,68.5 101.499,68.5 101.499,115.499 		"/>
		<path fill="#3E3C3C" d="M102,68v48H0V68H102 M101,69H1v46h100V69L101,69z"/>
	</g>
	<g>
		<polygon fill="#FFFFFF" points="101.499,165.498 0.501,165.498 0.501,118.501 101.499,118.501 101.499,165.498 		"/>
		<path fill="#3E3C3C" d="M102,118v48H0v-48H102 M101,119H1v46h100V119L101,119z"/>
	</g>
	<g>
		<polygon fill="#FFFFFF" points="101.501,215.501 0.5,215.501 0.5,168.5 101.501,168.5 101.501,215.501 		"/>
		<path fill="#3E3C3C" d="M102,168v48H0v-48H102 M101,169H1v46h100V169L101,169z"/>
	</g>
	<rect x="5" y="64" fill="#3E3C3C" width="1" height="6"/>
	<rect x="15" y="64" fill="#3E3C3C" width="1" height="6"/>
	<rect x="25" y="64" fill="#3E3C3C" width="1" height="6"/>
	<rect x="35" y="64" fill="#3E3C3C" width="1" height="6"/>
	<rect x="45" y="64" fill="#3E3C3C" width="1" height="6"/>
	<rect x="55" y="64" fill="#3E3C3C" width="1" height="6"/>
	<rect x="65" y="64" fill="#3E3C3C" width="1" height="6"/>
	<rect x="75" y="64" fill="#3E3C3C" width="1" height="6"/>
	<rect x="85" y="64" fill="#3E3C3C" width="1" height="6"/>
	<rect x="95" y="64" fill="#3E3C3C" width="1" height="6"/>
	<rect x="5" y="114" fill="#3E3C3C" width="1" height="6"/>
	<rect x="15" y="114" fill="#3E3C3C" width="1" height="6"/>
	<rect x="25" y="114" fill="#3E3C3C" width="1" height="6"/>
	<rect x="35" y="114" fill="#3E3C3C" width="1" height="6"/>
	<rect x="45" y="114" fill="#3E3C3C" width="1" height="6"/>
	<rect x="55" y="114" fill="#3E3C3C" width="1" height="6"/>
	<rect x="65" y="114" fill="#3E3C3C" width="1" height="6"/>
	<rect x="75" y="114" fill="#3E3C3C" width="1" height="6"/>
	<rect x="85" y="114" fill="#3E3C3C" width="1" height="6"/>
	<rect x="95" y="114" fill="#3E3C3C" width="1" height="6"/>
	<rect x="5" y="164" fill="#3E3C3C" width="1" height="6"/>
	<rect x="15" y="164" fill="#3E3C3C" width="1" height="6"/>
	<rect x="25" y="164" fill="#3E3C3C" width="1" height="6"/>
	<rect x="35" y="164" fill="#3E3C3C" width="1" height="6"/>
	<rect x="45" y="164" fill="#3E3C3C" width="1" height="6"/>
	<rect x="55" y="164" fill="#3E3C3C" width="1" height="6"/>
	<rect x="65" y="164" fill="#3E3C3C" width="1" height="6"/>
	<rect x="75" y="164" fill="#3E3C3C" width="1" height="6"/>
	<rect x="85" y="164" fill="#3E3C3C" width="1" height="6"/>
	<rect x="95" y="164" fill="#3E3C3C" width="1" height="6"/>
</g>
</svg>
