<?xml version="1.0" encoding="utf-8"?>
<!-- Generator: Adobe Illustrator 13.0.0, SVG Export Plug-In . SVG Version: 6.00 Build 14948)  -->
<!DOCTYPE svg PUBLIC "-//W3C//DTD SVG 1.1//EN" "http://www.w3.org/Graphics/SVG/1.1/DTD/svg11.dtd">
<svg version="1.1" id="Layer_1" xmlns="http://www.w3.org/2000/svg" xmlns:xlink="http://www.w3.org/1999/xlink" x="0px" y="0px"
	 width="120px" height="270px" viewBox="0 0 120 270" enable-background="new 0 0 120 270" xml:space="preserve">
<g>
	<g>
		<polygon fill="#EAEAEE" points="119.501,133.5 0.499,133.5 0.499,68.5 119.501,68.5 119.501,133.5 		"/>
		<path fill="#3E3C3C" d="M120,68v66H0V68H120 M119,69H1v64h118V69L119,69z"/>
	</g>
	<g>
		<polygon fill="#EAEAEE" points="119.5,201.5 0.499,201.5 0.499,136.499 119.5,136.499 119.5,201.5 		"/>
		<path fill="#3E3C3C" d="M120,136v66H0v-66H120 M119,137H1v64h118V137L119,137z"/>
	</g>
	<g>
		<polygon fill="#EAEAEE" points="119.5,269.5 0.499,269.5 0.499,204.499 119.5,204.499 119.5,269.5 		"/>
		<path fill="#3E3C3C" d="M120,204v66H0v-66H120 M119,205H1v64h118V205L119,205z"/>
	</g>
	<g>
		<polygon fill="#EAEAEE" points="119.501,65.5 0.499,65.5 0.499,0.499 119.501,0.499 119.501,65.5 		"/>
		<path fill="#3E3C3C" d="M120,0v66H0V0H120 M119,1H1v64h118V1L119,1z"/>
	</g>
	<g>
		<path fill="#3E3C3C" d="M62,6v4h-4V6H62 M61,7h-2v2h2V7L61,7z"/>
	</g>
	<g>
		<polygon fill="#FFFFFF" points="110.499,115.499 9.501,115.499 9.501,68.501 110.499,68.501 110.499,115.499 		"/>
		<path fill="#3E3C3C" d="M111,68v48H9V68H111 M110,69H10v46h100V69L110,69z"/>
	</g>
	<g>
		<polygon fill="#FFFFFF" points="110.499,183.498 9.501,183.498 9.501,136.501 110.499,136.501 110.499,183.498 		"/>
		<path fill="#3E3C3C" d="M111,136v48H9v-48H111 M110,137H10v46h100V137L110,137z"/>
	</g>
	<g>
		<polygon fill="#FFFFFF" points="110.5,251.499 9.5,251.499 9.5,204.501 110.5,204.501 110.5,251.499 		"/>
		<path fill="#3E3C3C" d="M111,204v48H9v-48H111 M110,205H10v46h100V205L110,205z"/>
	</g>
	<rect x="4" y="64" fill="#3E3C3C" width="1" height="6"/>
	<rect x="14" y="64" fill="#3E3C3C" width="1" height="6"/>
	<rect x="24" y="64" fill="#3E3C3C" width="1" height="6"/>
	<rect x="34" y="64" fill="#3E3C3C" width="1" height="6"/>
	<rect x="44" y="64" fill="#3E3C3C" width="1" height="6"/>
	<rect x="54" y="64" fill="#3E3C3C" width="1" height="6"/>
	<rect x="64" y="64" fill="#3E3C3C" width="1" height="6"/>
	<rect x="74" y="64" fill="#3E3C3C" width="1" height="6"/>
	<rect x="84" y="64" fill="#3E3C3C" width="1" height="6"/>
	<rect x="94" y="64" fill="#3E3C3C" width="1" height="6"/>
	<rect x="104" y="64" fill="#3E3C3C" width="1" height="6"/>
	<rect x="114" y="64" fill="#3E3C3C" width="1" height="6"/>
	<rect x="4" y="132" fill="#3E3C3C" width="1" height="6"/>
	<rect x="14" y="132" fill="#3E3C3C" width="1" height="6"/>
	<rect x="24" y="132" fill="#3E3C3C" width="1" height="6"/>
	<rect x="34" y="132" fill="#3E3C3C" width="1" height="6"/>
	<rect x="44" y="132" fill="#3E3C3C" width="1" height="6"/>
	<rect x="54" y="132" fill="#3E3C3C" width="1" height="6"/>
	<rect x="64" y="132" fill="#3E3C3C" width="1" height="6"/>
	<rect x="74" y="132" fill="#3E3C3C" width="1" height="6"/>
	<rect x="84" y="132" fill="#3E3C3C" width="1" height="6"/>
	<rect x="94" y="132" fill="#3E3C3C" width="1" height="6"/>
	<rect x="104" y="132" fill="#3E3C3C" width="1" height="6"/>
	<rect x="114" y="132" fill="#3E3C3C" width="1" height="6"/>
	<rect x="4" y="200" fill="#3E3C3C" width="1" height="6"/>
	<rect x="14" y="200" fill="#3E3C3C" width="1" height="6"/>
	<rect x="24" y="200" fill="#3E3C3C" width="1" height="6"/>
	<rect x="34" y="200" fill="#3E3C3C" width="1" height="6"/>
	<rect x="44" y="200" fill="#3E3C3C" width="1" height="6"/>
	<rect x="54" y="200" fill="#3E3C3C" width="1" height="6"/>
	<rect x="64" y="200" fill="#3E3C3C" width="1" height="6"/>
	<rect x="74" y="200" fill="#3E3C3C" width="1" height="6"/>
	<rect x="84" y="200" fill="#3E3C3C" width="1" height="6"/>
	<rect x="94" y="200" fill="#3E3C3C" width="1" height="6"/>
	<rect x="104" y="200" fill="#3E3C3C" width="1" height="6"/>
	<rect x="114" y="200" fill="#3E3C3C" width="1" height="6"/>
</g>
</svg>
