<?xml version="1.0" encoding="utf-8"?>
<!-- Generator: Adobe Illustrator 13.0.0, SVG Export Plug-In . SVG Version: 6.00 Build 14948)  -->
<!DOCTYPE svg PUBLIC "-//W3C//DTD SVG 1.1//EN" "http://www.w3.org/Graphics/SVG/1.1/DTD/svg11.dtd">
<svg version="1.1" id="Layer_1" xmlns="http://www.w3.org/2000/svg" xmlns:xlink="http://www.w3.org/1999/xlink" x="0px" y="0px"
	 width="102px" height="270px" viewBox="0 0 102 270" enable-background="new 0 0 102 270" xml:space="preserve">
<g>
	<g>
		<polygon fill="#EAEAEE" points="101.499,133.499 0.501,133.499 0.501,68.501 101.499,68.501 101.499,133.499 		"/>
		<path fill="#3E3C3C" d="M102,68v66H0V68H102 M101,69H1v64h100V69L101,69z"/>
	</g>
	<g>
		<polygon fill="#EAEAEE" points="101.501,201.5 0.5,201.5 0.5,136.499 101.501,136.499 101.501,201.5 		"/>
		<path fill="#3E3C3C" d="M102,136v66H0v-66H102 M101,137H1v64h100V137L101,137z"/>
	</g>
	<g>
		<polygon fill="#EAEAEE" points="101.5,269.5 0.499,269.5 0.499,204.499 101.5,204.499 101.5,269.5 		"/>
		<path fill="#3E3C3C" d="M102,204v66H0v-66H102 M101,205H1v64h100V205L101,205z"/>
	</g>
	<g>
		<polygon fill="#EAEAEE" points="101.499,65.5 0.501,65.5 0.501,0.5 101.499,0.5 101.499,65.5 		"/>
		<path fill="#3E3C3C" d="M102,0v66H0V0H102 M101,1H1v64h100V1L101,1z"/>
	</g>
	<g>
		<path fill="#3E3C3C" d="M53,6v4h-4V6H53 M52,7h-2v2h2V7L52,7z"/>
	</g>
	<g>
		<polygon fill="#FFFFFF" points="101.499,115.499 0.501,115.499 0.501,68.501 101.499,68.501 101.499,115.499 		"/>
		<path fill="#3E3C3C" d="M102,68v48H0V68H102 M101,69H1v46h100V69L101,69z"/>
	</g>
	<g>
		<polygon fill="#FFFFFF" points="101.499,183.498 0.501,183.498 0.501,136.501 101.499,136.501 101.499,183.498 		"/>
		<path fill="#3E3C3C" d="M102,136v48H0v-48H102 M101,137H1v46h100V137L101,137z"/>
	</g>
	<g>
		<polygon fill="#FFFFFF" points="101.5,251.499 0.5,251.499 0.5,204.501 101.5,204.501 101.5,251.499 		"/>
		<path fill="#3E3C3C" d="M102,204v48H0v-48H102 M101,205H1v46h100V205L101,205z"/>
	</g>
	<rect x="5" y="64" fill="#3E3C3C" width="1" height="6"/>
	<rect x="15" y="64" fill="#3E3C3C" width="1" height="6"/>
	<rect x="25" y="64" fill="#3E3C3C" width="1" height="6"/>
	<rect x="35" y="64" fill="#3E3C3C" width="1" height="6"/>
	<rect x="45" y="64" fill="#3E3C3C" width="1" height="6"/>
	<rect x="55" y="64" fill="#3E3C3C" width="1" height="6"/>
	<rect x="65" y="64" fill="#3E3C3C" width="1" height="6"/>
	<rect x="75" y="64" fill="#3E3C3C" width="1" height="6"/>
	<rect x="85" y="64" fill="#3E3C3C" width="1" height="6"/>
	<rect x="95" y="64" fill="#3E3C3C" width="1" height="6"/>
	<rect x="5" y="132" fill="#3E3C3C" width="1" height="6"/>
	<rect x="15" y="132" fill="#3E3C3C" width="1" height="6"/>
	<rect x="25" y="132" fill="#3E3C3C" width="1" height="6"/>
	<rect x="35" y="132" fill="#3E3C3C" width="1" height="6"/>
	<rect x="45" y="132" fill="#3E3C3C" width="1" height="6"/>
	<rect x="55" y="132" fill="#3E3C3C" width="1" height="6"/>
	<rect x="65" y="132" fill="#3E3C3C" width="1" height="6"/>
	<rect x="75" y="132" fill="#3E3C3C" width="1" height="6"/>
	<rect x="85" y="132" fill="#3E3C3C" width="1" height="6"/>
	<rect x="95" y="132" fill="#3E3C3C" width="1" height="6"/>
	<rect x="5" y="200" fill="#3E3C3C" width="1" height="6"/>
	<rect x="15" y="200" fill="#3E3C3C" width="1" height="6"/>
	<rect x="25" y="200" fill="#3E3C3C" width="1" height="6"/>
	<rect x="35" y="200" fill="#3E3C3C" width="1" height="6"/>
	<rect x="45" y="200" fill="#3E3C3C" width="1" height="6"/>
	<rect x="55" y="200" fill="#3E3C3C" width="1" height="6"/>
	<rect x="65" y="200" fill="#3E3C3C" width="1" height="6"/>
	<rect x="75" y="200" fill="#3E3C3C" width="1" height="6"/>
	<rect x="85" y="200" fill="#3E3C3C" width="1" height="6"/>
	<rect x="95" y="200" fill="#3E3C3C" width="1" height="6"/>
</g>
</svg>
