<?xml version="1.0" encoding="utf-8"?>
<!-- Generator: Adobe Illustrator 13.0.0, SVG Export Plug-In . SVG Version: 6.00 Build 14948)  -->
<!DOCTYPE svg PUBLIC "-//W3C//DTD SVG 1.1//EN" "http://www.w3.org/Graphics/SVG/1.1/DTD/svg11.dtd">
<svg version="1.1" id="Layer_1" xmlns="http://www.w3.org/2000/svg" xmlns:xlink="http://www.w3.org/1999/xlink" x="0px" y="0px"
	 width="140.054px" height="80px" viewBox="0 0 140.054 80" enable-background="new 0 0 140.054 80" xml:space="preserve">
<g>
	<polygon fill="#EAEAEE" points="98,79 118,67 140.054,79 	"/>
	<g>
		<polygon fill="#EAEAEE" points="98.176,78.604 97.244,73.949 97.25,0.25 119.859,0.25 139.669,78.507 118.12,66.781 
			117.993,66.713 117.871,66.787 98.176,78.604 		"/>
		<g>
			<path fill="#3E3C3C" d="M120.054,0l20,79L118,67L98,79l-1-5V0H120.054 M119.665,0.5H97.5v73.45l0.852,4.256l19.392-11.635
				l0.245-0.147l0.251,0.137l21.05,11.454L119.665,0.5L119.665,0.5z"/>
		</g>
	</g>
	<polygon fill="#3E3C3C" points="99.859,67 119.05,67 117.25,66 100.062,66 	"/>
	<g>
		<polygon fill="#FFFFFF" points="97.545,79.749 0.326,79.749 22.322,0.25 119.54,0.25 97.545,79.749 		"/>
		<g>
			<path fill="#3E3C3C" d="M119.867,0L97.734,80H0L22.133,0H119.867 M119.209,0.5H22.513l-21.856,79h96.696L119.209,0.5L119.209,0.5
				z"/>
		</g>
	</g>
	<polygon fill="#3E3C3C" points="119.5,1 22.133,1 22.133,0 119.867,0 	"/>
	<rect y="79" fill="#3E3C3C" width="140" height="1"/>
</g>
</svg>
