<?xml version="1.0" encoding="utf-8"?>
<!-- Generator: Adobe Illustrator 13.0.0, SVG Export Plug-In . SVG Version: 6.00 Build 14948)  -->
<!DOCTYPE svg PUBLIC "-//W3C//DTD SVG 1.1//EN" "http://www.w3.org/Graphics/SVG/1.1/DTD/svg11.dtd">
<svg version="1.1" id="Layer_1" xmlns="http://www.w3.org/2000/svg" xmlns:xlink="http://www.w3.org/1999/xlink" x="0px" y="0px"
	 width="120.054px" height="120px" viewBox="0 0 120.054 120" enable-background="new 0 0 120.054 120" xml:space="preserve">
<g>
	<polygon fill="#EAEAEE" points="78,119 98,107 120.054,119 	"/>
	<g>
		<polygon fill="#EAEAEE" points="78.172,118.604 77.243,113.949 77.25,0.251 99.844,0.251 119.723,118.535 98.119,106.779 
			97.993,106.711 97.871,106.784 78.172,118.604 		"/>
		<g>
			<path fill="#3E3C3C" d="M100.054,0l20,119L98,107l-20,12l-1-5V0H100.054 M99.631,0.5H77.5v113.45l0.852,4.256l19.392-11.635
				l0.245-0.147l0.251,0.137l21.152,11.51L99.631,0.5L99.631,0.5z"/>
		</g>
	</g>
	<polygon fill="#3E3C3C" points="79.859,107 99.05,107 97.25,106 80.062,106 	"/>
	<g>
		<polygon fill="#FFFFFF" points="77.524,119.75 0.3,119.75 22.342,0.25 99.566,0.25 77.524,119.75 		"/>
		<g>
			<path fill="#3E3C3C" d="M99.867,0L77.734,120H0L22.133,0H99.867 M99.266,0.5H22.549l-21.948,119h76.717L99.266,0.5L99.266,0.5z"
				/>
		</g>
	</g>
	<polygon fill="#3E3C3C" points="99.5,1 22.133,1 22.133,0 99.867,0 	"/>
	<rect y="119" fill="#3E3C3C" width="120" height="1"/>
</g>
</svg>
