<?xml version="1.0" encoding="utf-8"?>
<!-- Generator: Adobe Illustrator 13.0.0, SVG Export Plug-In . SVG Version: 6.00 Build 14948)  -->
<!DOCTYPE svg PUBLIC "-//W3C//DTD SVG 1.1//EN" "http://www.w3.org/Graphics/SVG/1.1/DTD/svg11.dtd">
<svg version="1.1" id="Layer_1" xmlns="http://www.w3.org/2000/svg" xmlns:xlink="http://www.w3.org/1999/xlink" x="0px" y="0px"
	 width="105px" height="73px" viewBox="0 0 105 73" enable-background="new 0 0 105 73" xml:space="preserve">
<g>
	<g>
		<polygon fill="#EAEAEE" points="102,0 102,72 0,72 0,73 105,73 105,0 		"/>
	</g>
	<rect x="1" y="1" fill="#EAEAEE" stroke="#15242A" stroke-width="2" width="100" height="70"/>
	<rect x="13" y="7" fill="#15242A" width="2" height="2"/>
	<rect x="17" y="7" fill="#15242A" width="2" height="2"/>
	<rect x="21" y="7" fill="#15242A" width="2" height="2"/>
	<rect x="13" y="23" fill="#15242A" width="2" height="2"/>
	<rect x="17" y="23" fill="#15242A" width="2" height="2"/>
	<rect x="21" y="23" fill="#15242A" width="2" height="2"/>
	<rect x="9" y="23" fill="#15242A" width="2" height="2"/>
	<rect x="25" y="23" fill="#15242A" width="2" height="2"/>
	<rect x="25" y="11" fill="#15242A" width="2" height="2"/>
	<rect x="25" y="7" fill="#15242A" width="2" height="2"/>
	<rect x="25" y="15" fill="#15242A" width="2" height="2"/>
	<rect x="25" y="19" fill="#15242A" width="2" height="2"/>
	<rect x="9" y="11" fill="#15242A" width="2" height="2"/>
	<rect x="9" y="7" fill="#15242A" width="2" height="2"/>
	<g>
		<rect x="53" y="7" fill="#FFFFFF" width="18" height="18"/>
		<path fill="#15242A" d="M69,7v1h2h-1v2h1V7H69L69,7z M68,7h-2v1h2V7L68,7z M65,7h-2v1h2V7L65,7z M62,7h-2v1h2V7L62,7z M59,7h-2v1
			h2V7L59,7z M56,7h-3v2h1V8h2V7L56,7z M54,10h-1v2h1V10L54,10z M54,13h-1v2h1V13L54,13z M54,16h-1v2h1V16L54,16z M54,19h-1v2h1V19
			L54,19z M54,22h-1v2l0,0v1h2v-1h-1V22L54,22z M58,24h-2v1h2V24L58,24z M61,24h-2v1h2V24L61,24z M64,24h-2v1h2V24L64,24z M67,24h-2
			v1h2V24L67,24z M70,24h-2v1h2V24L70,24z M71,23h-1v2h1V23L71,23L71,23z M71,20h-1v2h1V20L71,20z M71,17h-1v2h1V17L71,17z M71,14
			h-1v2h1V14L71,14z M71,11h-1v2h1V11L71,11z"/>
	</g>
	<g>
		<rect x="75" y="7" fill="#FFFFFF" width="18" height="18"/>
		<path fill="#15242A" d="M93,7h-2v1h1v2h1V7L93,7z M90,7h-2v1h2V7L90,7z M87,7h-2v1h2V7L87,7z M84,7h-2v1h2V7L84,7z M81,7h-2v1h2V7
			L81,7z M78,7h-3v2h1V8h2V7L78,7z M76,10h-1v2h1V10L76,10z M76,13h-1v2h1V13L76,13z M76,16h-1v2h1V16L76,16z M76,19h-1v2h1V19
			L76,19z M76,22h-1v2l0,0v1h2v-1h-1V22L76,22z M80,24h-2v1h2V24L80,24z M83,24h-2v1h2V24L83,24z M86,24h-2v1h2V24L86,24z M89,24h-2
			v1h2V24L89,24z M93,23h-1v1h-2v1h2l0,0h1V23L93,23z M93,20h-1v2h1V20L93,20z M93,17h-1v2h1V17L93,17z M93,14h-1v2h1V14L93,14z
			 M93,11h-1v2h1V11L93,11z"/>
	</g>
	<g>
		<rect x="53" y="27" fill="#FFFFFF" width="18" height="18"/>
		<path fill="#15242A" d="M71,27h-2v1h1v2h1V27L71,27z M68,27h-2v1h2V27L68,27z M65,27h-2v1h2V27L65,27z M62,27h-2v1h2V27L62,27z
			 M59,27h-2v1h2V27L59,27z M56,27h-3v2h1v-1h2V27L56,27z M54,30h-1v2h1V30L54,30z M54,33h-1v2h1V33L54,33z M54,36h-1v2h1V36L54,36z
			 M54,39h-1v2h1V39L54,39z M54,42h-1v2l0,0v1h2v-1h-1V42L54,42z M58,44h-2v1h2V44L58,44z M61,44h-2v1h2V44L61,44z M64,44h-2v1h2V44
			L64,44z M67,44h-2v1h2V44L67,44z M70,44h-2v1h2V44L70,44z M71,43h-1v2h1V43L71,43z M71,40h-1v2h1V40L71,40z M71,37h-1v2h1V37
			L71,37z M71,34h-1v2h1V34L71,34z M71,31h-1v2h1V31L71,31z"/>
	</g>
	<g>
		<rect x="75" y="27" fill="#FFFFFF" width="18" height="18"/>
		<path fill="#15242A" d="M93,27h-2v1h1v2h1V27L93,27z M90,27h-2v1h2V27L90,27z M87,27h-2v1h2V27L87,27z M84,27h-2v1h2V27L84,27z
			 M81,27h-2v1h2V27L81,27z M78,27h-3v2h1v-1h2V27L78,27z M76,30h-1v2h1V30L76,30z M76,33h-1v2h1V33L76,33z M76,36h-1v2h1V36L76,36z
			 M76,39h-1v2h1V39L76,39z M76,42h-1v2l0,0v1h2v-1h-1V42L76,42z M80,44h-2v1h2V44L80,44z M83,44h-2v1h2V44L83,44z M86,44h-2v1h2V44
			L86,44z M89,44h-2v1h2V44L89,44z M93,43h-1v1h-2v1h2l0,0h1V43L93,43z M93,40h-1v2h1V40L93,40z M93,37h-1v2h1V37L93,37z M93,34h-1
			v2h1V34L93,34z M93,31h-1v2h1V31L93,31z"/>
	</g>
	<g>
		<rect x="9" y="27" fill="#FFFFFF" width="18" height="18"/>
		<path fill="#15242A" d="M27,27h-2v1h1v2h1V27L27,27z M24,27h-2v1h2V27L24,27z M21,27h-2v1h2V27L21,27z M18,27h-2v1h2V27L18,27z
			 M15,27h-2v1h2V27L15,27z M12,27H9v2h1v-1h2V27L12,27z M10,30H9v2h1V30L10,30z M10,33H9v2h1V33L10,33z M10,36H9v2h1V36L10,36z
			 M10,39H9v2h1V39L10,39z M10,42H9v2l0,0v1h2v-1h-1V42L10,42z M14,44h-2v1h2V44L14,44z M17,44h-2v1h2V44L17,44z M20,44h-2v1h2V44
			L20,44z M23,44h-2v1h2V44L23,44z M27,43h-1v1h-2v1h2l0,0h1V43L27,43z M27,40h-1v2h1V40L27,40z M27,37h-1v2h1V37L27,37z M27,34h-1
			v2h1V34L27,34z M27,31h-1v2h1V31L27,31z"/>
	</g>
	<g>
		<rect x="31" y="27" fill="#FFFFFF" width="18" height="18"/>
		<path fill="#15242A" d="M49,27h-2v1h1v2h1V27L49,27z M46,27h-2v1h2V27L46,27z M43,27h-2v1h2V27L43,27z M40,27h-2v1h2V27L40,27z
			 M37,27h-2v1h2V27L37,27z M34,27h-3v2h1v-1h2V27L34,27z M32,30h-1v2h1V30L32,30z M32,33h-1v2h1V33L32,33z M32,36h-1v2h1V36L32,36z
			 M32,39h-1v2h1V39L32,39z M32,42h-1v2l0,0v1h2v-1h-1V42L32,42z M36,44h-2v1h2V44L36,44z M39,44h-2v1h2V44L39,44z M42,44h-2v1h2V44
			L42,44z M45,44h-2v1h2V44L45,44z M49,43h-1v1h-2v1h2l0,0h1V43L49,43z M49,40h-1v2h1V40L49,40z M49,37h-1v2h1V37L49,37z M49,34h-1
			v2h1V34L49,34z M49,31h-1v2h1V31L49,31z"/>
	</g>
	<g>
		<rect x="53" y="47" fill="#FFFFFF" width="18" height="18"/>
		<path fill="#15242A" d="M71,47h-2v1h1v2h1V47L71,47z M68,47h-2v1h2V47L68,47z M65,47h-2v1h2V47L65,47z M62,47h-2v1h2V47L62,47z
			 M59,47h-2v1h2V47L59,47z M56,47h-3v2h1v-1h2V47L56,47z M54,50h-1v2h1V50L54,50z M54,53h-1v2h1V53L54,53z M54,56h-1v2h1V56L54,56z
			 M54,59h-1v2h1V59L54,59z M54,62h-1v2l0,0v1h2v-1h-1V62L54,62z M58,64h-2v1h2V64L58,64z M61,64h-2v1h2V64L61,64z M64,64h-2v1h2V64
			L64,64z M67,64h-2v1h2V64L67,64z M70,64h-2v1h2V64L70,64z M71,63h-1v2h1V63L71,63z M71,60h-1v2h1V60L71,60z M71,57h-1v2h1V57
			L71,57z M71,54h-1v2h1V54L71,54z M71,51h-1v2h1V51L71,51z"/>
	</g>
	<g>
		<rect x="75" y="47" fill="#FFFFFF" width="18" height="18"/>
		<path fill="#15242A" d="M93,47h-2v1h1v2h1V47L93,47z M90,47h-2v1h2V47L90,47z M87,47h-2v1h2V47L87,47z M84,47h-2v1h2V47L84,47z
			 M81,47h-2v1h2V47L81,47z M78,47h-3v2h1v-1h2V47L78,47z M76,50h-1v2h1V50L76,50z M76,53h-1v2h1V53L76,53z M76,56h-1v2h1V56L76,56z
			 M76,59h-1v2h1V59L76,59z M76,62h-1v2l0,0v1h2v-1h-1V62L76,62z M80,64h-2v1h2V64L80,64z M83,64h-2v1h2V64L83,64z M86,64h-2v1h2V64
			L86,64z M89,64h-2v1h2V64L89,64z M93,63h-1v1h-2v1h2l0,0h1V63L93,63z M93,60h-1v2h1V60L93,60z M93,57h-1v2h1V57L93,57z M93,54h-1
			v2h1V54L93,54z M93,51h-1v2h1V51L93,51z"/>
	</g>
	<g>
		<rect x="9" y="47" fill="#FFFFFF" width="18" height="18"/>
		<path fill="#15242A" d="M25,47v1h2h-1v2h1v-2l0,0v-1l0,0H25L25,47z M24,47h-2v1h2V47L24,47z M21,47h-2v1h2V47L21,47z M18,47h-2v1
			h2V47L18,47z M15,47h-2v1h2V47L15,47z M12,47H9v2h1v-1h2V47L12,47z M10,50H9v2h1V50L10,50z M10,53H9v2h1V53L10,53z M10,56H9v2h1
			V56L10,56z M10,59H9v2h1V59L10,59z M10,62H9v2l0,0v1h2v-1H9h1V62L10,62z M14,64h-2v1h2V64L14,64z M17,64h-2v1h2V64L17,64z M20,64
			h-2v1h2V64L20,64z M23,64h-2v1h2V64L23,64z M26,64h-2v1h2V64L26,64z M26,63v2h1v-2l0,0H26L26,63z M27,60h-1v2h1V60L27,60z M27,57
			h-1v2h1V57L27,57z M27,54h-1v2h1V54L27,54z M27,51h-1v2h1V51L27,51z"/>
	</g>
	<g>
		<rect x="31" y="47" fill="#FFFFFF" width="18" height="18"/>
		<path fill="#15242A" d="M49,47h-2v1h1v2h1V47L49,47z M46,47h-2v1h2V47L46,47z M43,47h-2v1h2V47L43,47z M40,47h-2v1h2V47L40,47z
			 M37,47h-2v1h2V47L37,47z M34,47h-3v2h1v-1h2V47L34,47z M32,50h-1v2h1V50L32,50z M32,53h-1v2h1V53L32,53z M32,56h-1v2h1V56L32,56z
			 M32,59h-1v2h1V59L32,59z M32,62h-1v2l0,0v1h2v-1h-1V62L32,62z M36,64h-2v1h2V64L36,64z M39,64h-2v1h2V64L39,64z M42,64h-2v1h2V64
			L42,64z M45,64h-2v1h2V64L45,64z M48,64h-2v1h2V64L48,64z M49,63h-1v2h1V63L49,63z M49,60h-1v2h1V60L49,60z M49,57h-1v2h1V57
			L49,57z M49,54h-1v2h1V54L49,54z M49,51h-1v2h1V51L49,51z"/>
	</g>
	<rect x="9" y="15" fill="#15242A" width="2" height="2"/>
	<rect x="9" y="19" fill="#15242A" width="2" height="2"/>
	<path fill="#15242A" d="M81,14h6v-1h-6V14z M81,19h6v-1h-6V19z"/>
	<g>
		<path fill="#15242A" d="M66,12v8h-8v-8H66 M65,13h-6v6h6V13L65,13z"/>
	</g>
	<path fill="#15242A" d="M37,34h6v-1h-6V34z M37,39h6v-1h-6V39z"/>
	<path fill="#15242A" d="M59,34h6v-1h-6V34z M59,39h6v-1h-6V39z"/>
	<path fill="#15242A" d="M81,34h6v-1h-6V34z M81,39h6v-1h-6V39z"/>
	<path fill="#15242A" d="M37,54h6v-1h-6V54z M37,59h6v-1h-6V59z"/>
	<path fill="#15242A" d="M15,34h6v-1h-6V34z M15,39h6v-1h-6V39z"/>
	<path fill="#15242A" d="M15,54h6v-1h-6V54z M15,59h6v-1h-6V59z"/>
	<path fill="#15242A" d="M59,54h6v-1h-6V54z M59,59h6v-1h-6V59z"/>
	<path fill="#15242A" d="M81,54h6v-1h-6V54z M81,59h6v-1h-6V59z"/>
	<g>
		<polygon fill="#FFFFFF" points="25.999,24 10.001,24 10.001,8 25.999,8 25.999,24 		"/>
		<path fill="#15242A" d="M27,7v18H9V7H27 M25,9H11v14h14V9L25,9z"/>
	</g>
	<g opacity="0.5">
		<polygon fill="#B0B0B0" points="14,12 25,12 25,9 11,9 11,23 14,23 		"/>
	</g>
	<g>
		<polygon fill="#FFFFFF" points="48,24 32,24 32,7.999 48,7.999 48,24 		"/>
		<path fill="#15242A" d="M49,7v18H31V7H49 M47,9H33v14h14V9L47,9z"/>
	</g>
	<g opacity="0.5">
		<polygon fill="#B0B0B0" points="36,12 47,12 47,9 33,9 33,23 36,23 		"/>
	</g>
</g>
</svg>
