<?xml version="1.0" encoding="utf-8"?>
<!-- Generator: Adobe Illustrator 13.0.0, SVG Export Plug-In . SVG Version: 6.00 Build 14948)  -->
<!DOCTYPE svg PUBLIC "-//W3C//DTD SVG 1.1//EN" "http://www.w3.org/Graphics/SVG/1.1/DTD/svg11.dtd">
<svg version="1.1" id="Layer_1" xmlns="http://www.w3.org/2000/svg" xmlns:xlink="http://www.w3.org/1999/xlink" x="0px" y="0px"
	 width="110px" height="61px" viewBox="0 0 110 61" enable-background="new 0 0 110 61" xml:space="preserve">
<g>
	<g>
		<polygon fill="#EAEAEE" points="90,0 106,60 0,60 0,61 110,61 94,0 		"/>
	</g>
	<g>
		<polygon fill="#EAEAEE" points="104.698,59.001 88.999,59.001 73.999,59.001 69.999,59.001 69.999,0.999 89.233,0.999 
			104.698,59.001 		"/>
		<path fill="#15242A" d="M90,0l16,60H89H74h-5V0H90 M88.464,2H71v56h3h15h14.396L88.464,2L88.464,2z"/>
	</g>
	<g>
		<polygon fill="#EAEAEE" points="73.232,58.999 1.302,58.999 16.768,1 88.698,1 73.232,58.999 		"/>
		<path fill="#15242A" d="M90,0L74,60H0L16,0H90 M87.396,2h-69.86L2.603,58h69.861L87.396,2L87.396,2z"/>
	</g>
	<polyline opacity="0.5" fill="#B0B0B0" points="89,58 89,4.012 88.998,4.006 87.32,10.046 74.523,57.961 	"/>
	<g>
		<polygon fill="#FFFFFF" points="42.615,55.5 5.647,55.5 19.384,3.499 56.353,3.499 42.615,55.5 		"/>
		<path fill="#15242A" d="M57,3L43,56H5L19,3H57 M55.702,4H19.77L6.298,55H42.23L55.702,4L55.702,4z"/>
	</g>
	<path fill="#15242A" d="M60,8h10V7H60V8z M72,7v1h10V7H72z M67,23h10v-1H67V23z M55,23h10v-1H55V23z M57,18h10v-1H57V18z M71,13h10
		v-1H71V13z M59,13h10v-1H59V13z M69,18h10v-1H69V18z"/>
</g>
</svg>
