<?xml version="1.0" encoding="utf-8"?>
<!-- Generator: Adobe Illustrator 13.0.0, SVG Export Plug-In . SVG Version: 6.00 Build 14948)  -->
<!DOCTYPE svg PUBLIC "-//W3C//DTD SVG 1.1//EN" "http://www.w3.org/Graphics/SVG/1.1/DTD/svg11.dtd">
<svg version="1.1" id="Layer_1" xmlns="http://www.w3.org/2000/svg" xmlns:xlink="http://www.w3.org/1999/xlink" x="0px" y="0px"
	 width="77px" height="160px" viewBox="0 0 77 160" enable-background="new 0 0 77 160" xml:space="preserve">
<g>
	<g>
		<polygon fill="#EAEAEE" points="72.999,43 1,43 1,1 72.999,1 72.999,43 		"/>
		<path fill="#15242A" d="M74,0v44H0V0H74 M72,2H2v40h70V2L72,2z"/>
	</g>
	<g>
		<path fill="#15242A" d="M74,46v32H0V46H74 M72,48H2v28h70V48L72,48z"/>
	</g>
	<g>
		<path fill="#15242A" d="M74,80v32H0V80H74 M72,82H2v28h70V82L72,82z"/>
	</g>
	<g>
		<polygon fill="#EAEAEE" points="74,0 74,44 0,44 0,45 77,45 77,0 		"/>
	</g>
	<g>
		<polygon fill="#EAEAEE" points="74,114 74,159 0,159 0,160 77,160 77,114 		"/>
	</g>
	<g>
		<polygon fill="#EAEAEE" points="74,80 74,112 0,112 0,113 77,113 77,80 		"/>
	</g>
	<g>
		<polygon fill="#EAEAEE" points="74,46 74,78 0,78 0,79 77,79 77,46 		"/>
	</g>
	<g>
		<polygon fill="#EAEAEE" points="72.998,157.998 1.001,157.998 1.001,115.002 72.998,115.002 72.998,157.998 		"/>
		<path fill="#15242A" d="M74,114v45H0v-45H74 M72,116H2v41h70V116L72,116z"/>
	</g>
	<g>
		<polygon fill="#FFFFFF" points="72.501,146.5 1.5,146.5 1.5,115.501 72.501,115.501 72.501,146.5 		"/>
		<path fill="#15242A" d="M73,115v32H1v-32H73 M72,116H2v30h70V116L72,116z"/>
	</g>
	<rect x="16" y="41" fill="#15242A" width="2" height="8"/>
	<rect x="16" y="38" fill="#15242A" width="2" height="2"/>
	<rect x="16" y="50" fill="#15242A" width="2" height="2"/>
	<rect x="6" y="41" fill="#15242A" width="2" height="8"/>
	<rect x="6" y="38" fill="#15242A" width="2" height="2"/>
	<rect x="6" y="50" fill="#15242A" width="2" height="2"/>
	<rect x="26" y="41" fill="#15242A" width="2" height="8"/>
	<rect x="26" y="38" fill="#15242A" width="2" height="2"/>
	<rect x="26" y="50" fill="#15242A" width="2" height="2"/>
	<rect x="36" y="41" fill="#15242A" width="2" height="8"/>
	<rect x="36" y="38" fill="#15242A" width="2" height="2"/>
	<rect x="36" y="50" fill="#15242A" width="2" height="2"/>
	<rect x="46" y="41" fill="#15242A" width="2" height="8"/>
	<rect x="46" y="38" fill="#15242A" width="2" height="2"/>
	<rect x="46" y="50" fill="#15242A" width="2" height="2"/>
	<rect x="56" y="41" fill="#15242A" width="2" height="8"/>
	<rect x="56" y="38" fill="#15242A" width="2" height="2"/>
	<rect x="56" y="50" fill="#15242A" width="2" height="2"/>
	<rect x="66" y="41" fill="#15242A" width="2" height="8"/>
	<rect x="66" y="38" fill="#15242A" width="2" height="2"/>
	<rect x="66" y="50" fill="#15242A" width="2" height="2"/>
	<rect x="35" y="4" fill="#15242A" width="4" height="2"/>
	<path fill="#15242A" d="M6,68h10v-1H6V68z M6,63h10v-1H6V63z M6,58h10v-1H6V58z M18,63h10v-1H18V63z M18,57v1h10v-1H18z M18,68h10
		v-1H18V68z"/>
	<path fill="#15242A" d="M46,68h10v-1H46V68z M46,63h10v-1H46V63z M46,58h10v-1H46V58z M58,63h10v-1H58V63z M58,57v1h10v-1H58z
		 M58,68h10v-1H58V68z"/>
	<rect x="16" y="75" fill="#15242A" width="2" height="8"/>
	<rect x="16" y="72" fill="#15242A" width="2" height="2"/>
	<rect x="16" y="84" fill="#15242A" width="2" height="2"/>
	<rect x="6" y="75" fill="#15242A" width="2" height="8"/>
	<rect x="6" y="72" fill="#15242A" width="2" height="2"/>
	<rect x="6" y="84" fill="#15242A" width="2" height="2"/>
	<rect x="26" y="75" fill="#15242A" width="2" height="8"/>
	<rect x="26" y="72" fill="#15242A" width="2" height="2"/>
	<rect x="26" y="84" fill="#15242A" width="2" height="2"/>
	<rect x="36" y="75" fill="#15242A" width="2" height="8"/>
	<rect x="36" y="72" fill="#15242A" width="2" height="2"/>
	<rect x="36" y="84" fill="#15242A" width="2" height="2"/>
	<rect x="46" y="75" fill="#15242A" width="2" height="8"/>
	<rect x="46" y="72" fill="#15242A" width="2" height="2"/>
	<rect x="46" y="84" fill="#15242A" width="2" height="2"/>
	<rect x="56" y="75" fill="#15242A" width="2" height="8"/>
	<rect x="56" y="72" fill="#15242A" width="2" height="2"/>
	<rect x="56" y="84" fill="#15242A" width="2" height="2"/>
	<rect x="66" y="75" fill="#15242A" width="2" height="8"/>
	<rect x="66" y="72" fill="#15242A" width="2" height="2"/>
	<rect x="66" y="84" fill="#15242A" width="2" height="2"/>
	<path fill="#15242A" d="M6,102h10v-1H6V102z M6,97h10v-1H6V97z M6,92h10v-1H6V92z M18,97h10v-1H18V97z M18,91v1h10v-1H18z M18,102
		h10v-1H18V102z"/>
	<path fill="#15242A" d="M46,102h10v-1H46V102z M46,97h10v-1H46V97z M46,92h10v-1H46V92z M58,97h10v-1H58V97z M58,91v1h10v-1H58z
		 M58,102h10v-1H58V102z"/>
	<rect x="16" y="109" fill="#15242A" width="2" height="8"/>
	<rect x="16" y="106" fill="#15242A" width="2" height="2"/>
	<rect x="16" y="118" fill="#15242A" width="2" height="2"/>
	<rect x="6" y="109" fill="#15242A" width="2" height="8"/>
	<rect x="6" y="106" fill="#15242A" width="2" height="2"/>
	<rect x="6" y="118" fill="#15242A" width="2" height="2"/>
	<rect x="26" y="109" fill="#15242A" width="2" height="8"/>
	<rect x="26" y="106" fill="#15242A" width="2" height="2"/>
	<rect x="26" y="118" fill="#15242A" width="2" height="2"/>
	<rect x="36" y="109" fill="#15242A" width="2" height="8"/>
	<rect x="36" y="106" fill="#15242A" width="2" height="2"/>
	<rect x="36" y="118" fill="#15242A" width="2" height="2"/>
	<rect x="46" y="109" fill="#15242A" width="2" height="8"/>
	<rect x="46" y="106" fill="#15242A" width="2" height="2"/>
	<rect x="46" y="118" fill="#15242A" width="2" height="2"/>
	<rect x="56" y="109" fill="#15242A" width="2" height="8"/>
	<rect x="56" y="106" fill="#15242A" width="2" height="2"/>
	<rect x="56" y="118" fill="#15242A" width="2" height="2"/>
	<rect x="66" y="109" fill="#15242A" width="2" height="8"/>
	<rect x="66" y="106" fill="#15242A" width="2" height="2"/>
	<rect x="66" y="118" fill="#15242A" width="2" height="2"/>
	<path fill="#15242A" d="M6,138h10v-1H6V138z M6,133h10v-1H6V133z M6,128h10v-1H6V128z M18,133h10v-1H18V133z M18,127v1h10v-1H18z
		 M18,138h10v-1H18V138z"/>
	<path fill="#15242A" d="M46,138h10v-1H46V138z M46,133h10v-1H46V133z M46,128h10v-1H46V128z M58,133h10v-1H58V133z M58,127v1h10v-1
		H58z M58,138h10v-1H58V138z"/>
</g>
</svg>
