<?xml version="1.0" encoding="utf-8"?>
<!-- Generator: Adobe Illustrator 13.0.0, SVG Export Plug-In . SVG Version: 6.00 Build 14948)  -->
<!DOCTYPE svg PUBLIC "-//W3C//DTD SVG 1.1//EN" "http://www.w3.org/Graphics/SVG/1.1/DTD/svg11.dtd">
<svg version="1.1" id="Layer_1" xmlns="http://www.w3.org/2000/svg" xmlns:xlink="http://www.w3.org/1999/xlink" x="0px" y="0px"
	 width="140px" height="167px" viewBox="0 0 140 167" enable-background="new 0 0 140 167" xml:space="preserve">
<g>
	<g>
		<polygon fill="#EAEAEE" points="139.5,166.5 0.5,166.5 0.5,7.5 66.5,7.5 66.5,10 66.5,10.501 67,10.501 73,10.501 73.5,10.501 
			73.5,10 73.5,7.5 139.5,7.5 139.5,166.5 		"/>
		<g>
			<path fill="#3E3C3C" d="M140,7v160H0V7h67v3h6V7H140 M139,8H74v2v1h-1h-6h-1v-1V8H1v158h138V8L139,8z"/>
		</g>
	</g>
	<g>
		<polygon fill="#FFFFFF" points="139.5,148.5 0.499,148.5 0.499,101.5 139.5,101.5 139.5,148.5 		"/>
		<path fill="#3E3C3C" d="M140,101v48H0v-48H140 M139,102H1v46h138V102L139,102z"/>
	</g>
	<g>
		<polygon fill="#FFFFFF" points="139.5,94.499 0.499,94.499 0.499,21.5 139.5,21.5 139.5,94.499 		"/>
		<path fill="#3E3C3C" d="M140,21v74H0V21H140 M139,22H1v72h138V22L139,22z"/>
	</g>
	<polygon fill="#3E3C3C" points="74,4 74,0 66,0 66,4 0,4 0,5 67,5 67,1 73,1 73,5 140,5 140,4 	"/>
	<rect x="3" y="3" fill="#3E3C3C" width="1" height="6"/>
	<rect x="13" y="3" fill="#3E3C3C" width="1" height="6"/>
	<rect x="23" y="3" fill="#3E3C3C" width="1" height="6"/>
	<rect x="33" y="3" fill="#3E3C3C" width="1" height="6"/>
	<rect x="43" y="3" fill="#3E3C3C" width="1" height="6"/>
	<rect x="53" y="3" fill="#3E3C3C" width="1" height="6"/>
	<rect x="63" y="3" fill="#3E3C3C" width="1" height="6"/>
	<rect x="76" y="3" fill="#3E3C3C" width="1" height="6"/>
	<rect x="86" y="3" fill="#3E3C3C" width="1" height="6"/>
	<rect x="96" y="3" fill="#3E3C3C" width="1" height="6"/>
	<rect x="106" y="3" fill="#3E3C3C" width="1" height="6"/>
	<rect x="116" y="3" fill="#3E3C3C" width="1" height="6"/>
	<rect x="126" y="3" fill="#3E3C3C" width="1" height="6"/>
	<rect x="136" y="3" fill="#3E3C3C" width="1" height="6"/>
</g>
</svg>
