<?xml version="1.0" encoding="utf-8"?>
<!-- Generator: Adobe Illustrator 13.0.0, SVG Export Plug-In . SVG Version: 6.00 Build 14948)  -->
<!DOCTYPE svg PUBLIC "-//W3C//DTD SVG 1.1//EN" "http://www.w3.org/Graphics/SVG/1.1/DTD/svg11.dtd">
<svg version="1.1" id="Layer_1" xmlns="http://www.w3.org/2000/svg" xmlns:xlink="http://www.w3.org/1999/xlink" x="0px" y="0px"
	 width="132px" height="157px" viewBox="0 0 132 157" enable-background="new 0 0 132 157" xml:space="preserve">
<g>
	<g>
		<polygon fill="#EAEAEE" points="131.499,156.499 0.5,156.499 0.5,7.5 62.5,7.5 62.5,10 62.5,10.501 63,10.501 69.001,10.501 
			69.501,10.501 69.501,10 69.501,7.5 131.499,7.5 131.499,156.499 		"/>
		<g>
			<path fill="#3E3C3C" d="M132,7v150H0V7h63v3h6V7H132 M131,8H70v2v1h-1h-6h-1v-1V8H1v148h130V8L131,8z"/>
		</g>
	</g>
	<g>
		<polygon fill="#FFFFFF" points="131.501,138.499 0.499,138.499 0.499,95.5 131.501,95.5 131.501,138.499 		"/>
		<path fill="#3E3C3C" d="M132,95v44H0V95H132 M131,96H1v42h130V96L131,96z"/>
	</g>
	<g>
		<polygon fill="#FFFFFF" points="131.501,88.5 0.499,88.5 0.499,21.5 131.501,21.5 131.501,88.5 		"/>
		<path fill="#3E3C3C" d="M132,21v68H0V21H132 M131,22H1v66h130V22L131,22z"/>
	</g>
	<polygon fill="#3E3C3C" points="70,4 70,0 62,0 62,4 0,4 0,5 63,5 63,1 69,1 69,5 132,5 132,4 	"/>
	<rect x="6" y="3" fill="#3E3C3C" width="1" height="6"/>
	<rect x="16" y="3" fill="#3E3C3C" width="1" height="6"/>
	<rect x="26" y="3" fill="#3E3C3C" width="1" height="6"/>
	<rect x="36" y="3" fill="#3E3C3C" width="1" height="6"/>
	<rect x="46" y="3" fill="#3E3C3C" width="1" height="6"/>
	<rect x="56" y="3" fill="#3E3C3C" width="1" height="6"/>
	<rect x="75" y="3" fill="#3E3C3C" width="1" height="6"/>
	<rect x="85" y="3" fill="#3E3C3C" width="1" height="6"/>
	<rect x="95" y="3" fill="#3E3C3C" width="1" height="6"/>
	<rect x="105" y="3" fill="#3E3C3C" width="1" height="6"/>
	<rect x="115" y="3" fill="#3E3C3C" width="1" height="6"/>
	<rect x="125" y="3" fill="#3E3C3C" width="1" height="6"/>
</g>
</svg>
