<?xml version="1.0" encoding="utf-8"?>
<!-- Generator: Adobe Illustrator 13.0.0, SVG Export Plug-In . SVG Version: 6.00 Build 14948)  -->
<!DOCTYPE svg PUBLIC "-//W3C//DTD SVG 1.1//EN" "http://www.w3.org/Graphics/SVG/1.1/DTD/svg11.dtd">
<svg version="1.1" id="Layer_1" xmlns="http://www.w3.org/2000/svg" xmlns:xlink="http://www.w3.org/1999/xlink" x="0px" y="0px"
	 width="124px" height="147px" viewBox="0 0 124 147" enable-background="new 0 0 124 147" xml:space="preserve">
<g>
	<g>
		<polygon fill="#EAEAEE" points="123.499,146.499 0.499,146.499 0.499,7.5 58.5,7.5 58.5,10 58.5,10.5 59,10.5 65.001,10.5 
			65.501,10.5 65.501,10 65.501,7.5 123.499,7.5 123.499,146.499 		"/>
		<g>
			<path fill="#3E3C3C" d="M124,7v140H0V7h59v3h6V7H124 M123,8H66v2v1h-1h-6h-1v-1V8H1v138h122V8L123,8z"/>
		</g>
	</g>
	<g>
		<polygon fill="#FFFFFF" points="123.5,128.501 0.5,128.501 0.5,89.5 123.5,89.5 123.5,128.501 		"/>
		<path fill="#3E3C3C" d="M124,89v40H0V89H124 M123,90H1v38h122V90L123,90z"/>
	</g>
	<g>
		<polygon fill="#FFFFFF" points="123.5,82.502 0.5,82.502 0.5,21.499 123.5,21.499 123.5,82.502 		"/>
		<path fill="#3E3C3C" d="M124,21v62H0V21H124 M123,22H1v60h122V22L123,22z"/>
	</g>
	<polygon fill="#3E3C3C" points="66,4 66,0 58,0 58,4 0,4 0,5 59,5 59,1 65,1 65,5 124,5 124,4 	"/>
	<rect x="4" y="3" fill="#3E3C3C" width="1" height="6"/>
	<rect x="14" y="3" fill="#3E3C3C" width="1" height="6"/>
	<rect x="24" y="3" fill="#3E3C3C" width="1" height="6"/>
	<rect x="34" y="3" fill="#3E3C3C" width="1" height="6"/>
	<rect x="44" y="3" fill="#3E3C3C" width="1" height="6"/>
	<rect x="54" y="3" fill="#3E3C3C" width="1" height="6"/>
	<rect x="69" y="3" fill="#3E3C3C" width="1" height="6"/>
	<rect x="79" y="3" fill="#3E3C3C" width="1" height="6"/>
	<rect x="89" y="3" fill="#3E3C3C" width="1" height="6"/>
	<rect x="99" y="3" fill="#3E3C3C" width="1" height="6"/>
	<rect x="109" y="3" fill="#3E3C3C" width="1" height="6"/>
	<rect x="119" y="3" fill="#3E3C3C" width="1" height="6"/>
</g>
</svg>
