<?xml version="1.0" encoding="utf-8"?>
<!-- Generator: Adobe Illustrator 13.0.0, SVG Export Plug-In . SVG Version: 6.00 Build 14948)  -->
<!DOCTYPE svg PUBLIC "-//W3C//DTD SVG 1.1//EN" "http://www.w3.org/Graphics/SVG/1.1/DTD/svg11.dtd">
<svg version="1.1" id="Layer_1" xmlns="http://www.w3.org/2000/svg" xmlns:xlink="http://www.w3.org/1999/xlink" x="0px" y="0px"
	 width="116px" height="137px" viewBox="0 0 116 137" enable-background="new 0 0 116 137" xml:space="preserve">
<g>
	<g>
		<polygon fill="#EAEAEE" points="115.499,136.5 0.499,136.5 0.499,7.499 54.501,7.499 54.501,9.999 54.501,10.499 55,10.499 
			61,10.499 61.5,10.499 61.5,9.999 61.5,7.499 115.499,7.499 115.499,136.5 		"/>
		<g>
			<path fill="#3E3C3C" d="M116,7v130H0V7h55v3h6V7H116 M115,8H62v2v1h-1h-6h-1v-1V8H1v128h114V8L115,8z"/>
		</g>
	</g>
	<g>
		<polygon fill="#FFFFFF" points="115.501,118.502 0.5,118.502 0.5,83.5 115.501,83.5 115.501,118.502 		"/>
		<path fill="#3E3C3C" d="M116,83v36H0V83H116 M115,84H1v34h114V84L115,84z"/>
	</g>
	<g>
		<polygon fill="#FFFFFF" points="115.501,76.5 0.5,76.5 0.5,21.499 115.501,21.499 115.501,76.5 		"/>
		<path fill="#3E3C3C" d="M116,21v56H0V21H116 M115,22H1v54h114V22L115,22z"/>
	</g>
	<polygon fill="#3E3C3C" points="62,4 62,0 54,0 54,4 0,4 0,5 55,5 55,1 61,1 61,5 116,5 116,4 	"/>
	<rect x="12" y="3" fill="#3E3C3C" width="1" height="6"/>
	<rect x="2" y="3" fill="#3E3C3C" width="1" height="6"/>
	<rect x="22" y="3" fill="#3E3C3C" width="1" height="6"/>
	<rect x="32" y="3" fill="#3E3C3C" width="1" height="6"/>
	<rect x="42" y="3" fill="#3E3C3C" width="1" height="6"/>
	<rect x="52" y="3" fill="#3E3C3C" width="1" height="6"/>
	<rect x="63" y="3" fill="#3E3C3C" width="1" height="6"/>
	<rect x="73" y="3" fill="#3E3C3C" width="1" height="6"/>
	<rect x="83" y="3" fill="#3E3C3C" width="1" height="6"/>
	<rect x="93" y="3" fill="#3E3C3C" width="1" height="6"/>
	<rect x="103" y="3" fill="#3E3C3C" width="1" height="6"/>
	<rect x="113" y="3" fill="#3E3C3C" width="1" height="6"/>
</g>
</svg>
