<?xml version="1.0" encoding="utf-8"?>
<!-- Generator: Adobe Illustrator 13.0.0, SVG Export Plug-In . SVG Version: 6.00 Build 14948)  -->
<!DOCTYPE svg PUBLIC "-//W3C//DTD SVG 1.1//EN" "http://www.w3.org/Graphics/SVG/1.1/DTD/svg11.dtd">
<svg version="1.1" id="Layer_1" xmlns="http://www.w3.org/2000/svg" xmlns:xlink="http://www.w3.org/1999/xlink" x="0px" y="0px"
	 width="142.467px" height="91px" viewBox="0 0 142.467 91" enable-background="new 0 0 142.467 91" xml:space="preserve">
<g>
	<polygon fill="#EAEAEE" points="101.413,91 122.251,79 142.467,91 	"/>
	<g>
		<polygon fill="#EAEAEE" points="101.35,90.75 98.718,90.75 98.718,1.252 122.267,1.252 142.097,90.488 122.381,78.784 
			122.254,78.709 122.128,78.784 101.35,90.75 		"/>
		<g>
			<path fill="#3E3C3C" d="M122.467,1l20,90l-20.216-12l-20.838,12h-2.946V1H122.467 M122.065,1.5H98.967v89h2.313l20.723-11.934
				l0.253-0.146l0.251,0.149l19.222,11.409L122.065,1.5L122.065,1.5z"/>
		</g>
	</g>
	<polygon fill="#3E3C3C" points="104.014,79 123.232,79 121.545,78 104.217,78 	"/>
	<g>
		<polygon fill="#EAEAEE" points="102.063,90.75 1.775,90.75 20.87,1.25 121.158,1.25 102.063,90.75 		"/>
		<g>
			<path fill="#3E3C3C" d="M121.467,1l-19.2,90H1.467l19.2-90H121.467 M120.849,1.5H21.072l-18.987,89h99.777L120.849,1.5
				L120.849,1.5z"/>
		</g>
	</g>
	<polygon fill="#3E3C3C" points="142.467,91 1.467,91 2.008,90 142.05,90 	"/>
	<g>
		<polygon fill="#FFFFFF" points="99.599,88.75 0.309,88.75 18.869,1.25 118.159,1.25 99.599,88.75 		"/>
		<g>
			<path fill="#3E3C3C" d="M118.467,1L99.8,89H0L18.667,1H118.467 M117.85,1.5H19.072l-18.455,87h98.777L117.85,1.5L117.85,1.5z"/>
		</g>
	</g>
	<polygon fill="#3E3C3C" points="99.467,89 0,89 0.425,88 99.696,88 	"/>
	<rect x="22.467" fill="#3E3C3C" width="1" height="4"/>
	<rect x="32.467" fill="#3E3C3C" width="1" height="4"/>
	<rect x="42.467" fill="#3E3C3C" width="1" height="4"/>
	<rect x="52.467" fill="#3E3C3C" width="1" height="4"/>
	<rect x="62.467" fill="#3E3C3C" width="1" height="4"/>
	<rect x="72.467" fill="#3E3C3C" width="1" height="4"/>
	<rect x="82.467" fill="#3E3C3C" width="1" height="4"/>
	<rect x="92.467" fill="#3E3C3C" width="1" height="4"/>
	<rect x="102.467" fill="#3E3C3C" width="1" height="4"/>
	<rect x="112.467" fill="#3E3C3C" width="1" height="4"/>
	<rect x="18.467" y="1" fill="#3E3C3C" width="104" height="1"/>
</g>
</svg>
