<?xml version="1.0" encoding="utf-8"?>
<!-- Generator: Adobe Illustrator 13.0.0, SVG Export Plug-In . SVG Version: 6.00 Build 14948)  -->
<!DOCTYPE svg PUBLIC "-//W3C//DTD SVG 1.1//EN" "http://www.w3.org/Graphics/SVG/1.1/DTD/svg11.dtd">
<svg version="1.1" id="Layer_1" xmlns="http://www.w3.org/2000/svg" xmlns:xlink="http://www.w3.org/1999/xlink" x="0px" y="0px"
	 width="141px" height="91px" viewBox="0 0 141 91" enable-background="new 0 0 141 91" xml:space="preserve">
<g>
	<polygon fill="#EAEAEE" points="99.946,91 120.784,79 141,91 	"/>
	<g>
		<polygon fill="#EAEAEE" points="99.885,90.749 97.252,90.749 97.252,1.251 120.8,1.251 140.628,90.488 120.912,78.784 
			120.785,78.71 120.659,78.784 99.885,90.749 		"/>
		<g>
			<path fill="#3E3C3C" d="M121,1l20,90l-20.216-12L99.946,91H97V1H121 M120.599,1.5H97.5v89h2.313l20.723-11.934l0.253-0.146
				l0.251,0.149l19.222,11.409L120.599,1.5L120.599,1.5z"/>
		</g>
	</g>
	<polygon fill="#3E3C3C" points="102.547,79 121.766,79 120.078,78 102.75,78 	"/>
	<g>
		<polygon fill="#EAEAEE" points="100.597,90.75 0.307,90.75 19.402,1.251 119.691,1.251 100.597,90.75 		"/>
		<g>
			<path fill="#3E3C3C" d="M120,1l-19.2,90H0L19.2,1H120 M119.382,1.5H19.605l-18.987,89h99.777L119.382,1.5L119.382,1.5z"/>
		</g>
	</g>
	<polygon fill="#3E3C3C" points="141,91 0,91 0.541,90 140.583,90 	"/>
	<g>
		<polygon fill="#FFFFFF" points="100.523,78.75 1.232,78.75 17.403,1.251 116.694,1.251 100.523,78.75 		"/>
		<path fill="#3E3C3C" d="M117,1l-16.273,78h-99.8L17.2,1H117 M116.385,1.5H17.606l-16.064,77h98.778L116.385,1.5L116.385,1.5z"/>
	</g>
	<polygon fill="#3E3C3C" points="100.438,79 0.971,79 1.396,78 100.667,78 	"/>
	<rect x="21" fill="#3E3C3C" width="1" height="4"/>
	<rect x="31" fill="#3E3C3C" width="1" height="4"/>
	<rect x="41" fill="#3E3C3C" width="1" height="4"/>
	<rect x="51" fill="#3E3C3C" width="1" height="4"/>
	<rect x="61" fill="#3E3C3C" width="1" height="4"/>
	<rect x="71" fill="#3E3C3C" width="1" height="4"/>
	<rect x="81" fill="#3E3C3C" width="1" height="4"/>
	<rect x="91" fill="#3E3C3C" width="1" height="4"/>
	<rect x="101" fill="#3E3C3C" width="1" height="4"/>
	<rect x="111" fill="#3E3C3C" width="1" height="4"/>
	<rect x="17" y="1" fill="#3E3C3C" width="104" height="1"/>
</g>
</svg>
