<?xml version="1.0" encoding="utf-8"?>
<!-- Generator: Adobe Illustrator 13.0.0, SVG Export Plug-In . SVG Version: 6.00 Build 14948)  -->
<!DOCTYPE svg PUBLIC "-//W3C//DTD SVG 1.1//EN" "http://www.w3.org/Graphics/SVG/1.1/DTD/svg11.dtd">
<svg version="1.1" id="Layer_1" xmlns="http://www.w3.org/2000/svg" xmlns:xlink="http://www.w3.org/1999/xlink" x="0px" y="0px"
	 width="132.467px" height="81px" viewBox="0 0 132.467 81" enable-background="new 0 0 132.467 81" xml:space="preserve">
<g>
	<polygon fill="#EAEAEE" points="91.413,81 112.251,69 132.467,81 	"/>
	<g>
		<polygon fill="#EAEAEE" points="91.347,80.749 88.717,80.749 88.717,1.251 112.271,1.251 132.079,80.478 112.379,68.784 
			112.253,68.709 112.126,68.781 91.347,80.749 		"/>
		<g>
			<path fill="#3E3C3C" d="M112.467,1l20,80l-20.216-12L91.413,81h-2.946V1H112.467 M112.076,1.5H88.967v79h2.313l20.722-11.934
				l0.254-0.146l0.251,0.149l19.186,11.388L112.076,1.5L112.076,1.5z"/>
		</g>
	</g>
	<polygon fill="#3E3C3C" points="94.014,69 113.232,69 111.545,68 94.217,68 	"/>
	<g>
		<polygon fill="#EAEAEE" points="92.067,80.75 1.784,80.75 20.865,1.25 111.148,1.25 92.067,80.75 		"/>
		<g>
			<path fill="#3E3C3C" d="M111.467,1l-19.2,80h-90.8l19.2-80H111.467 M110.833,1.5H21.061l-18.96,79h89.771L110.833,1.5
				L110.833,1.5z"/>
		</g>
	</g>
	<polygon fill="#3E3C3C" points="132.467,81 1.467,81 2.008,80 132.05,80 	"/>
	<g>
		<polygon fill="#FFFFFF" points="89.602,78.749 0.319,78.749 18.866,1.25 108.149,1.25 89.602,78.749 		"/>
		<g>
			<path fill="#3E3C3C" d="M108.467,1L89.8,79H0L18.667,1H108.467 M107.833,1.5H19.062l-18.428,77h88.771L107.833,1.5L107.833,1.5z"
				/>
		</g>
	</g>
	<polygon fill="#3E3C3C" points="89.467,79 0,79 0.425,78 89.696,78 	"/>
	<rect x="22.467" fill="#3E3C3C" width="1" height="4"/>
	<rect x="32.467" fill="#3E3C3C" width="1" height="4"/>
	<rect x="42.467" fill="#3E3C3C" width="1" height="4"/>
	<rect x="52.467" fill="#3E3C3C" width="1" height="4"/>
	<rect x="62.467" fill="#3E3C3C" width="1" height="4"/>
	<rect x="72.467" fill="#3E3C3C" width="1" height="4"/>
	<rect x="82.467" fill="#3E3C3C" width="1" height="4"/>
	<rect x="92.467" fill="#3E3C3C" width="1" height="4"/>
	<rect x="102.467" fill="#3E3C3C" width="1" height="4"/>
	<rect x="18.467" y="1" fill="#3E3C3C" width="94" height="1"/>
</g>
</svg>
