<?xml version="1.0" encoding="utf-8"?>
<!-- Generator: Adobe Illustrator 13.0.0, SVG Export Plug-In . SVG Version: 6.00 Build 14948)  -->
<!DOCTYPE svg PUBLIC "-//W3C//DTD SVG 1.1//EN" "http://www.w3.org/Graphics/SVG/1.1/DTD/svg11.dtd">
<svg version="1.1" id="Layer_1" xmlns="http://www.w3.org/2000/svg" xmlns:xlink="http://www.w3.org/1999/xlink" x="0px" y="0px"
	 width="131px" height="81px" viewBox="0 0 131 81" enable-background="new 0 0 131 81" xml:space="preserve">
<g>
	<polygon fill="#EAEAEE" points="89.946,81 110.784,69 131,81 	"/>
	<g>
		<polygon fill="#EAEAEE" points="89.88,80.75 87.25,80.75 87.25,1.251 110.805,1.251 130.612,80.479 110.912,68.783 
			110.786,68.709 110.659,68.781 89.88,80.75 		"/>
		<g>
			<path fill="#3E3C3C" d="M111,1l20,80l-20.216-12L89.946,81H87V1H111 M110.609,1.5H87.5v79h2.313l20.722-11.934l0.254-0.146
				l0.251,0.149l19.185,11.388L110.609,1.5L110.609,1.5z"/>
		</g>
	</g>
	<polygon fill="#3E3C3C" points="92.547,69 111.766,69 110.078,68 92.75,68 	"/>
	<g>
		<polygon fill="#EAEAEE" points="90.601,80.75 0.319,80.75 19.399,1.25 109.682,1.25 90.601,80.75 		"/>
		<g>
			<path fill="#3E3C3C" d="M110,1L90.8,81H0L19.2,1H110 M109.366,1.5H19.594l-18.96,79h89.771L109.366,1.5L109.366,1.5z"/>
		</g>
	</g>
	<polygon fill="#3E3C3C" points="131,81 0,81 0.541,80 130.583,80 	"/>
	<g>
		<polygon fill="#FFFFFF" points="90.527,68.751 1.244,68.751 17.399,1.249 106.683,1.249 90.527,68.751 		"/>
		<path fill="#3E3C3C" d="M107,1L90.727,69h-89.8L17.2,1H107 M106.366,1.5H17.595l-16.034,67h88.771L106.366,1.5L106.366,1.5z"/>
	</g>
	<polygon fill="#3E3C3C" points="90.438,69 0.971,69 1.396,68 90.667,68 	"/>
	<rect x="21" fill="#3E3C3C" width="1" height="4"/>
	<rect x="31" fill="#3E3C3C" width="1" height="4"/>
	<rect x="41" fill="#3E3C3C" width="1" height="4"/>
	<rect x="51" fill="#3E3C3C" width="1" height="4"/>
	<rect x="61" fill="#3E3C3C" width="1" height="4"/>
	<rect x="71" fill="#3E3C3C" width="1" height="4"/>
	<rect x="81" fill="#3E3C3C" width="1" height="4"/>
	<rect x="91" fill="#3E3C3C" width="1" height="4"/>
	<rect x="101" fill="#3E3C3C" width="1" height="4"/>
	<rect x="17" y="1" fill="#3E3C3C" width="94" height="1"/>
</g>
</svg>
