<?xml version="1.0" encoding="utf-8"?>
<!-- Generator: Adobe Illustrator 13.0.0, SVG Export Plug-In . SVG Version: 6.00 Build 14948)  -->
<!DOCTYPE svg PUBLIC "-//W3C//DTD SVG 1.1//EN" "http://www.w3.org/Graphics/SVG/1.1/DTD/svg11.dtd">
<svg version="1.1" id="Layer_1" xmlns="http://www.w3.org/2000/svg" xmlns:xlink="http://www.w3.org/1999/xlink" x="0px" y="0px"
	 width="142.467px" height="111px" viewBox="0 0 142.467 111" enable-background="new 0 0 142.467 111" xml:space="preserve">
<g>
	<polygon fill="#EAEAEE" points="101.413,111 122.251,99 142.467,111 	"/>
	<g>
		<polygon fill="#EAEAEE" points="101.35,110.75 98.718,110.75 98.718,1.252 122.258,1.252 142.121,110.503 122.381,98.784 
			122.254,98.709 122.128,98.784 101.35,110.75 		"/>
		<g>
			<path fill="#3E3C3C" d="M122.467,1l20,110l-20.216-12l-20.838,12h-2.946V1H122.467 M122.05,1.5H98.967v109h2.313l20.723-11.934
				l0.253-0.146l0.251,0.149l19.272,11.439L122.05,1.5L122.05,1.5z"/>
		</g>
	</g>
	<polygon fill="#3E3C3C" points="104.014,99 123.232,99 121.545,98 104.217,98 	"/>
	<g>
		<polygon fill="#EAEAEE" points="102.056,110.75 1.764,110.75 20.878,1.251 121.17,1.251 102.056,110.75 		"/>
		<g>
			<path fill="#3E3C3C" d="M121.467,1l-19.2,110H1.467l19.2-110H121.467 M120.872,1.5H21.087l-19.026,109h99.785L120.872,1.5
				L120.872,1.5z"/>
		</g>
	</g>
	<polygon fill="#3E3C3C" points="142.467,111 1.467,111 2.008,110 142.05,110 	"/>
	<g>
		<polygon fill="#FFFFFF" points="99.588,108.749 0.297,108.749 18.878,1.25 118.17,1.25 99.588,108.749 		"/>
		<g>
			<path fill="#3E3C3C" d="M118.467,1L99.8,109H0L18.667,1H118.467 M117.873,1.5H19.088l-18.494,107h98.785L117.873,1.5L117.873,1.5
				z"/>
		</g>
	</g>
	<polygon fill="#3E3C3C" points="99.467,109 0,109 0.425,108 99.696,108 	"/>
	<rect x="22.467" fill="#3E3C3C" width="1" height="4"/>
	<rect x="32.467" fill="#3E3C3C" width="1" height="4"/>
	<rect x="42.467" fill="#3E3C3C" width="1" height="4"/>
	<rect x="52.467" fill="#3E3C3C" width="1" height="4"/>
	<rect x="62.467" fill="#3E3C3C" width="1" height="4"/>
	<rect x="72.467" fill="#3E3C3C" width="1" height="4"/>
	<rect x="82.467" fill="#3E3C3C" width="1" height="4"/>
	<rect x="92.467" fill="#3E3C3C" width="1" height="4"/>
	<rect x="102.467" fill="#3E3C3C" width="1" height="4"/>
	<rect x="112.467" fill="#3E3C3C" width="1" height="4"/>
	<rect x="18.467" y="1" fill="#3E3C3C" width="104" height="1"/>
</g>
</svg>
