<?xml version="1.0" encoding="utf-8"?>
<!-- Generator: Adobe Illustrator 13.0.0, SVG Export Plug-In . SVG Version: 6.00 Build 14948)  -->
<!DOCTYPE svg PUBLIC "-//W3C//DTD SVG 1.1//EN" "http://www.w3.org/Graphics/SVG/1.1/DTD/svg11.dtd">
<svg version="1.1" id="Layer_1" xmlns="http://www.w3.org/2000/svg" xmlns:xlink="http://www.w3.org/1999/xlink" x="0px" y="0px"
	 width="141px" height="111px" viewBox="0 0 141 111" enable-background="new 0 0 141 111" xml:space="preserve">
<g>
	<polygon fill="#EAEAEE" points="99.946,111 120.784,99 141,111 	"/>
	<g>
		<polygon fill="#EAEAEE" points="99.885,110.748 97.252,110.748 97.252,1.252 120.791,1.252 140.652,110.501 120.912,98.783 
			120.785,98.709 120.659,98.783 99.885,110.748 		"/>
		<g>
			<path fill="#3E3C3C" d="M121,1l20,110l-20.216-12l-20.838,12H97V1H121 M120.583,1.5H97.5v109h2.313l20.723-11.934l0.253-0.146
				l0.251,0.149l19.272,11.439L120.583,1.5L120.583,1.5z"/>
		</g>
	</g>
	<g>
		<polygon fill="#EAEAEE" points="100.588,110.75 0.298,110.75 19.412,1.251 119.702,1.251 100.588,110.75 		"/>
		<g>
			<path fill="#3E3C3C" d="M120,1l-19.2,110H0L19.2,1H120 M119.405,1.5H19.621l-19.026,109h99.785L119.405,1.5L119.405,1.5z"/>
		</g>
	</g>
	<polygon fill="#3E3C3C" points="141,111 0,111 0.541,110 140.583,110 	"/>
	<polygon fill="#3E3C3C" points="102.547,99 121.766,99 120.078,98 102.75,98 	"/>
	<g>
		<polygon fill="#FFFFFF" points="100.515,98.751 1.22,98.751 17.411,1.25 116.706,1.25 100.515,98.751 		"/>
		<path fill="#3E3C3C" d="M117,1l-16.273,98h-99.8L17.2,1H117 M116.41,1.5H17.624l-16.107,97h98.786L116.41,1.5L116.41,1.5z"/>
	</g>
	<polygon fill="#3E3C3C" points="100.438,99 0.971,99 1.396,98 100.667,98 	"/>
	<rect x="21" fill="#3E3C3C" width="1" height="4"/>
	<rect x="31" fill="#3E3C3C" width="1" height="4"/>
	<rect x="41" fill="#3E3C3C" width="1" height="4"/>
	<rect x="51" fill="#3E3C3C" width="1" height="4"/>
	<rect x="61" fill="#3E3C3C" width="1" height="4"/>
	<rect x="71" fill="#3E3C3C" width="1" height="4"/>
	<rect x="81" fill="#3E3C3C" width="1" height="4"/>
	<rect x="91" fill="#3E3C3C" width="1" height="4"/>
	<rect x="101" fill="#3E3C3C" width="1" height="4"/>
	<rect x="111" fill="#3E3C3C" width="1" height="4"/>
	<rect x="17" y="1" fill="#3E3C3C" width="104" height="1"/>
</g>
</svg>
