<?xml version="1.0" encoding="utf-8"?>
<!-- Generator: Adobe Illustrator 13.0.0, SVG Export Plug-In . SVG Version: 6.00 Build 14948)  -->
<!DOCTYPE svg PUBLIC "-//W3C//DTD SVG 1.1//EN" "http://www.w3.org/Graphics/SVG/1.1/DTD/svg11.dtd">
<svg version="1.1" id="Layer_1" xmlns="http://www.w3.org/2000/svg" xmlns:xlink="http://www.w3.org/1999/xlink" x="0px" y="0px"
	 width="120px" height="63px" viewBox="0 0 120 63" enable-background="new 0 0 120 63" xml:space="preserve">
<g>
	<polygon fill="#B0B0B0" points="85,62 115,62 115,60.514 99,51 85,60.333 	"/>
	<g>
		<polygon fill="#EAEAEE" points="100,2 116,62 0,62 0,63 120,63 104,2 		"/>
	</g>
	<g>
		<path fill="#EAEAEE" d="M83.698,61H80V3h19.23l15.175,56.902l-14.897-8.764C99.351,51.046,99.175,51,99.001,51
			c-0.194,0-0.388,0.056-0.555,0.168L83.698,61L83.698,61z"/>
		<path fill="#15242A" d="M100,2l16,60L99,52L84,62h-5V2H100 M98.464,4H81v56h2.395l14.496-9.664C98.226,50.112,98.612,50,99,50
			c0.35,0,0.7,0.092,1.014,0.276l12.798,7.527L98.464,4L98.464,4z"/>
	</g>
	<g>
		<polygon fill="#EAEAEE" points="83.231,60.999 1.302,60.999 16.77,3 98.697,3 83.231,60.999 		"/>
		<path fill="#15242A" d="M100,2L84,62H0L16,2H100 M97.396,4h-79.86L2.603,60h79.861L97.396,4L97.396,4z"/>
	</g>
	<g>
		<polygon fill="#FFFFFF" points="81.614,55.501 0.934,55.501 14.387,3.5 95.064,3.5 81.614,55.501 		"/>
		<path fill="#15242A" d="M95.709,3L82,56H0.291L14,3H95.709 M94.417,4H14.774L1.583,55h79.643L94.417,4L94.417,4z"/>
	</g>
	<rect x="28" fill="#15242A" width="2" height="5"/>
	<rect x="28" y="6" fill="#15242A" width="2" height="2"/>
	<rect x="18" fill="#15242A" width="2" height="5"/>
	<rect x="18" y="6" fill="#15242A" width="2" height="2"/>
	<rect x="38" fill="#15242A" width="2" height="5"/>
	<rect x="38" y="6" fill="#15242A" width="2" height="2"/>
	<rect x="48" fill="#15242A" width="2" height="5"/>
	<rect x="48" y="6" fill="#15242A" width="2" height="2"/>
	<rect x="58" fill="#15242A" width="2" height="5"/>
	<rect x="58" y="6" fill="#15242A" width="2" height="2"/>
	<rect x="68" fill="#15242A" width="2" height="5"/>
	<rect x="68" y="6" fill="#15242A" width="2" height="2"/>
	<rect x="78" fill="#15242A" width="2" height="5"/>
	<rect x="78" y="6" fill="#15242A" width="2" height="2"/>
	<rect x="88" fill="#15242A" width="2" height="5"/>
	<rect x="88" y="6" fill="#15242A" width="2" height="2"/>
	<polygon fill="#15242A" points="116,62 84,62 84,61 115,61 	"/>
	<path opacity="0.5" fill="#B0B0B0" d="M98.998,6.006l-1.678,6.04l-12.541,47.03l13.111-8.74C98.226,50.112,98.612,50,99,50V6.012
		L98.998,6.006z"/>
	<rect x="86" y="50" fill="#15242A" width="13" height="1"/>
	<path fill="#15242A" d="M48,15h19v-1H48V15z M70,14v1h19v-1H70z"/>
	<path fill="#15242A" d="M46,20h19v-1H46V20z M68,19v1h19v-1H68z"/>
	<path fill="#15242A" d="M44,25h19v-1H44V25z M66,24v1h19v-1H66z"/>
	<path fill="#15242A" d="M42,38h19v-1H42V38z M64,37v1h19v-1H64z"/>
	<path fill="#15242A" d="M40,43h19v-1H40V43z M62,42v1h19v-1H62z"/>
	<path fill="#15242A" d="M38,48h19v-1H38V48z M60,47v1h19v-1H60z"/>
	<g>
		<path fill="#15242A" d="M44,14l-9,34H7l9-34H44 M42.701,15H16.77l-8.47,32H34.23L42.701,15L42.701,15z"/>
	</g>
</g>
</svg>
